FiraCode-Bold.ufo
<glyph name="percent" format="2">
  <advance width="1200"/>
  <unicode hex="0025"/>
  <outline>
    <contour>
      <point x="850" y="1432" type="line"/>
      <point x="169" y="12" type="line"/>
      <point x="336" y="-58" type="line"/>
      <point x="1019" y="1362" type="line"/>
    </contour>
    <contour>
      <point x="907" y="459" type="curve" smooth="yes"/>
      <point x="973" y="459"/>
      <point x="987" y="407"/>
      <point x="987" y="300" type="curve" smooth="yes"/>
      <point x="987" y="201"/>
      <point x="973" y="143"/>
      <point x="907" y="143" type="curve" smooth="yes"/>
      <point x="845" y="143"/>
      <point x="827" y="205"/>
      <point x="827" y="300" type="curve" smooth="yes"/>
      <point x="827" y="399"/>
      <point x="841" y="459"/>
    </contour>
    <contour>
      <point x="293" y="1266" type="curve" smooth="yes"/>
      <point x="359" y="1266"/>
      <point x="373" y="1214"/>
      <point x="373" y="1107" type="curve" smooth="yes"/>
      <point x="373" y="1008"/>
      <point x="359" y="950"/>
      <point x="293" y="950" type="curve" smooth="yes"/>
      <point x="231" y="950"/>
      <point x="213" y="1012"/>
      <point x="213" y="1107" type="curve" smooth="yes"/>
      <point x="213" y="1206"/>
      <point x="227" y="1266"/>
    </contour>
    <contour>
      <point x="293" y="1421" type="curve" smooth="yes"/>
      <point x="113" y="1421"/>
      <point x="7" y="1289"/>
      <point x="7" y="1107" type="curve" smooth="yes"/>
      <point x="7" y="918"/>
      <point x="113" y="795"/>
      <point x="293" y="795" type="curve" smooth="yes"/>
      <point x="471" y="795"/>
      <point x="577" y="918"/>
      <point x="577" y="1107" type="curve" smooth="yes"/>
      <point x="577" y="1297"/>
      <point x="471" y="1421"/>
    </contour>
    <contour>
      <point x="907" y="614" type="curve" smooth="yes"/>
      <point x="727" y="614"/>
      <point x="621" y="482"/>
      <point x="621" y="300" type="curve" smooth="yes"/>
      <point x="621" y="111"/>
      <point x="727" y="-12"/>
      <point x="907" y="-12" type="curve" smooth="yes"/>
      <point x="1085" y="-12"/>
      <point x="1191" y="111"/>
      <point x="1191" y="300" type="curve" smooth="yes"/>
      <point x="1191" y="490"/>
      <point x="1085" y="614"/>
    </contour>
  </outline>
</glyph>
<glyph name="quotesingle" format="2">
  <advance width="1200"/>
  <unicode hex="0027"/>
  <outline>
    <contour>
      <point x="487" y="925" type="line"/>
      <point x="711" y="925" type="line"/>
      <point x="749" y="1484" type="line"/>
      <point x="449" y="1484" type="line"/>
    </contour>
  </outline>
</glyph>
<glyph name="plus" format="2">
  <advance width="1200"/>
  <unicode hex="002B"/>
  <outline>
    <contour>
      <point x="731" y="1158" type="line"/>
      <point x="467" y="1158" type="line"/>
      <point x="467" y="747" type="line"/>
      <point x="66" y="747" type="line"/>
      <point x="66" y="503" type="line"/>
      <point x="467" y="503" type="line"/>
      <point x="467" y="92" type="line"/>
      <point x="731" y="92" type="line"/>
      <point x="731" y="503" type="line"/>
      <point x="1134" y="503" type="line"/>
      <point x="1134" y="747" type="line"/>
      <point x="731" y="747" type="line"/>
    </contour>
  </outline>
</glyph>
<glyph name="zero" format="2">
  <advance width="1200"/>
  <unicode hex="0030"/>
  <outline>
    <contour>
      <point x="600" y="1421" type="curve" smooth="yes"/>
      <point x="267" y="1421"/>
      <point x="99" y="1152"/>
      <point x="99" y="696" type="curve" smooth="yes"/>
      <point x="99" y="238"/>
      <point x="267" y="-34"/>
      <point x="600" y="-34" type="curve" smooth="yes"/>
      <point x="931" y="-34"/>
      <point x="1101" y="238"/>
      <point x="1101" y="696" type="curve" smooth="yes"/>
      <point x="1101" y="1152"/>
      <point x="931" y="1421"/>
    </contour>
    <contour>
      <point x="600" y="1192" type="curve" smooth="yes"/>
      <point x="757" y="1192"/>
      <point x="802" y="1104"/>
      <point x="802" y="696" type="curve" smooth="yes"/>
      <point x="802" y="325"/>
      <point x="741" y="194"/>
      <point x="600" y="194" type="curve" smooth="yes"/>
      <point x="441" y="194"/>
      <point x="396" y="280"/>
      <point x="396" y="696" type="curve" smooth="yes"/>
      <point x="396" y="1055"/>
      <point x="459" y="1192"/>
    </contour>
    <contour>
      <point x="757" y="1148" type="line"/>
      <point x="377" y="353" type="line"/>
      <point x="468" y="211" type="line"/>
      <point x="838" y="975" type="line"/>
    </contour>
  </outline>
</glyph>
<glyph name="two" format="2">
  <advance width="1200"/>
  <unicode hex="0032"/>
  <outline>
    <contour>
      <point x="552" y="1421" type="curve" smooth="yes"/>
      <point x="329" y="1421"/>
      <point x="183" y="1328"/>
      <point x="79" y="1184" type="curve"/>
      <point x="273" y="1038" type="line"/>
      <point x="345" y="1136"/>
      <point x="417" y="1178"/>
      <point x="522" y="1178" type="curve" smooth="yes"/>
      <point x="641" y="1178"/>
      <point x="708" y="1108"/>
      <point x="708" y="996" type="curve" smooth="yes"/>
      <point x="708" y="831"/>
      <point x="563" y="665"/>
      <point x="107" y="224" type="curve"/>
      <point x="107" y="0" type="line"/>
      <point x="1028" y="0" type="line"/>
      <point x="1062" y="241" type="line"/>
      <point x="470" y="241" type="line"/>
      <point x="891" y="618"/>
      <point x="1030" y="799"/>
      <point x="1030" y="1024" type="curve" smooth="yes"/>
      <point x="1030" y="1236"/>
      <point x="868" y="1421"/>
    </contour>
  </outline>
</glyph>
<glyph name="three" format="2">
  <advance width="1200"/>
  <unicode hex="0033"/>
  <outline>
    <contour>
      <point x="544" y="1421" type="curve" smooth="yes"/>
      <point x="353" y="1421"/>
      <point x="196" y="1356"/>
      <point x="70" y="1234" type="curve"/>
      <point x="232" y="1066" type="line"/>
      <point x="311" y="1140"/>
      <point x="398" y="1186"/>
      <point x="509" y="1186" type="curve" smooth="yes"/>
      <point x="627" y="1186"/>
      <point x="710" y="1122"/>
      <point x="710" y="1018" type="curve" smooth="yes"/>
      <point x="710" y="897"/>
      <point x="623" y="837"/>
      <point x="501" y="837" type="curve" smooth="yes"/>
      <point x="411" y="837" type="line"/>
      <point x="375" y="619" type="line"/>
      <point x="501" y="619" type="line" smooth="yes"/>
      <point x="650" y="619"/>
      <point x="736" y="559"/>
      <point x="736" y="412" type="curve" smooth="yes"/>
      <point x="736" y="280"/>
      <point x="640" y="208"/>
      <point x="503" y="208" type="curve" smooth="yes"/>
      <point x="394" y="208"/>
      <point x="294" y="248"/>
      <point x="214" y="340" type="curve"/>
      <point x="36" y="174" type="line"/>
      <point x="152" y="42"/>
      <point x="317" y="-34"/>
      <point x="524" y="-34" type="curve" smooth="yes"/>
      <point x="857" y="-34"/>
      <point x="1060" y="156"/>
      <point x="1060" y="390" type="curve" smooth="yes"/>
      <point x="1060" y="614"/>
      <point x="924" y="708"/>
      <point x="733" y="734" type="curve"/>
      <point x="904" y="783"/>
      <point x="1016" y="890"/>
      <point x="1016" y="1066" type="curve" smooth="yes"/>
      <point x="1016" y="1260"/>
      <point x="843" y="1421"/>
    </contour>
  </outline>
</glyph>
<glyph name="four" format="2">
  <advance width="1200"/>
  <unicode hex="0034"/>
  <outline>
    <contour>
      <point x="474" y="1421" type="line"/>
      <point x="89" y="501" type="line"/>
      <point x="89" y="291" type="line"/>
      <point x="1107" y="291" type="line"/>
      <point x="1107" y="528" type="line"/>
      <point x="415" y="528" type="line"/>
      <point x="743" y="1322" type="line"/>
    </contour>
    <contour>
      <point x="968" y="862" type="line"/>
      <point x="701" y="862" type="line"/>
      <point x="661" y="496" type="line"/>
      <point x="665" y="0" type="line"/>
      <point x="968" y="0" type="line"/>
    </contour>
  </outline>
</glyph>
<glyph name="colon" format="2">
  <advance width="1200"/>
  <unicode hex="003A"/>
  <outline>
    <contour>
      <point x="389" y="177" type="curve" smooth="yes"/>
      <point x="389" y="62"/>
      <point x="483" y="-34"/>
      <point x="600" y="-34" type="curve" smooth="yes"/>
      <point x="717" y="-34"/>
      <point x="809" y="62"/>
      <point x="809" y="177" type="curve" smooth="yes"/>
      <point x="809" y="290"/>
      <point x="717" y="384"/>
      <point x="600" y="384" type="curve" smooth="yes"/>
      <point x="483" y="384"/>
      <point x="389" y="290"/>
    </contour>
    <contour>
      <point x="389" y="868" type="curve" smooth="yes"/>
      <point x="389" y="754"/>
      <point x="483" y="659"/>
      <point x="600" y="659" type="curve" smooth="yes"/>
      <point x="717" y="659"/>
      <point x="809" y="754"/>
      <point x="809" y="868" type="curve" smooth="yes"/>
      <point x="809" y="981"/>
      <point x="717" y="1078"/>
      <point x="600" y="1078" type="curve" smooth="yes"/>
      <point x="483" y="1078"/>
      <point x="389" y="981"/>
    </contour>
  </outline>
</glyph>
<glyph name="semicolon" format="2">
  <advance width="1200"/>
  <unicode hex="003B"/>
  <outline>
    <contour>
      <point x="600" y="394" type="curve" smooth="yes"/>
      <point x="481" y="394"/>
      <point x="389" y="305"/>
      <point x="389" y="188" type="curve" smooth="yes"/>
      <point x="389" y="114"/>
      <point x="423" y="52"/>
      <point x="481" y="15" type="curve"/>
      <point x="383" y="-395" type="line"/>
      <point x="587" y="-395" type="line"/>
      <point x="726" y="-80" type="line" smooth="yes"/>
      <point x="779" y="43"/>
      <point x="809" y="112"/>
      <point x="809" y="186" type="curve" smooth="yes"/>
      <point x="809" y="305"/>
      <point x="719" y="394"/>
    </contour>
    <contour>
      <point x="600" y="1078" type="curve" smooth="yes"/>
      <point x="483" y="1078"/>
      <point x="389" y="981"/>
      <point x="389" y="868" type="curve" smooth="yes"/>
      <point x="389" y="754"/>
      <point x="483" y="659"/>
      <point x="600" y="659" type="curve" smooth="yes"/>
      <point x="717" y="659"/>
      <point x="809" y="754"/>
      <point x="809" y="868" type="curve" smooth="yes"/>
      <point x="809" y="981"/>
      <point x="717" y="1078"/>
    </contour>
  </outline>
</glyph>
<glyph name="at" format="2">
  <advance width="1200"/>
  <unicode hex="0040"/>
  <outline>
    <contour>
      <point x="574" y="1421" type="curve" smooth="yes"/>
      <point x="357" y="1421"/>
      <point x="179" y="1350"/>
      <point x="-3" y="1190" type="curve"/>
      <point x="122" y="1043" type="line"/>
      <point x="276" y="1177"/>
      <point x="415" y="1227"/>
      <point x="558" y="1227" type="curve" smooth="yes"/>
      <point x="878" y="1227"/>
      <point x="955" y="993"/>
      <point x="955" y="574" type="curve" smooth="yes"/>
      <point x="955" y="162"/>
      <point x="949" y="9"/>
      <point x="872" y="9" type="curve" smooth="yes"/>
      <point x="817" y="9"/>
      <point x="792" y="60"/>
      <point x="792" y="208" type="curve" smooth="yes"/>
      <point x="792" y="808" type="line"/>
      <point x="682" y="868"/>
      <point x="562" y="896"/>
      <point x="456" y="896" type="curve" smooth="yes"/>
      <point x="165" y="896"/>
      <point x="31" y="687"/>
      <point x="31" y="358" type="curve" smooth="yes"/>
      <point x="31" y="100"/>
      <point x="117" y="-98"/>
      <point x="354" y="-98" type="curve" smooth="yes"/>
      <point x="497" y="-98"/>
      <point x="590" y="-13"/>
      <point x="634" y="88" type="curve"/>
      <point x="642" y="88" type="line"/>
      <point x="659" y="-62"/>
      <point x="729" y="-188"/>
      <point x="882" y="-188" type="curve" smooth="yes"/>
      <point x="1137" y="-188"/>
      <point x="1197" y="87"/>
      <point x="1197" y="591" type="curve" smooth="yes"/>
      <point x="1197" y="1091"/>
      <point x="1049" y="1421"/>
    </contour>
    <contour>
      <point x="450" y="698" type="curve" smooth="yes"/>
      <point x="481" y="698"/>
      <point x="501" y="692"/>
      <point x="526" y="679" type="curve"/>
      <point x="526" y="241" type="line"/>
      <point x="517" y="179"/>
      <point x="501" y="100"/>
      <point x="411" y="100" type="curve" smooth="yes"/>
      <point x="336" y="100"/>
      <point x="314" y="176"/>
      <point x="314" y="358" type="curve" smooth="yes"/>
      <point x="314" y="614"/>
      <point x="344" y="698"/>
    </contour>
  </outline>
</glyph>
<glyph name="E" format="2">
  <advance width="1200"/>
  <unicode hex="0045"/>
  <anchor x="640" y="0" name="bottom"/>
  <anchor x="954" y="0" name="ogonek"/>
  <anchor x="640" y="1386" name="top"/>
  <anchor x="166" y="1386" name="topleft"/>
  <outline>
    <contour>
      <point x="514" y="1152" type="line"/>
      <point x="1059" y="1152" type="line"/>
      <point x="1092" y="1386" type="line"/>
      <point x="186" y="1386" type="line"/>
      <point x="186" y="0" type="line"/>
      <point x="1093" y="0" type="line"/>
      <point x="1093" y="235" type="line"/>
      <point x="514" y="235" type="line"/>
      <point x="514" y="589" type="line"/>
      <point x="994" y="589" type="line"/>
      <point x="994" y="819" type="line"/>
      <point x="514" y="819" type="line"/>
    </contour>
  </outline>
</glyph>
<glyph name="J" format="2">
  <advance width="1200"/>
  <unicode hex="004A"/>
  <anchor x="600" y="0" name="bottom"/>
  <anchor x="704" y="1386" name="top"/>
  <outline>
    <contour>
      <point x="1054" y="1386" type="line"/>
      <point x="301" y="1386" type="line"/>
      <point x="301" y="1146" type="line"/>
      <point x="727" y="1146" type="line"/>
      <point x="727" y="495" type="line" smooth="yes"/>
      <point x="727" y="303"/>
      <point x="619" y="214"/>
      <point x="477" y="214" type="curve" smooth="yes"/>
      <point x="372" y="214"/>
      <point x="297" y="237"/>
      <point x="203" y="302" type="curve"/>
      <point x="78" y="100" type="line"/>
      <point x="198" y="18"/>
      <point x="318" y="-30"/>
      <point x="497" y="-30" type="curve" smooth="yes"/>
      <point x="851" y="-30"/>
      <point x="1054" y="175"/>
      <point x="1054" y="499" type="curve" smooth="yes"/>
    </contour>
  </outline>
</glyph>
<glyph name="K" format="2">
  <advance width="1200"/>
  <unicode hex="004B"/>
  <anchor x="601" y="0" name="bottom"/>
  <anchor x="601" y="1386" name="top"/>
  <outline>
    <contour>
      <point x="446" y="0" type="line"/>
      <point x="446" y="1386" type="line"/>
      <point x="118" y="1386" type="line"/>
      <point x="118" y="0" type="line"/>
    </contour>
    <contour>
      <point x="456" y="740" type="line"/>
      <point x="837" y="0" type="line"/>
      <point x="1217" y="0" type="line"/>
      <point x="787" y="764" type="line"/>
      <point x="1179" y="1386" type="line"/>
      <point x="835" y="1386" type="line"/>
    </contour>
  </outline>
</glyph>
<glyph name="L" format="2">
  <advance width="1200"/>
  <unicode hex="004C"/>
  <anchor x="635" y="0" name="bottom"/>
  <anchor x="932" y="770" name="center"/>
  <anchor x="350" y="1386" name="top"/>
  <anchor x="614" y="1386" name="topright"/>
  <outline>
    <contour>
      <point x="186" y="0" type="line"/>
      <point x="1081" y="0" type="line"/>
      <point x="1115" y="259" type="line"/>
      <point x="514" y="259" type="line"/>
      <point x="514" y="1386" type="line"/>
      <point x="186" y="1386" type="line"/>
    </contour>
  </outline>
</glyph>
<glyph name="Q" format="2">
  <advance width="1200"/>
  <unicode hex="0051"/>
  <anchor x="600" y="0" name="bottom"/>
  <anchor x="600" y="1386" name="top"/>
  <outline>
    <contour>
      <point x="1149" y="694" type="curve" smooth="yes"/>
      <point x="1149" y="1143"/>
      <point x="969" y="1421"/>
      <point x="606" y="1421" type="curve" smooth="yes"/>
      <point x="243" y="1421"/>
      <point x="65" y="1133"/>
      <point x="65" y="694" type="curve" smooth="yes"/>
      <point x="65" y="244"/>
      <point x="233" y="-28"/>
      <point x="580" y="-28" type="curve" smooth="yes"/>
      <point x="822" y="-28"/>
      <point x="912" y="-138"/>
      <point x="1000" y="-346" type="curve"/>
      <point x="1268" y="-255" type="line"/>
      <point x="1192" y="-31"/>
      <point x="1074" y="43"/>
      <point x="857" y="79" type="curve"/>
      <point x="1077" y="191"/>
      <point x="1149" y="421"/>
    </contour>
    <contour>
      <point x="807" y="694" type="curve" smooth="yes"/>
      <point x="807" y="357"/>
      <point x="766" y="206"/>
      <point x="606" y="206" type="curve" smooth="yes"/>
      <point x="452" y="206"/>
      <point x="404" y="355"/>
      <point x="404" y="694" type="curve" smooth="yes"/>
      <point x="404" y="1031"/>
      <point x="450" y="1180"/>
      <point x="606" y="1180" type="curve" smooth="yes"/>
      <point x="764" y="1180"/>
      <point x="807" y="1033"/>
    </contour>
  </outline>
</glyph>
<glyph name="R" format="2">
  <advance width="1200"/>
  <unicode hex="0052"/>
  <anchor x="619" y="0" name="bottom"/>
  <anchor x="600" y="1386" name="top"/>
  <outline>
    <contour>
      <point x="1123" y="965" type="curve" smooth="yes"/>
      <point x="1123" y="1252"/>
      <point x="929" y="1386"/>
      <point x="552" y="1386" type="curve" smooth="yes"/>
      <point x="116" y="1386" type="line"/>
      <point x="116" y="0" type="line"/>
      <point x="444" y="0" type="line"/>
      <point x="444" y="530" type="line"/>
      <point x="537" y="530" type="line"/>
      <point x="837" y="0" type="line"/>
      <point x="1208" y="0" type="line"/>
      <point x="845" y="585" type="line"/>
      <point x="1000" y="646"/>
      <point x="1123" y="766"/>
    </contour>
    <contour>
      <point x="785" y="965" type="curve" smooth="yes"/>
      <point x="785" y="818"/>
      <point x="708" y="755"/>
      <point x="566" y="755" type="curve" smooth="yes"/>
      <point x="444" y="755" type="line"/>
      <point x="444" y="1156" type="line"/>
      <point x="553" y="1156" type="line" smooth="yes"/>
      <point x="706" y="1156"/>
      <point x="785" y="1098"/>
    </contour>
  </outline>
</glyph>
<glyph name="W" format="2">
  <advance width="1200"/>
  <unicode hex="0057"/>
  <anchor x="600" y="0" name="bottom"/>
  <anchor x="600" y="1386" name="top"/>
  <outline>
    <contour>
      <point x="1206" y="1386" type="line"/>
      <point x="921" y="1386" type="line"/>
      <point x="852" y="280" type="line"/>
      <point x="745" y="1226" type="line"/>
      <point x="463" y="1226" type="line"/>
      <point x="348" y="280" type="line"/>
      <point x="301" y="1386" type="line"/>
      <point x="-6" y="1386" type="line"/>
      <point x="144" y="0" type="line"/>
      <point x="491" y="0" type="line"/>
      <point x="602" y="991" type="line"/>
      <point x="703" y="0" type="line"/>
      <point x="1044" y="0" type="line"/>
    </contour>
  </outline>
</glyph>
<glyph name="backslash" format="2">
  <advance width="1200"/>
  <unicode hex="005C"/>
  <outline>
    <contour>
      <point x="57" y="1521" type="line"/>
      <point x="896" y="-224" type="line"/>
      <point x="1143" y="-111" type="line"/>
      <point x="304" y="1634" type="line"/>
    </contour>
  </outline>
</glyph>
<glyph name="bracketright" format="2">
  <advance width="1200"/>
  <unicode hex="005D"/>
  <outline>
    <contour>
      <point x="888" y="1646" type="line"/>
      <point x="272" y="1646" type="line"/>
      <point x="272" y="1410" type="line"/>
      <point x="590" y="1410" type="line"/>
      <point x="590" y="-10" type="line"/>
      <point x="272" y="-10" type="line"/>
      <point x="272" y="-246" type="line"/>
      <point x="888" y="-246" type="line"/>
    </contour>
  </outline>
</glyph>
<glyph name="b" format="2">
  <advance width="1200"/>
  <unicode hex="0062"/>
  <anchor x="600" y="0" name="bottom"/>
  <anchor x="600" y="1484" name="top"/>
  <outline>
    <contour>
      <point x="456" y="953" type="curve"/>
      <point x="456" y="1517" type="line"/>
      <point x="140" y="1484" type="line"/>
      <point x="140" y="0" type="line"/>
      <point x="420" y="0" type="line"/>
      <point x="432" y="96" type="line"/>
      <point x="494" y="12"/>
      <point x="588" y="-34"/>
      <point x="695" y="-34" type="curve" smooth="yes"/>
      <point x="971" y="-34"/>
      <point x="1120" y="206"/>
      <point x="1120" y="534" type="curve" smooth="yes"/>
      <point x="1120" y="879"/>
      <point x="1001" y="1097"/>
      <point x="728" y="1097" type="curve" smooth="yes"/>
      <point x="620" y="1097"/>
      <point x="522" y="1041"/>
    </contour>
    <contour>
      <point x="612" y="196" type="curve" smooth="yes"/>
      <point x="543" y="196"/>
      <point x="496" y="230"/>
      <point x="456" y="293" type="curve"/>
      <point x="456" y="741" type="line"/>
      <point x="502" y="817"/>
      <point x="557" y="864"/>
      <point x="628" y="864" type="curve" smooth="yes"/>
      <point x="728" y="864"/>
      <point x="794" y="794"/>
      <point x="794" y="530" type="curve" smooth="yes"/>
      <point x="794" y="291"/>
      <point x="724" y="196"/>
    </contour>
  </outline>
</glyph>
<glyph name="g" format="2">
  <advance width="1200"/>
  <unicode hex="0067"/>
  <anchor x="600" y="-443" name="bottom "/>
  <anchor x="602" y="1062" name="top"/>
  <outline>
    <contour>
      <point x="1083" y="1232" type="line"/>
      <point x="955" y="1157"/>
      <point x="821" y="1090"/>
      <point x="584" y="1095" type="curve" smooth="yes"/>
      <point x="307" y="1095"/>
      <point x="109" y="947"/>
      <point x="109" y="708" type="curve" smooth="yes"/>
      <point x="109" y="570"/>
      <point x="163" y="476"/>
      <point x="299" y="404" type="curve"/>
      <point x="223" y="356"/>
      <point x="179" y="281"/>
      <point x="179" y="203" type="curve" smooth="yes"/>
      <point x="179" y="89"/>
      <point x="277" y="-9"/>
      <point x="507" y="-9" type="curve" smooth="yes"/>
      <point x="676" y="-9" type="line" smooth="yes"/>
      <point x="783" y="-9"/>
      <point x="830" y="-51"/>
      <point x="830" y="-114" type="curve" smooth="yes"/>
      <point x="830" y="-183"/>
      <point x="785" y="-235"/>
      <point x="584" y="-235" type="curve" smooth="yes"/>
      <point x="383" y="-235"/>
      <point x="342" y="-195"/>
      <point x="342" y="-102" type="curve"/>
      <point x="62" y="-102" type="line"/>
      <point x="62" y="-312"/>
      <point x="168" y="-443"/>
      <point x="576" y="-443" type="curve" smooth="yes"/>
      <point x="952" y="-443"/>
      <point x="1144" y="-310"/>
      <point x="1144" y="-92" type="curve" smooth="yes"/>
      <point x="1144" y="85"/>
      <point x="986" y="215"/>
      <point x="739" y="215" type="curve" smooth="yes"/>
      <point x="565" y="215" type="line" smooth="yes"/>
      <point x="463" y="215"/>
      <point x="448" y="247"/>
      <point x="448" y="280" type="curve" smooth="yes"/>
      <point x="448" y="304"/>
      <point x="460" y="329"/>
      <point x="483" y="341" type="curve"/>
      <point x="521" y="333"/>
      <point x="561" y="329"/>
      <point x="606" y="329" type="curve" smooth="yes"/>
      <point x="881" y="329"/>
      <point x="1056" y="479"/>
      <point x="1056" y="685" type="curve" smooth="yes"/>
      <point x="1056" y="822"/>
      <point x="984" y="901"/>
      <point x="851" y="958" type="curve"/>
      <point x="984" y="958"/>
      <point x="1082" y="970"/>
      <point x="1157" y="1000" type="curve"/>
    </contour>
    <contour>
      <point x="592" y="890" type="curve" smooth="yes"/>
      <point x="699" y="890"/>
      <point x="754" y="835"/>
      <point x="754" y="716" type="curve" smooth="yes"/>
      <point x="754" y="593"/>
      <point x="697" y="530"/>
      <point x="592" y="530" type="curve" smooth="yes"/>
      <point x="494" y="530"/>
      <point x="429" y="595"/>
      <point x="429" y="712" type="curve" smooth="yes"/>
      <point x="429" y="823"/>
      <point x="492" y="890"/>
    </contour>
  </outline>
</glyph>
<glyph name="k" format="2">
  <advance width="1200"/>
  <unicode hex="006B"/>
  <anchor x="600" y="0" name="bottom"/>
  <anchor x="600" y="1484" name="top"/>
  <outline>
    <contour>
      <point x="1148" y="1062" type="line"/>
      <point x="817" y="1062" type="line"/>
      <point x="468" y="582" type="line"/>
      <point x="817" y="0" type="line"/>
      <point x="1177" y="0" type="line"/>
      <point x="799" y="592" type="line"/>
    </contour>
    <contour>
      <point x="456" y="1517" type="line"/>
      <point x="140" y="1484" type="line"/>
      <point x="140" y="0" type="line"/>
      <point x="456" y="0" type="line"/>
    </contour>
  </outline>
</glyph>
<glyph name="n" format="2">
  <advance width="1200"/>
  <unicode hex="006E"/>
  <anchor x="602" y="0" name="bottom"/>
  <anchor x="602" y="1062" name="top"/>
  <outline>
    <contour>
      <point x="140" y="0" type="line"/>
      <point x="456" y="0" type="line"/>
      <point x="456" y="743" type="line"/>
      <point x="516" y="819"/>
      <point x="575" y="864"/>
      <point x="642" y="864" type="curve" smooth="yes"/>
      <point x="720" y="864"/>
      <point x="744" y="819"/>
      <point x="744" y="689" type="curve" smooth="yes"/>
      <point x="744" y="0" type="line"/>
      <point x="1060" y="0" type="line"/>
      <point x="1060" y="780" type="line" smooth="yes"/>
      <point x="1060" y="981"/>
      <point x="949" y="1097"/>
      <point x="768" y="1097" type="curve" smooth="yes"/>
      <point x="633" y="1097"/>
      <point x="532" y="1045"/>
      <point x="438" y="939" type="curve"/>
      <point x="416" y="1062" type="line"/>
      <point x="140" y="1062" type="line"/>
    </contour>
  </outline>
</glyph>
<glyph name="t" format="2">
  <advance width="1200"/>
  <unicode hex="0074"/>
  <anchor x="721" y="0" name="bottom"/>
  <anchor x="600" y="532" name="center"/>
  <anchor x="496" y="1304" name="top"/>
  <anchor x="709" y="1621" name="topright"/>
  <outline>
    <contour>
      <point x="1096" y="62" type="curve"/>
      <point x="991" y="263" type="line"/>
      <point x="941" y="235"/>
      <point x="879" y="215"/>
      <point x="805" y="215" type="curve" smooth="yes"/>
      <point x="700" y="215"/>
      <point x="654" y="256"/>
      <point x="654" y="362" type="curve" smooth="yes"/>
      <point x="654" y="844" type="line"/>
      <point x="965" y="844" type="line"/>
      <point x="996" y="1062" type="line"/>
      <point x="654" y="1062" type="line"/>
      <point x="654" y="1330" type="line"/>
      <point x="338" y="1292" type="line"/>
      <point x="338" y="1062" type="line"/>
      <point x="115" y="1062" type="line"/>
      <point x="115" y="844" type="line"/>
      <point x="338" y="844" type="line"/>
      <point x="338" y="362" type="line" smooth="yes"/>
      <point x="338" y="118"/>
      <point x="470" y="-34"/>
      <point x="748" y="-34" type="curve" smooth="yes"/>
      <point x="895" y="-34"/>
      <point x="1013" y="8"/>
    </contour>
  </outline>
</glyph>
<glyph name="z" format="2">
  <advance width="1200"/>
  <unicode hex="007A"/>
  <anchor x="600" y="0" name="bottom"/>
  <anchor x="614" y="1062" name="top"/>
  <outline>
    <contour>
      <point x="517" y="239" type="line"/>
      <point x="1039" y="840" type="line"/>
      <point x="1039" y="1062" type="line"/>
      <point x="188" y="1062" type="line"/>
      <point x="188" y="824" type="line"/>
      <point x="671" y="824" type="line"/>
      <point x="144" y="223" type="line"/>
      <point x="144" y="0" type="line"/>
      <point x="1019" y="0" type="line"/>
      <point x="1049" y="239" type="line"/>
    </contour>
  </outline>
</glyph>
<glyph name="braceleft" format="2">
  <advance width="1200"/>
  <unicode hex="007B"/>
  <outline>
    <contour>
      <point x="933" y="1680" type="line"/>
      <point x="565" y="1680"/>
      <point x="425" y="1583"/>
      <point x="455" y="1309" type="curve" smooth="yes"/>
      <point x="485" y="1025" type="line" smooth="yes"/>
      <point x="501" y="873"/>
      <point x="379" y="828"/>
      <point x="211" y="828" type="curve"/>
      <point x="211" y="572" type="line"/>
      <point x="381" y="572"/>
      <point x="501" y="527"/>
      <point x="485" y="375" type="curve" smooth="yes"/>
      <point x="455" y="89" type="line" smooth="yes"/>
      <point x="427" y="-181"/>
      <point x="565" y="-280"/>
      <point x="933" y="-280" type="curve"/>
      <point x="933" y="-60" type="line"/>
      <point x="812" y="-60"/>
      <point x="737" y="-34"/>
      <point x="747" y="67" type="curve" smooth="yes"/>
      <point x="778" y="362" type="line" smooth="yes"/>
      <point x="802" y="589"/>
      <point x="681" y="668"/>
      <point x="467" y="700" type="curve"/>
      <point x="669" y="730"/>
      <point x="802" y="814"/>
      <point x="778" y="1038" type="curve" smooth="yes"/>
      <point x="747" y="1333" type="line" smooth="yes"/>
      <point x="737" y="1434"/>
      <point x="811" y="1460"/>
      <point x="933" y="1460" type="curve"/>
    </contour>
  </outline>
</glyph>
<glyph name="brokenbar" format="2">
  <advance width="1200"/>
  <unicode hex="00A6"/>
  <outline>
    <contour>
      <point x="746" y="1620" type="line"/>
      <point x="452" y="1620" type="line"/>
      <point x="452" y="892" type="line"/>
      <point x="746" y="892" type="line"/>
    </contour>
    <contour>
      <point x="746" y="518" type="line"/>
      <point x="452" y="518" type="line"/>
      <point x="452" y="-210" type="line"/>
      <point x="746" y="-210" type="line"/>
    </contour>
  </outline>
</glyph>
<glyph name="ordfeminine" format="2">
  <advance width="1200"/>
  <unicode hex="00AA"/>
  <outline>
    <contour>
      <point x="582" y="1517" type="curve" smooth="yes"/>
      <point x="490" y="1517"/>
      <point x="365" y="1498"/>
      <point x="243" y="1456" type="curve"/>
      <point x="308" y="1275" type="line"/>
      <point x="402" y="1307"/>
      <point x="492" y="1321"/>
      <point x="542" y="1321" type="curve" smooth="yes"/>
      <point x="661" y="1321"/>
      <point x="707" y="1299"/>
      <point x="707" y="1204" type="curve" smooth="yes"/>
      <point x="707" y="1179" type="line"/>
      <point x="601" y="1179" type="line" smooth="yes"/>
      <point x="323" y="1179"/>
      <point x="167" y="1068"/>
      <point x="167" y="886" type="curve" smooth="yes"/>
      <point x="167" y="722"/>
      <point x="289" y="608"/>
      <point x="473" y="608" type="curve" smooth="yes"/>
      <point x="579" y="608"/>
      <point x="675" y="650"/>
      <point x="741" y="728" type="curve"/>
      <point x="781" y="656"/>
      <point x="848" y="624"/>
      <point x="963" y="612" type="curve"/>
      <point x="1025" y="788" type="line"/>
      <point x="983" y="802"/>
      <point x="965" y="826"/>
      <point x="965" y="884" type="curve" smooth="yes"/>
      <point x="965" y="1212" type="line" smooth="yes"/>
      <point x="965" y="1410"/>
      <point x="859" y="1517"/>
    </contour>
    <contour>
      <point x="1027" y="216" type="line"/>
      <point x="200" y="216" type="line"/>
      <point x="200" y="0" type="line"/>
      <point x="1027" y="0" type="line"/>
    </contour>
    <contour>
      <point x="707" y="1015" type="line"/>
      <point x="707" y="889" type="line"/>
      <point x="669" y="831"/>
      <point x="610" y="794"/>
      <point x="552" y="794" type="curve" smooth="yes"/>
      <point x="487" y="794"/>
      <point x="452" y="829"/>
      <point x="452" y="896" type="curve" smooth="yes"/>
      <point x="452" y="976"/>
      <point x="505" y="1015"/>
      <point x="644" y="1015" type="curve" smooth="yes"/>
    </contour>
  </outline>
</glyph>
<glyph name="guillemetleft" format="2">
  <advance width="1200"/>
  <unicode hex="00AB"/>
  <outline>
    <contour>
      <point x="626" y="149" type="line"/>
      <point x="395" y="574" type="line"/>
      <point x="626" y="998" type="line"/>
      <point x="444" y="1113" type="line"/>
      <point x="104" y="673" type="line"/>
      <point x="104" y="473" type="line"/>
      <point x="444" y="34" type="line"/>
    </contour>
    <contour>
      <point x="1096" y="149" type="line"/>
      <point x="865" y="574" type="line"/>
      <point x="1096" y="998" type="line"/>
      <point x="914" y="1113" type="line"/>
      <point x="572" y="673" type="line"/>
      <point x="572" y="473" type="line"/>
      <point x="914" y="34" type="line"/>
    </contour>
  </outline>
</glyph>
<glyph name="acute" format="2">
  <advance width="1200"/>
  <unicode hex="00B4"/>
  <anchor x="600" y="1062" name="_top"/>
  <outline>
    <contour>
      <point x="752" y="1670" type="line"/>
      <point x="316" y="1405" type="line"/>
      <point x="403" y="1245" type="line"/>
      <point x="875" y="1432" type="line"/>
    </contour>
  </outline>
</glyph>
<glyph name="ordmasculine" format="2">
  <advance width="1200"/>
  <unicode hex="00BA"/>
  <outline>
    <contour>
      <point x="600" y="1517" type="curve" smooth="yes"/>
      <point x="325" y="1517"/>
      <point x="157" y="1322"/>
      <point x="157" y="1064" type="curve" smooth="yes"/>
      <point x="157" y="792"/>
      <point x="323" y="608"/>
      <point x="600" y="608" type="curve" smooth="yes"/>
      <point x="875" y="608"/>
      <point x="1043" y="794"/>
      <point x="1043" y="1064" type="curve" smooth="yes"/>
      <point x="1043" y="1324"/>
      <point x="875" y="1517"/>
    </contour>
    <contour>
      <point x="1013" y="216" type="line"/>
      <point x="187" y="216" type="line"/>
      <point x="187" y="0" type="line"/>
      <point x="1013" y="0" type="line"/>
    </contour>
    <contour>
      <point x="600" y="1321" type="curve" smooth="yes"/>
      <point x="703" y="1321"/>
      <point x="766" y="1249"/>
      <point x="766" y="1064" type="curve" smooth="yes"/>
      <point x="766" y="877"/>
      <point x="703" y="806"/>
      <point x="600" y="806" type="curve" smooth="yes"/>
      <point x="497" y="806"/>
      <point x="434" y="877"/>
      <point x="434" y="1064" type="curve" smooth="yes"/>
      <point x="434" y="1249"/>
      <point x="497" y="1321"/>
    </contour>
  </outline>
</glyph>
<glyph name="guillemetright" format="2">
  <advance width="1200"/>
  <unicode hex="00BB"/>
  <outline>
    <contour>
      <point x="803" y="574" type="line"/>
      <point x="572" y="149" type="line"/>
      <point x="754" y="34" type="line"/>
      <point x="1096" y="473" type="line"/>
      <point x="1096" y="673" type="line"/>
      <point x="754" y="1113" type="line"/>
      <point x="572" y="998" type="line"/>
    </contour>
    <contour>
      <point x="335" y="574" type="line"/>
      <point x="104" y="149" type="line"/>
      <point x="285" y="34" type="line"/>
      <point x="626" y="473" type="line"/>
      <point x="626" y="673" type="line"/>
      <point x="285" y="1113" type="line"/>
      <point x="104" y="998" type="line"/>
    </contour>
  </outline>
</glyph>
<glyph name="Oslash" format="2">
  <advance width="1200"/>
  <unicode hex="00D8"/>
  <anchor x="600" y="0" name="bottom"/>
  <anchor x="600" y="1386" name="top"/>
  <outline>
    <contour>
      <point x="600" y="1421" type="curve" smooth="yes"/>
      <point x="237" y="1421"/>
      <point x="45" y="1133"/>
      <point x="45" y="694" type="curve" smooth="yes"/>
      <point x="45" y="244"/>
      <point x="256" y="-34"/>
      <point x="600" y="-34" type="curve" smooth="yes"/>
      <point x="963" y="-34"/>
      <point x="1155" y="254"/>
      <point x="1155" y="694" type="curve" smooth="yes"/>
      <point x="1155" y="1143"/>
      <point x="944" y="1421"/>
    </contour>
    <contour>
      <point x="761" y="1606" type="line"/>
      <point x="695" y="1386" type="line"/>
      <point x="681" y="1235" type="line"/>
      <point x="413" y="324" type="line"/>
      <point x="303" y="125" type="line"/>
      <point x="217" y="-153" type="line"/>
      <point x="439" y="-218" type="line"/>
      <point x="505" y="8" type="line"/>
      <point x="539" y="203" type="line"/>
      <point x="797" y="1088" type="line"/>
      <point x="907" y="1300" type="line"/>
      <point x="983" y="1541" type="line"/>
    </contour>
    <contour>
      <point x="600" y="1188" type="curve" smooth="yes"/>
      <point x="768" y="1188"/>
      <point x="831" y="1042"/>
      <point x="831" y="694" type="curve" smooth="yes"/>
      <point x="831" y="351"/>
      <point x="768" y="200"/>
      <point x="600" y="200" type="curve" smooth="yes"/>
      <point x="434" y="200"/>
      <point x="369" y="346"/>
      <point x="369" y="694" type="curve" smooth="yes"/>
      <point x="369" y="1040"/>
      <point x="436" y="1188"/>
    </contour>
  </outline>
</glyph>
<glyph name="ae" format="2">
  <advance width="1200"/>
  <unicode hex="00E6"/>
  <anchor x="604" y="1062" name="top"/>
  <outline>
    <contour>
      <point x="856" y="1097" type="curve" smooth="yes"/>
      <point x="736" y="1097"/>
      <point x="652" y="1041"/>
      <point x="604" y="956" type="curve"/>
      <point x="555" y="1041"/>
      <point x="475" y="1097"/>
      <point x="328" y="1097" type="curve" smooth="yes"/>
      <point x="223" y="1097"/>
      <point x="142" y="1071"/>
      <point x="39" y="1026" type="curve"/>
      <point x="110" y="853" type="line"/>
      <point x="190" y="891"/>
      <point x="233" y="903"/>
      <point x="297" y="903" type="curve" smooth="yes"/>
      <point x="411" y="903"/>
      <point x="475" y="837"/>
      <point x="475" y="701" type="curve" smooth="yes"/>
      <point x="475" y="654" type="line"/>
      <point x="393" y="654" type="line" smooth="yes"/>
      <point x="118" y="654"/>
      <point x="-12" y="530"/>
      <point x="-12" y="304" type="curve" smooth="yes"/>
      <point x="-12" y="106"/>
      <point x="100" y="-34"/>
      <point x="286" y="-34" type="curve" smooth="yes"/>
      <point x="422" y="-34"/>
      <point x="492" y="20"/>
      <point x="569" y="135" type="curve"/>
      <point x="637" y="28"/>
      <point x="740" y="-34"/>
      <point x="888" y="-34" type="curve" smooth="yes"/>
      <point x="1022" y="-34"/>
      <point x="1121" y="14"/>
      <point x="1199" y="80" type="curve"/>
      <point x="1080" y="239" type="line"/>
      <point x="1022" y="197"/>
      <point x="970" y="174"/>
      <point x="906" y="174" type="curve" smooth="yes"/>
      <point x="793" y="174"/>
      <point x="731" y="263"/>
      <point x="713" y="452" type="curve"/>
      <point x="1194" y="452" type="line"/>
      <point x="1198" y="484"/>
      <point x="1200" y="516"/>
      <point x="1200" y="552" type="curve" smooth="yes"/>
      <point x="1200" y="903"/>
      <point x="1106" y="1097"/>
    </contour>
    <contour>
      <point x="475" y="483" type="line"/>
      <point x="475" y="423"/>
      <point x="477" y="356"/>
      <point x="483" y="296" type="curve"/>
      <point x="443" y="215"/>
      <point x="400" y="172"/>
      <point x="343" y="172" type="curve" smooth="yes"/>
      <point x="284" y="172"/>
      <point x="252" y="227"/>
      <point x="252" y="318" type="curve" smooth="yes"/>
      <point x="252" y="422"/>
      <point x="300" y="483"/>
      <point x="432" y="483" type="curve" smooth="yes"/>
    </contour>
    <contour>
      <point x="845" y="899" type="curve" smooth="yes"/>
      <point x="938" y="899"/>
      <point x="960" y="812"/>
      <point x="962" y="623" type="curve"/>
      <point x="713" y="623" type="line"/>
      <point x="721" y="832"/>
      <point x="762" y="899"/>
    </contour>
  </outline>
</glyph>
<glyph name="oslash" format="2">
  <advance width="1200"/>
  <unicode hex="00F8"/>
  <anchor x="600" y="1062" name="top"/>
  <outline>
    <contour>
      <point x="600" y="1097" type="curve" smooth="yes"/>
      <point x="275" y="1097"/>
      <point x="84" y="869"/>
      <point x="84" y="532" type="curve" smooth="yes"/>
      <point x="84" y="175"/>
      <point x="275" y="-34"/>
      <point x="600" y="-34" type="curve" smooth="yes"/>
      <point x="925" y="-34"/>
      <point x="1116" y="179"/>
      <point x="1116" y="534" type="curve" smooth="yes"/>
      <point x="1116" y="874"/>
      <point x="927" y="1097"/>
    </contour>
    <contour>
      <point x="739" y="1326" type="line"/>
      <point x="657" y="1077" type="line"/>
      <point x="643" y="904" type="line"/>
      <point x="432" y="244" type="line"/>
      <point x="322" y="66" type="line"/>
      <point x="231" y="-206" type="line"/>
      <point x="463" y="-274" type="line"/>
      <point x="543" y="-14" type="line"/>
      <point x="561" y="157" type="line"/>
      <point x="768" y="805" type="line"/>
      <point x="883" y="998" type="line"/>
      <point x="969" y="1258" type="line"/>
    </contour>
    <contour>
      <point x="600" y="870" type="curve" smooth="yes"/>
      <point x="755" y="870"/>
      <point x="796" y="789"/>
      <point x="796" y="534" type="curve" smooth="yes"/>
      <point x="796" y="291"/>
      <point x="735" y="192"/>
      <point x="600" y="192" type="curve" smooth="yes"/>
      <point x="445" y="192"/>
      <point x="404" y="271"/>
      <point x="404" y="532" type="curve" smooth="yes"/>
      <point x="404" y="769"/>
      <point x="465" y="870"/>
    </contour>
  </outline>
</glyph>
<glyph name="hbar" format="2">
  <advance width="1200"/>
  <unicode hex="0127"/>
  <anchor x="600" y="0" name="bottom"/>
  <anchor x="600" y="532" name="center"/>
  <anchor x="600" y="1484" name="top"/>
  <outline>
    <contour>
      <point x="737" y="1371" type="line"/>
      <point x="140" y="1371" type="line"/>
      <point x="17" y="1371" type="line"/>
      <point x="17" y="1186" type="line"/>
      <point x="456" y="1186" type="line"/>
      <point x="737" y="1186" type="line"/>
    </contour>
    <component base="h"/>
  </outline>
</glyph>
<glyph name="ij" format="2">
  <advance width="1200"/>
  <unicode hex="0133"/>
  <outline>
    <contour>
      <point x="1090" y="1062" type="line"/>
      <point x="81" y="1062" type="line"/>
      <point x="81" y="848" type="line"/>
      <point x="208" y="848" type="line"/>
      <point x="208" y="216" type="line"/>
      <point x="71" y="216" type="line"/>
      <point x="71" y="0" type="line"/>
      <point x="624" y="0" type="line"/>
      <point x="624" y="216" type="line"/>
      <point x="520" y="216" type="line"/>
      <point x="520" y="848" type="line"/>
      <point x="776" y="848" type="line"/>
      <point x="776" y="217" type="line" smooth="yes"/>
      <point x="776" y="-48"/>
      <point x="646" y="-130"/>
      <point x="385" y="-210" type="curve"/>
      <point x="490" y="-443" type="line"/>
      <point x="871" y="-328"/>
      <point x="1090" y="-172"/>
      <point x="1090" y="244" type="curve" smooth="yes"/>
    </contour>
    <contour>
      <point x="364" y="1618" type="curve" smooth="yes"/>
      <point x="255" y="1618"/>
      <point x="178" y="1541"/>
      <point x="178" y="1440" type="curve" smooth="yes"/>
      <point x="178" y="1339"/>
      <point x="255" y="1261"/>
      <point x="364" y="1261" type="curve" smooth="yes"/>
      <point x="475" y="1261"/>
      <point x="554" y="1339"/>
      <point x="554" y="1440" type="curve" smooth="yes"/>
      <point x="554" y="1541"/>
      <point x="475" y="1618"/>
    </contour>
    <contour>
      <point x="912" y="1618" type="curve" smooth="yes"/>
      <point x="803" y="1618"/>
      <point x="723" y="1541"/>
      <point x="723" y="1440" type="curve" smooth="yes"/>
      <point x="723" y="1339"/>
      <point x="803" y="1261"/>
      <point x="912" y="1261" type="curve" smooth="yes"/>
      <point x="1021" y="1261"/>
      <point x="1100" y="1339"/>
      <point x="1100" y="1440" type="curve" smooth="yes"/>
      <point x="1100" y="1541"/>
      <point x="1021" y="1618"/>
    </contour>
  </outline>
</glyph>
<glyph name="OE" format="2">
  <advance width="1200"/>
  <unicode hex="0152"/>
  <anchor x="600" y="0" name="bottom"/>
  <anchor x="600" y="1386" name="top"/>
  <outline>
    <contour>
      <point x="449" y="1421" type="curve" smooth="yes"/>
      <point x="144" y="1421"/>
      <point x="19" y="1148"/>
      <point x="19" y="694" type="curve" smooth="yes"/>
      <point x="19" y="230"/>
      <point x="144" y="-34"/>
      <point x="449" y="-34" type="curve" smooth="yes"/>
      <point x="523" y="-34"/>
      <point x="574" y="-18"/>
      <point x="632" y="0" type="curve"/>
      <point x="1193" y="0" type="line"/>
      <point x="1193" y="222" type="line"/>
      <point x="786" y="222" type="line"/>
      <point x="835" y="312"/>
      <point x="867" y="435"/>
      <point x="875" y="591" type="curve"/>
      <point x="1117" y="591" type="line"/>
      <point x="1117" y="813" type="line"/>
      <point x="873" y="813" type="line"/>
      <point x="865" y="963"/>
      <point x="838" y="1080"/>
      <point x="796" y="1164" type="curve"/>
      <point x="1159" y="1164" type="line"/>
      <point x="1193" y="1386" type="line"/>
      <point x="640" y="1386" type="line"/>
      <point x="574" y="1408"/>
      <point x="523" y="1421"/>
    </contour>
    <contour>
      <point x="451" y="1198" type="curve" smooth="yes"/>
      <point x="573" y="1198"/>
      <point x="608" y="1069"/>
      <point x="608" y="694" type="curve" smooth="yes"/>
      <point x="608" y="329"/>
      <point x="567" y="188"/>
      <point x="451" y="188" type="curve" smooth="yes"/>
      <point x="340" y="188"/>
      <point x="299" y="329"/>
      <point x="299" y="694" type="curve" smooth="yes"/>
      <point x="299" y="1059"/>
      <point x="332" y="1198"/>
    </contour>
  </outline>
</glyph>
<glyph name="florin" format="2">
  <advance width="1200"/>
  <unicode hex="0192"/>
  <outline>
    <contour>
      <point x="756" y="1517" type="curve" smooth="yes"/>
      <point x="483" y="1517"/>
      <point x="350" y="1358"/>
      <point x="350" y="1155" type="curve" smooth="yes"/>
      <point x="350" y="1062" type="line"/>
      <point x="186" y="1062" type="line"/>
      <point x="186" y="842" type="line"/>
      <point x="350" y="842" type="line"/>
      <point x="350" y="101" type="line" smooth="yes"/>
      <point x="350" y="-92"/>
      <point x="268" y="-150"/>
      <point x="132" y="-214" type="curve"/>
      <point x="243" y="-443" type="line"/>
      <point x="490" y="-353"/>
      <point x="664" y="-226"/>
      <point x="664" y="127" type="curve" smooth="yes"/>
      <point x="664" y="842" type="line"/>
      <point x="880" y="842" type="line"/>
      <point x="916" y="1062" type="line"/>
      <point x="664" y="1062" type="line"/>
      <point x="664" y="1144" type="line" smooth="yes"/>
      <point x="664" y="1246"/>
      <point x="696" y="1284"/>
      <point x="804" y="1284" type="curve" smooth="yes"/>
      <point x="856" y="1284"/>
      <point x="911" y="1274"/>
      <point x="979" y="1244" type="curve"/>
      <point x="1066" y="1450" type="line"/>
      <point x="980" y="1490"/>
      <point x="877" y="1517"/>
    </contour>
  </outline>
</glyph>
<glyph name="ring" format="2">
  <advance width="1200"/>
  <unicode hex="02DA"/>
  <anchor x="600" y="1062" name="_top"/>
  <outline>
    <contour>
      <point x="598" y="1730" type="curve" smooth="yes"/>
      <point x="427" y="1730"/>
      <point x="322" y="1609"/>
      <point x="322" y="1467" type="curve" smooth="yes"/>
      <point x="322" y="1326"/>
      <point x="427" y="1203"/>
      <point x="598" y="1203" type="curve" smooth="yes"/>
      <point x="771" y="1203"/>
      <point x="877" y="1326"/>
      <point x="877" y="1467" type="curve" smooth="yes"/>
      <point x="877" y="1609"/>
      <point x="771" y="1730"/>
    </contour>
    <contour>
      <point x="598" y="1566" type="curve" smooth="yes"/>
      <point x="652" y="1566"/>
      <point x="689" y="1533"/>
      <point x="689" y="1467" type="curve" smooth="yes"/>
      <point x="689" y="1399"/>
      <point x="652" y="1367"/>
      <point x="598" y="1367" type="curve" smooth="yes"/>
      <point x="546" y="1367"/>
      <point x="510" y="1399"/>
      <point x="510" y="1467" type="curve" smooth="yes"/>
      <point x="510" y="1533"/>
      <point x="546" y="1566"/>
    </contour>
  </outline>
</glyph>
<glyph name="gravecomb" format="2">
  <unicode hex="0300"/>
  <anchor x="600" y="1062" name="_top"/>
  <outline>
    <contour>
      <point x="448" y="1670" type="line"/>
      <point x="325" y="1432" type="line"/>
      <point x="798" y="1245" type="line"/>
      <point x="885" y="1405" type="line"/>
    </contour>
  </outline>
</glyph>
<glyph name="strokelongoverlay" format="2">
  <advance width="1200"/>
  <unicode hex="0336"/>
  <outline>
    <contour>
      <point x="1268" y="564" type="line"/>
      <point x="1268" y="750" type="line"/>
      <point x="-68" y="750" type="line"/>
      <point x="-68" y="564" type="line"/>
    </contour>
  </outline>
</glyph>
<glyph name="dieresistonos" format="2">
  <advance width="1200"/>
  <unicode hex="0385"/>
  <anchor x="600" y="1062" name="_top"/>
  <outline>
    <contour>
      <point x="563" y="1908" type="line"/>
      <point x="505" y="1507" type="line"/>
      <point x="679" y="1479" type="line"/>
      <point x="823" y="1860" type="line"/>
    </contour>
    <contour>
      <point x="338" y="1519" type="curve" smooth="yes"/>
      <point x="244" y="1519"/>
      <point x="175" y="1449"/>
      <point x="175" y="1360" type="curve" smooth="yes"/>
      <point x="175" y="1273"/>
      <point x="244" y="1201"/>
      <point x="338" y="1201" type="curve" smooth="yes"/>
      <point x="427" y="1201"/>
      <point x="498" y="1273"/>
      <point x="498" y="1360" type="curve" smooth="yes"/>
      <point x="498" y="1449"/>
      <point x="427" y="1519"/>
    </contour>
    <contour>
      <point x="862" y="1519" type="curve" smooth="yes"/>
      <point x="771" y="1519"/>
      <point x="702" y="1449"/>
      <point x="702" y="1360" type="curve" smooth="yes"/>
      <point x="702" y="1273"/>
      <point x="771" y="1201"/>
      <point x="862" y="1201" type="curve" smooth="yes"/>
      <point x="954" y="1201"/>
      <point x="1025" y="1273"/>
      <point x="1025" y="1360" type="curve" smooth="yes"/>
      <point x="1025" y="1449"/>
      <point x="954" y="1519"/>
    </contour>
  </outline>
</glyph>
<glyph name="Theta" format="2">
  <advance width="1200"/>
  <unicode hex="0398"/>
  <anchor x="600" y="0" name="bottom"/>
  <anchor x="600" y="1386" name="top"/>
  <outline>
    <contour>
      <point x="749" y="614" type="line"/>
      <point x="749" y="795" type="line"/>
      <point x="449" y="795" type="line"/>
      <point x="449" y="614" type="line"/>
    </contour>
    <contour>
      <point x="1155" y="694" type="curve" smooth="yes"/>
      <point x="1155" y="1143"/>
      <point x="963" y="1421"/>
      <point x="600" y="1421" type="curve" smooth="yes"/>
      <point x="237" y="1421"/>
      <point x="45" y="1133"/>
      <point x="45" y="694" type="curve" smooth="yes"/>
      <point x="45" y="244"/>
      <point x="237" y="-34"/>
      <point x="600" y="-34" type="curve" smooth="yes"/>
      <point x="963" y="-34"/>
      <point x="1155" y="254"/>
    </contour>
    <contour>
      <point x="831" y="694" type="curve" smooth="yes"/>
      <point x="831" y="349"/>
      <point x="760" y="206"/>
      <point x="600" y="206" type="curve" smooth="yes"/>
      <point x="446" y="206"/>
      <point x="369" y="347"/>
      <point x="369" y="694" type="curve" smooth="yes"/>
      <point x="369" y="1042"/>
      <point x="444" y="1182"/>
      <point x="600" y="1182" type="curve" smooth="yes"/>
      <point x="756" y="1182"/>
      <point x="831" y="1040"/>
    </contour>
  </outline>
</glyph>
<glyph name="Sigma" format="2">
  <advance width="1200"/>
  <unicode hex="03A3"/>
  <anchor x="600" y="0" name="bottom"/>
  <anchor x="600" y="1386" name="top"/>
  <outline>
    <contour>
      <point x="845" y="622" type="line"/>
      <point x="845" y="752" type="line"/>
      <point x="473" y="1148" type="line"/>
      <point x="1091" y="1148" type="line"/>
      <point x="1091" y="1386" type="line"/>
      <point x="109" y="1386" type="line"/>
      <point x="109" y="1148" type="line"/>
      <point x="533" y="682" type="line"/>
      <point x="109" y="238" type="line"/>
      <point x="109" y="0" type="line"/>
      <point x="1091" y="0" type="line"/>
      <point x="1091" y="243" type="line"/>
      <point x="469" y="243" type="line"/>
    </contour>
  </outline>
</glyph>
<glyph name="Psi" format="2">
  <advance width="1200"/>
  <unicode hex="03A8"/>
  <anchor x="600" y="0" name="bottom"/>
  <anchor x="600" y="1386" name="top"/>
  <outline>
    <contour>
      <point x="456" y="0" type="line"/>
      <point x="745" y="0" type="line"/>
      <point x="745" y="368" type="line"/>
      <point x="1041" y="412"/>
      <point x="1178" y="586"/>
      <point x="1178" y="846" type="curve" smooth="yes"/>
      <point x="1178" y="1386" type="line"/>
      <point x="901" y="1386" type="line"/>
      <point x="901" y="839" type="line" smooth="yes"/>
      <point x="901" y="684"/>
      <point x="867" y="609"/>
      <point x="725" y="579" type="curve"/>
      <point x="725" y="1386" type="line"/>
      <point x="477" y="1386" type="line"/>
      <point x="477" y="577" type="line"/>
      <point x="329" y="605"/>
      <point x="299" y="682"/>
      <point x="299" y="839" type="curve" smooth="yes"/>
      <point x="299" y="1386" type="line"/>
      <point x="22" y="1386" type="line"/>
      <point x="22" y="846" type="line" smooth="yes"/>
      <point x="22" y="579"/>
      <point x="157" y="408"/>
      <point x="456" y="366" type="curve"/>
    </contour>
  </outline>
</glyph>
<glyph name="kappa" format="2">
  <advance width="1200"/>
  <unicode hex="03BA"/>
  <anchor x="600" y="0" name="bottom"/>
  <anchor x="600" y="1062" name="top"/>
  <outline>
    <contour>
      <point x="861" y="1094" type="line"/>
      <point x="472" y="556" type="line"/>
      <point x="740" y="187" type="line" smooth="yes"/>
      <point x="839" y="34"/>
      <point x="913" y="-22"/>
      <point x="1058" y="-36" type="curve"/>
      <point x="1165" y="213" type="line"/>
      <point x="1108" y="226"/>
      <point x="1066" y="246"/>
      <point x="1015" y="309" type="curve" smooth="yes"/>
      <point x="795" y="574" type="line"/>
      <point x="1120" y="978" type="line"/>
    </contour>
    <contour>
      <point x="408" y="1062" type="curve"/>
      <point x="104" y="1062" type="line"/>
      <point x="138" y="938"/>
      <point x="148" y="814"/>
      <point x="148" y="696" type="curve" smooth="yes"/>
      <point x="148" y="0" type="line"/>
      <point x="464" y="0" type="line"/>
      <point x="464" y="673" type="line" smooth="yes"/>
      <point x="464" y="830"/>
      <point x="437" y="975"/>
    </contour>
  </outline>
</glyph>
<glyph name="rho" format="2">
  <advance width="1200"/>
  <unicode hex="03C1"/>
  <anchor x="600" y="-443" name="bottom"/>
  <anchor x="622" y="1062" name="top"/>
  <outline>
    <contour>
      <point x="622" y="1097" type="curve" smooth="yes"/>
      <point x="293" y="1097"/>
      <point x="135" y="900"/>
      <point x="135" y="550" type="curve" smooth="yes"/>
      <point x="135" y="-443" type="line"/>
      <point x="451" y="-410" type="line"/>
      <point x="451" y="79" type="line"/>
      <point x="516" y="2"/>
      <point x="604" y="-34"/>
      <point x="704" y="-34" type="curve" smooth="yes"/>
      <point x="965" y="-34"/>
      <point x="1116" y="214"/>
      <point x="1116" y="534" type="curve" smooth="yes"/>
      <point x="1116" y="903"/>
      <point x="949" y="1097"/>
    </contour>
    <contour>
      <point x="618" y="866" type="curve" smooth="yes"/>
      <point x="728" y="866"/>
      <point x="790" y="790"/>
      <point x="790" y="530" type="curve" smooth="yes"/>
      <point x="790" y="297"/>
      <point x="725" y="198"/>
      <point x="608" y="198" type="curve" smooth="yes"/>
      <point x="545" y="198"/>
      <point x="494" y="228"/>
      <point x="451" y="293" type="curve"/>
      <point x="451" y="496" type="line" smooth="yes"/>
      <point x="451" y="761"/>
      <point x="494" y="866"/>
    </contour>
  </outline>
</glyph>
<glyph name="upsilon" format="2">
  <advance width="1200"/>
  <unicode hex="03C5"/>
  <anchor x="600" y="0" name="bottom"/>
  <anchor x="600" y="1062" name="top"/>
  <outline>
    <contour>
      <point x="1045" y="1062" type="curve"/>
      <point x="733" y="1062" type="line"/>
      <point x="765" y="895"/>
      <point x="787" y="705"/>
      <point x="787" y="530" type="curve" smooth="yes"/>
      <point x="787" y="292"/>
      <point x="703" y="198"/>
      <point x="586" y="198" type="curve" smooth="yes"/>
      <point x="495" y="198"/>
      <point x="446" y="248"/>
      <point x="446" y="379" type="curve" smooth="yes"/>
      <point x="446" y="1062" type="line"/>
      <point x="130" y="1062" type="line"/>
      <point x="130" y="359" type="line" smooth="yes"/>
      <point x="130" y="98"/>
      <point x="309" y="-34"/>
      <point x="564" y="-34" type="curve" smooth="yes"/>
      <point x="851" y="-34"/>
      <point x="1103" y="134"/>
      <point x="1103" y="512" type="curve" smooth="yes"/>
      <point x="1103" y="726"/>
      <point x="1077" y="903"/>
    </contour>
  </outline>
</glyph>
<glyph name="thetaSymbol" format="2">
  <advance width="1200"/>
  <unicode hex="03D1"/>
  <anchor x="600" y="0" name="bottom"/>
  <anchor x="600" y="1484" name="top"/>
  <outline>
    <contour>
      <point x="532" y="-34" type="curve" smooth="yes"/>
      <point x="901" y="-34"/>
      <point x="1035" y="245"/>
      <point x="1035" y="806" type="curve" smooth="yes"/>
      <point x="1035" y="1243"/>
      <point x="870" y="1517"/>
      <point x="530" y="1517" type="curve" smooth="yes"/>
      <point x="291" y="1517"/>
      <point x="125" y="1346"/>
      <point x="125" y="1144" type="curve" smooth="yes"/>
      <point x="125" y="940"/>
      <point x="267" y="800"/>
      <point x="561" y="802" type="curve" smooth="yes"/>
      <point x="1103" y="804" type="line"/>
      <point x="1103" y="1016" type="line"/>
      <point x="561" y="1014" type="line" smooth="yes"/>
      <point x="467" y="1014"/>
      <point x="406" y="1062"/>
      <point x="406" y="1152" type="curve" smooth="yes"/>
      <point x="406" y="1233"/>
      <point x="453" y="1290"/>
      <point x="530" y="1290" type="curve" smooth="yes"/>
      <point x="642" y="1290"/>
      <point x="713" y="1180"/>
      <point x="713" y="800" type="curve" smooth="yes"/>
      <point x="713" y="333"/>
      <point x="660" y="194"/>
      <point x="548" y="194" type="curve" smooth="yes"/>
      <point x="494" y="194"/>
      <point x="456" y="237"/>
      <point x="456" y="342" type="curve" smooth="yes"/>
      <point x="456" y="706" type="line"/>
      <point x="153" y="706" type="line"/>
      <point x="153" y="361" type="line" smooth="yes"/>
      <point x="153" y="84"/>
      <point x="325" y="-34"/>
    </contour>
  </outline>
</glyph>
<glyph name="Stigma" format="2">
  <advance width="1200"/>
  <unicode hex="03DA"/>
  <anchor x="600" y="1386" name="top"/>
  <outline>
    <contour>
      <point x="745" y="-446" type="line"/>
      <point x="990" y="-342"/>
      <point x="1100" y="-228"/>
      <point x="1100" y="-71" type="curve" smooth="yes"/>
      <point x="1100" y="103"/>
      <point x="969" y="177"/>
      <point x="746" y="269" type="curve" smooth="yes"/>
      <point x="477" y="381"/>
      <point x="422" y="468"/>
      <point x="422" y="699" type="curve" smooth="yes"/>
      <point x="422" y="950"/>
      <point x="542" y="1125"/>
      <point x="847" y="1125" type="curve" smooth="yes"/>
      <point x="1134" y="1125" type="line"/>
      <point x="1170" y="1386" type="line"/>
      <point x="808" y="1386" type="line" smooth="yes"/>
      <point x="341" y="1386"/>
      <point x="86" y="1089"/>
      <point x="86" y="689" type="curve" smooth="yes"/>
      <point x="86" y="318"/>
      <point x="266" y="170"/>
      <point x="523" y="63" type="curve" smooth="yes"/>
      <point x="718" y="-17"/>
      <point x="784" y="-49"/>
      <point x="784" y="-104" type="curve" smooth="yes"/>
      <point x="784" y="-165"/>
      <point x="719" y="-206"/>
      <point x="629" y="-257" type="curve"/>
    </contour>
  </outline>
</glyph>
<glyph name="stigma" format="2">
  <advance width="1200"/>
  <unicode hex="03DB"/>
  <anchor x="600" y="-443" name="bottom"/>
  <anchor x="600" y="1062" name="top"/>
  <outline>
    <contour>
      <point x="803" y="1172" type="line"/>
      <point x="803" y="1077"/>
      <point x="779" y="1062"/>
      <point x="489" y="969" type="curve" smooth="yes"/>
      <point x="259" y="896"/>
      <point x="115" y="787"/>
      <point x="115" y="506" type="curve" smooth="yes"/>
      <point x="115" y="235"/>
      <point x="243" y="136"/>
      <point x="480" y="50" type="curve" smooth="yes"/>
      <point x="656" y="-14"/>
      <point x="719" y="-43"/>
      <point x="719" y="-97" type="curve" smooth="yes"/>
      <point x="719" y="-165"/>
      <point x="660" y="-205"/>
      <point x="563" y="-257" type="curve"/>
      <point x="682" y="-446" type="line"/>
      <point x="925" y="-342"/>
      <point x="1045" y="-232"/>
      <point x="1045" y="-71" type="curve" smooth="yes"/>
      <point x="1045" y="91"/>
      <point x="936" y="159"/>
      <point x="728" y="231" type="curve" smooth="yes"/>
      <point x="503" y="309"/>
      <point x="443" y="369"/>
      <point x="443" y="518" type="curve" smooth="yes"/>
      <point x="443" y="685"/>
      <point x="520" y="727"/>
      <point x="720" y="785" type="curve" smooth="yes"/>
      <point x="943" y="850"/>
      <point x="1070" y="897"/>
      <point x="1070" y="1150" type="curve"/>
    </contour>
  </outline>
</glyph>
<glyph name="Digamma" format="2">
  <advance width="1200"/>
  <unicode hex="03DC"/>
  <anchor x="336" y="0" name="bottom"/>
  <anchor x="559" y="0" name="bottomright"/>
  <anchor x="657" y="1386" name="top"/>
  <outline>
    <contour>
      <point x="923" y="522" type="curve"/>
      <point x="998" y="734" type="line"/>
      <point x="934" y="773"/>
      <point x="865" y="791"/>
      <point x="759" y="791" type="curve" smooth="yes"/>
      <point x="276" y="791" type="line"/>
      <point x="276" y="554" type="line"/>
      <point x="739" y="554" type="line" smooth="yes"/>
      <point x="823" y="554"/>
      <point x="871" y="542"/>
    </contour>
    <component base="Gamma" xOffset="-8"/>
  </outline>
</glyph>
<glyph name="digamma" format="2">
  <advance width="1200"/>
  <unicode hex="03DD"/>
  <anchor x="600" y="-443" name="bottom"/>
  <anchor x="600" y="1062" name="top"/>
  <outline>
    <contour>
      <point x="598" y="1062" type="line" smooth="yes"/>
      <point x="325" y="1062"/>
      <point x="182" y="894"/>
      <point x="182" y="677" type="curve" smooth="yes"/>
      <point x="182" y="-445" type="line"/>
      <point x="498" y="-400" type="line"/>
      <point x="498" y="670" type="line" smooth="yes"/>
      <point x="498" y="771"/>
      <point x="550" y="825"/>
      <point x="637" y="825" type="curve" smooth="yes"/>
      <point x="1048" y="825" type="line"/>
      <point x="1079" y="1062" type="line"/>
    </contour>
    <contour>
      <point x="932" y="238" type="curve"/>
      <point x="1005" y="443" type="line"/>
      <point x="943" y="481"/>
      <point x="874" y="499"/>
      <point x="766" y="499" type="curve" smooth="yes"/>
      <point x="331" y="499" type="line"/>
      <point x="331" y="270" type="line"/>
      <point x="748" y="270" type="line" smooth="yes"/>
      <point x="824" y="270"/>
      <point x="880" y="258"/>
    </contour>
  </outline>
</glyph>
<glyph name="sampi" format="2">
  <advance width="1200"/>
  <unicode hex="03E1"/>
  <anchor x="600" y="-443" name="bottom"/>
  <anchor x="600" y="1484" name="top"/>
  <outline>
    <contour>
      <point x="17" y="0" type="line"/>
      <point x="269" y="0" type="line"/>
      <point x="734" y="1014" type="line"/>
      <point x="558" y="1169" type="line"/>
    </contour>
    <contour>
      <point x="435" y="0" type="line"/>
      <point x="640" y="0" type="line"/>
      <point x="916" y="683" type="line"/>
      <point x="773" y="803" type="line"/>
    </contour>
    <contour>
      <point x="163" y="1523" type="curve"/>
      <point x="68" y="1337" type="line"/>
      <point x="628" y="1073"/>
      <point x="858" y="764"/>
      <point x="858" y="182" type="curve" smooth="yes"/>
      <point x="858" y="-36"/>
      <point x="834" y="-226"/>
      <point x="796" y="-406" type="curve"/>
      <point x="1014" y="-441" type="line"/>
      <point x="1062" y="-270"/>
      <point x="1102" y="-14"/>
      <point x="1102" y="182" type="curve" smooth="yes"/>
      <point x="1102" y="877"/>
      <point x="777" y="1277"/>
    </contour>
  </outline>
</glyph>
<glyph name="E-cy" format="2">
  <advance width="1200"/>
  <unicode hex="0404"/>
  <anchor x="600" y="0" name="bottom"/>
  <anchor x="600" y="1386" name="top"/>
  <outline>
    <contour>
      <point x="716" y="1421" type="curve" smooth="yes"/>
      <point x="345" y="1421"/>
      <point x="67" y="1160"/>
      <point x="67" y="696" type="curve" smooth="yes"/>
      <point x="67" y="220"/>
      <point x="327" y="-34"/>
      <point x="708" y="-34" type="curve" smooth="yes"/>
      <point x="927" y="-34"/>
      <point x="1077" y="48"/>
      <point x="1179" y="146" type="curve"/>
      <point x="1034" y="322" type="line"/>
      <point x="952" y="264"/>
      <point x="866" y="214"/>
      <point x="730" y="214" type="curve" smooth="yes"/>
      <point x="550" y="214"/>
      <point x="417" y="330"/>
      <point x="401" y="583" type="curve"/>
      <point x="914" y="583" type="line"/>
      <point x="914" y="835" type="line"/>
      <point x="401" y="835" type="line"/>
      <point x="421" y="1076"/>
      <point x="562" y="1184"/>
      <point x="737" y="1184" type="curve" smooth="yes"/>
      <point x="843" y="1184"/>
      <point x="924" y="1146"/>
      <point x="1006" y="1090" type="curve"/>
      <point x="1160" y="1268" type="line"/>
      <point x="1041" y="1362"/>
      <point x="915" y="1421"/>
    </contour>
  </outline>
</glyph>
<glyph name="Nje-cy" format="2">
  <advance width="1200"/>
  <unicode hex="040A"/>
  <anchor x="600" y="0" name="bottom"/>
  <anchor x="600" y="1386" name="top"/>
  <outline>
    <contour>
      <point x="739" y="1386" type="line"/>
      <point x="482" y="1386" type="line"/>
      <point x="482" y="869" type="line"/>
      <point x="314" y="869" type="line"/>
      <point x="314" y="1386" type="line"/>
      <point x="57" y="1386" type="line"/>
      <point x="57" y="0" type="line"/>
      <point x="314" y="0" type="line"/>
      <point x="314" y="643" type="line"/>
      <point x="482" y="643" type="line"/>
      <point x="482" y="0" type="line"/>
      <point x="720" y="0" type="line" smooth="yes"/>
      <point x="1039" y="0"/>
      <point x="1200" y="151"/>
      <point x="1200" y="453" type="curve" smooth="yes"/>
      <point x="1200" y="737"/>
      <point x="1022" y="865"/>
      <point x="739" y="869" type="curve"/>
    </contour>
    <contour>
      <point x="750" y="649" type="line" smooth="yes"/>
      <point x="879" y="647"/>
      <point x="936" y="597"/>
      <point x="936" y="451" type="curve" smooth="yes"/>
      <point x="936" y="295"/>
      <point x="887" y="229"/>
      <point x="750" y="226" type="curve" smooth="yes"/>
      <point x="739" y="226" type="line"/>
      <point x="739" y="649" type="line"/>
    </contour>
  </outline>
</glyph>
<glyph name="Be-cy" format="2">
  <advance width="1200"/>
  <unicode hex="0411"/>
  <anchor x="600" y="0" name="bottom"/>
  <anchor x="600" y="1386" name="top"/>
  <outline>
    <contour>
      <point x="986" y="1386" type="line"/>
      <point x="114" y="1386" type="line"/>
      <point x="114" y="0" type="line"/>
      <point x="599" y="0" type="line" smooth="yes"/>
      <point x="911" y="0"/>
      <point x="1137" y="153"/>
      <point x="1137" y="455" type="curve" smooth="yes"/>
      <point x="1137" y="747"/>
      <point x="931" y="887"/>
      <point x="581" y="887" type="curve" smooth="yes"/>
      <point x="442" y="887" type="line"/>
      <point x="442" y="1137" type="line"/>
      <point x="954" y="1137" type="line"/>
    </contour>
    <contour>
      <point x="560" y="651" type="line" smooth="yes"/>
      <point x="721" y="651"/>
      <point x="801" y="587"/>
      <point x="801" y="453" type="curve" smooth="yes"/>
      <point x="801" y="303"/>
      <point x="717" y="245"/>
      <point x="564" y="245" type="curve" smooth="yes"/>
      <point x="442" y="245" type="line"/>
      <point x="442" y="651" type="line"/>
    </contour>
  </outline>
</glyph>
<glyph name="Zhe-cy" format="2">
  <advance width="1200"/>
  <unicode hex="0416"/>
  <anchor x="600" y="0" name="bottom"/>
  <anchor x="1165" y="0" name="bottomright"/>
  <anchor x="600" y="1386" name="top"/>
  <outline>
    <contour>
      <point x="501" y="640" type="line"/>
      <point x="501" y="0" type="line"/>
      <point x="699" y="0" type="line"/>
      <point x="699" y="640" type="line"/>
      <point x="755" y="640" type="line"/>
      <point x="912" y="0" type="line"/>
      <point x="1195" y="0" type="line"/>
      <point x="981" y="757" type="line"/>
      <point x="1175" y="1386" type="line"/>
      <point x="906" y="1386" type="line"/>
      <point x="753" y="804" type="line"/>
      <point x="699" y="804" type="line"/>
      <point x="699" y="1386" type="line"/>
      <point x="501" y="1386" type="line"/>
      <point x="501" y="804" type="line"/>
      <point x="447" y="804" type="line"/>
      <point x="294" y="1386" type="line"/>
      <point x="25" y="1386" type="line"/>
      <point x="219" y="757" type="line"/>
      <point x="5" y="0" type="line"/>
      <point x="284" y="0" type="line"/>
      <point x="441" y="640" type="line"/>
    </contour>
  </outline>
</glyph>
<glyph name="Ii-cy" format="2">
  <advance width="1200"/>
  <unicode hex="0418"/>
  <anchor x="600" y="0" name="bottom"/>
  <anchor x="1116" y="0" name="bottomright"/>
  <anchor x="600" y="1386" name="top"/>
  <outline>
    <contour>
      <point x="104" y="0" type="line"/>
      <point x="472" y="0" type="line"/>
      <point x="849" y="1097" type="line"/>
      <point x="820" y="926"/>
      <point x="796" y="729"/>
      <point x="796" y="460" type="curve" smooth="yes"/>
      <point x="796" y="0" type="line"/>
      <point x="1096" y="0" type="line"/>
      <point x="1096" y="1386" type="line"/>
      <point x="734" y="1386" type="line"/>
      <point x="349" y="286" type="line"/>
      <point x="379" y="454"/>
      <point x="404" y="629"/>
      <point x="404" y="916" type="curve" smooth="yes"/>
      <point x="404" y="1386" type="line"/>
      <point x="104" y="1386" type="line"/>
    </contour>
  </outline>
</glyph>
<glyph name="U-cy" format="2">
  <advance width="1200"/>
  <unicode hex="0423"/>
  <anchor x="600" y="0" name="bottom"/>
  <anchor x="620" y="1386" name="top"/>
  <outline>
    <contour>
      <point x="1215" y="1386" type="line"/>
      <point x="883" y="1386" type="line"/>
      <point x="622" y="554" type="line"/>
      <point x="329" y="1386" type="line"/>
      <point x="-10" y="1386" type="line"/>
      <point x="420" y="366" type="line"/>
      <point x="526" y="366" type="line"/>
      <point x="464" y="257"/>
      <point x="382" y="210"/>
      <point x="169" y="190" type="curve"/>
      <point x="213" y="-34" type="line"/>
      <point x="590" y="-4"/>
      <point x="726" y="116"/>
      <point x="863" y="471" type="curve" smooth="yes"/>
    </contour>
  </outline>
</glyph>
<glyph name="Sha-cy" format="2">
  <advance width="1200"/>
  <unicode hex="0428"/>
  <anchor x="600" y="0" name="bottom"/>
  <anchor x="1149" y="0" name="bottomright"/>
  <anchor x="600" y="1386" name="top"/>
  <outline>
    <contour>
      <point x="1129" y="1386" type="line"/>
      <point x="870" y="1386" type="line"/>
      <point x="870" y="224" type="line"/>
      <point x="715" y="224" type="line"/>
      <point x="715" y="1386" type="line"/>
      <point x="485" y="1386" type="line"/>
      <point x="485" y="224" type="line"/>
      <point x="330" y="224" type="line"/>
      <point x="330" y="1386" type="line"/>
      <point x="71" y="1386" type="line"/>
      <point x="71" y="0" type="line"/>
      <point x="1129" y="0" type="line"/>
    </contour>
  </outline>
</glyph>
<glyph name="Hardsign-cy" format="2">
  <advance width="1200"/>
  <unicode hex="042A"/>
  <outline>
    <contour>
      <point x="490" y="1386" type="line"/>
      <point x="-6" y="1386" type="line"/>
      <point x="-6" y="1146" type="line"/>
      <point x="182" y="1146" type="line"/>
      <point x="182" y="0" type="line"/>
      <point x="618" y="0" type="line" smooth="yes"/>
      <point x="944" y="0"/>
      <point x="1174" y="145"/>
      <point x="1174" y="471" type="curve" smooth="yes"/>
      <point x="1174" y="777"/>
      <point x="956" y="919"/>
      <point x="595" y="919" type="curve" smooth="yes"/>
      <point x="490" y="919" type="line"/>
    </contour>
    <contour>
      <point x="584" y="691" type="line" smooth="yes"/>
      <point x="760" y="691"/>
      <point x="840" y="619"/>
      <point x="840" y="469" type="curve" smooth="yes"/>
      <point x="840" y="288"/>
      <point x="735" y="234"/>
      <point x="559" y="234" type="curve" smooth="yes"/>
      <point x="490" y="234" type="line"/>
      <point x="490" y="691" type="line"/>
    </contour>
  </outline>
</glyph>
<glyph name="Ereversed-cy" format="2">
  <advance width="1200"/>
  <unicode hex="042D"/>
  <anchor x="600" y="0" name="bottom"/>
  <anchor x="557" y="1378" name="top"/>
  <outline>
    <contour>
      <point x="520" y="1421" type="curve" smooth="yes"/>
      <point x="317" y="1421"/>
      <point x="171" y="1353"/>
      <point x="44" y="1248" type="curve"/>
      <point x="196" y="1075" type="line"/>
      <point x="270" y="1130"/>
      <point x="362" y="1184"/>
      <point x="493" y="1184" type="curve" smooth="yes"/>
      <point x="670" y="1184"/>
      <point x="775" y="1087"/>
      <point x="787" y="825" type="curve"/>
      <point x="274" y="825" type="line"/>
      <point x="274" y="593" type="line"/>
      <point x="787" y="593" type="line"/>
      <point x="777" y="319"/>
      <point x="660" y="214"/>
      <point x="483" y="214" type="curve" smooth="yes"/>
      <point x="357" y="214"/>
      <point x="270" y="254"/>
      <point x="180" y="320" type="curve"/>
      <point x="28" y="142" type="line"/>
      <point x="141" y="30"/>
      <point x="299" y="-34"/>
      <point x="485" y="-34" type="curve" smooth="yes"/>
      <point x="864" y="-34"/>
      <point x="1121" y="208"/>
      <point x="1121" y="702" type="curve" smooth="yes"/>
      <point x="1121" y="1174"/>
      <point x="897" y="1421"/>
    </contour>
  </outline>
</glyph>
<glyph name="be-cy" format="2">
  <advance width="1200"/>
  <unicode hex="0431"/>
  <anchor x="600" y="0" name="bottom"/>
  <anchor x="600" y="1484" name="top"/>
  <outline>
    <contour>
      <point x="891" y="1518" type="line"/>
      <point x="758" y="1444"/>
      <point x="682" y="1410"/>
      <point x="515" y="1360" type="curve" smooth="yes"/>
      <point x="175" y="1259"/>
      <point x="88" y="1039"/>
      <point x="88" y="599" type="curve" smooth="yes"/>
      <point x="88" y="160"/>
      <point x="272" y="-34"/>
      <point x="600" y="-34" type="curve" smooth="yes"/>
      <point x="895" y="-34"/>
      <point x="1110" y="145"/>
      <point x="1110" y="490" type="curve" smooth="yes"/>
      <point x="1110" y="814"/>
      <point x="933" y="1002"/>
      <point x="703" y="1002" type="curve" smooth="yes"/>
      <point x="548" y="1002"/>
      <point x="436" y="934"/>
      <point x="352" y="790" type="curve"/>
      <point x="354" y="571" type="line"/>
      <point x="391" y="635"/>
      <point x="469" y="778"/>
      <point x="609" y="778" type="curve" smooth="yes"/>
      <point x="733" y="778"/>
      <point x="798" y="701"/>
      <point x="798" y="486" type="curve" smooth="yes"/>
      <point x="798" y="252"/>
      <point x="711" y="192"/>
      <point x="600" y="192" type="curve" smooth="yes"/>
      <point x="465" y="192"/>
      <point x="404" y="305"/>
      <point x="404" y="524" type="curve"/>
      <point x="404" y="774" type="line"/>
      <point x="390" y="778" type="line"/>
      <point x="401" y="1027"/>
      <point x="460" y="1103"/>
      <point x="645" y="1162" type="curve" smooth="yes"/>
      <point x="801" y="1210"/>
      <point x="891" y="1240"/>
      <point x="1006" y="1317" type="curve"/>
    </contour>
  </outline>
</glyph>
<glyph name="el-cy" format="2">
  <advance width="1200"/>
  <unicode hex="043B"/>
  <anchor x="600" y="0" name="bottom"/>
  <anchor x="1075" y="0" name="bottomright"/>
  <anchor x="600" y="1062" name="top"/>
  <outline>
    <contour>
      <point x="1055" y="1062" type="line"/>
      <point x="234" y="1062" type="line"/>
      <point x="206" y="688" type="line" smooth="yes"/>
      <point x="176" y="301"/>
      <point x="129" y="232"/>
      <point x="28" y="160" type="curve"/>
      <point x="160" y="-40" type="line"/>
      <point x="408" y="82"/>
      <point x="482" y="215"/>
      <point x="506" y="700" type="curve" smooth="yes"/>
      <point x="513" y="830" type="line"/>
      <point x="739" y="830" type="line"/>
      <point x="739" y="0" type="line"/>
      <point x="1055" y="0" type="line"/>
    </contour>
  </outline>
</glyph>
<glyph name="ef-cy" format="2">
  <advance width="1200"/>
  <unicode hex="0444"/>
  <anchor x="600" y="-443" name="bottom"/>
  <anchor x="600" y="1484" name="top"/>
  <outline>
    <contour>
      <point x="487" y="1517" type="line"/>
      <point x="487" y="1001" type="line"/>
      <point x="439" y="1067"/>
      <point x="385" y="1097"/>
      <point x="309" y="1097" type="curve" smooth="yes"/>
      <point x="91" y="1097"/>
      <point x="29" y="881"/>
      <point x="29" y="530" type="curve" smooth="yes"/>
      <point x="29" y="184"/>
      <point x="109" y="-34"/>
      <point x="313" y="-34" type="curve" smooth="yes"/>
      <point x="384" y="-34"/>
      <point x="443" y="-2"/>
      <point x="487" y="57" type="curve"/>
      <point x="487" y="-443" type="line"/>
      <point x="713" y="-418" type="line"/>
      <point x="713" y="59" type="line"/>
      <point x="757" y="-2"/>
      <point x="811" y="-34"/>
      <point x="885" y="-34" type="curve" smooth="yes"/>
      <point x="1091" y="-34"/>
      <point x="1171" y="184"/>
      <point x="1171" y="530" type="curve" smooth="yes"/>
      <point x="1171" y="881"/>
      <point x="1131" y="1097"/>
      <point x="907" y="1097" type="curve" smooth="yes"/>
      <point x="829" y="1097"/>
      <point x="767" y="1069"/>
      <point x="713" y="999" type="curve"/>
      <point x="713" y="1492" type="line"/>
    </contour>
    <contour>
      <point x="401" y="882" type="curve" smooth="yes"/>
      <point x="440" y="882"/>
      <point x="460" y="863"/>
      <point x="487" y="823" type="curve"/>
      <point x="487" y="241" type="line"/>
      <point x="456" y="202"/>
      <point x="436" y="180"/>
      <point x="401" y="180" type="curve" smooth="yes"/>
      <point x="327" y="180"/>
      <point x="308" y="277"/>
      <point x="308" y="530" type="curve" smooth="yes"/>
      <point x="308" y="789"/>
      <point x="327" y="882"/>
    </contour>
    <contour>
      <point x="813" y="882" type="curve" smooth="yes"/>
      <point x="877" y="882"/>
      <point x="892" y="789"/>
      <point x="892" y="530" type="curve" smooth="yes"/>
      <point x="892" y="265"/>
      <point x="869" y="180"/>
      <point x="802" y="180" type="curve" smooth="yes"/>
      <point x="766" y="180"/>
      <point x="743" y="199"/>
      <point x="713" y="241" type="curve"/>
      <point x="713" y="823" type="line"/>
      <point x="746" y="863"/>
      <point x="772" y="882"/>
    </contour>
  </outline>
</glyph>
<glyph name="yeru-cy" format="2">
  <advance width="1200"/>
  <unicode hex="044B"/>
  <anchor x="600" y="0" name="bottom"/>
  <anchor x="600" y="1062" name="top"/>
  <outline>
    <contour>
      <point x="321" y="1062" type="line"/>
      <point x="52" y="1062" type="line"/>
      <point x="52" y="0" type="line"/>
      <point x="374" y="0" type="line" smooth="yes"/>
      <point x="647" y="0"/>
      <point x="810" y="124"/>
      <point x="810" y="374" type="curve" smooth="yes"/>
      <point x="810" y="624"/>
      <point x="653" y="737"/>
      <point x="340" y="737" type="curve" smooth="yes"/>
      <point x="321" y="737" type="line"/>
    </contour>
    <contour>
      <point x="358" y="551" type="line" smooth="yes"/>
      <point x="476" y="551"/>
      <point x="527" y="499"/>
      <point x="527" y="378" type="curve" smooth="yes"/>
      <point x="527" y="246"/>
      <point x="468" y="196"/>
      <point x="368" y="196" type="curve" smooth="yes"/>
      <point x="321" y="196" type="line"/>
      <point x="321" y="551" type="line"/>
    </contour>
    <contour>
      <point x="1148" y="1062" type="line"/>
      <point x="879" y="1062" type="line"/>
      <point x="879" y="0" type="line"/>
      <point x="1148" y="0" type="line"/>
    </contour>
  </outline>
</glyph>
<glyph name="softsign-cy" format="2">
  <advance width="1200"/>
  <unicode hex="044C"/>
  <anchor x="600" y="0" name="bottom"/>
  <anchor x="600" y="1062" name="top"/>
  <outline>
    <contour>
      <point x="492" y="1062" type="line"/>
      <point x="176" y="1062" type="line"/>
      <point x="176" y="0" type="line"/>
      <point x="609" y="0" type="line" smooth="yes"/>
      <point x="895" y="0"/>
      <point x="1113" y="85"/>
      <point x="1113" y="376" type="curve" smooth="yes"/>
      <point x="1113" y="625"/>
      <point x="944" y="745"/>
      <point x="603" y="745" type="curve" smooth="yes"/>
      <point x="492" y="745" type="line"/>
    </contour>
    <contour>
      <point x="606" y="537" type="line" smooth="yes"/>
      <point x="733" y="537"/>
      <point x="787" y="491"/>
      <point x="787" y="381" type="curve" smooth="yes"/>
      <point x="787" y="258"/>
      <point x="726" y="218"/>
      <point x="617" y="218" type="curve" smooth="yes"/>
      <point x="492" y="218" type="line"/>
      <point x="492" y="537" type="line"/>
    </contour>
  </outline>
</glyph>
<glyph name="Omega-cy" format="2">
  <advance width="1200"/>
  <unicode hex="0460"/>
  <outline>
    <contour>
      <point x="1028" y="1386" type="curve"/>
      <point x="766" y="1386" type="line"/>
      <point x="819" y="1168"/>
      <point x="881" y="971"/>
      <point x="881" y="612" type="curve" smooth="yes"/>
      <point x="881" y="313"/>
      <point x="842" y="210"/>
      <point x="783" y="210" type="curve" smooth="yes"/>
      <point x="740" y="210"/>
      <point x="721" y="246"/>
      <point x="721" y="321" type="curve" smooth="yes"/>
      <point x="721" y="798" type="line"/>
      <point x="477" y="798" type="line"/>
      <point x="477" y="320" type="line" smooth="yes"/>
      <point x="477" y="244"/>
      <point x="452" y="210"/>
      <point x="417" y="210" type="curve" smooth="yes"/>
      <point x="356" y="210"/>
      <point x="319" y="314"/>
      <point x="319" y="612" type="curve" smooth="yes"/>
      <point x="319" y="973"/>
      <point x="385" y="1168"/>
      <point x="434" y="1386" type="curve"/>
      <point x="170" y="1386" type="line"/>
      <point x="97" y="1185"/>
      <point x="22" y="982"/>
      <point x="22" y="608" type="curve" smooth="yes"/>
      <point x="22" y="165"/>
      <point x="175" y="-40"/>
      <point x="381" y="-40" type="curve" smooth="yes"/>
      <point x="494" y="-40"/>
      <point x="560" y="33"/>
      <point x="598" y="151" type="curve"/>
      <point x="630" y="34"/>
      <point x="679" y="-40"/>
      <point x="825" y="-40" type="curve" smooth="yes"/>
      <point x="1019" y="-40"/>
      <point x="1178" y="165"/>
      <point x="1178" y="608" type="curve" smooth="yes"/>
      <point x="1178" y="982"/>
      <point x="1103" y="1185"/>
    </contour>
  </outline>
</glyph>
<glyph name="Yat-cy" format="2">
  <advance width="1200"/>
  <unicode hex="0462"/>
  <anchor x="600" y="0" name="bottom"/>
  <anchor x="600" y="1386" name="top"/>
  <outline>
    <contour>
      <point x="252" y="0" type="line"/>
      <point x="656" y="0" type="line" smooth="yes"/>
      <point x="953" y="0"/>
      <point x="1175" y="151"/>
      <point x="1175" y="460" type="curve" smooth="yes"/>
      <point x="1175" y="745"/>
      <point x="957" y="887"/>
      <point x="636" y="887" type="curve" smooth="yes"/>
      <point x="547" y="887" type="line"/>
      <point x="547" y="654" type="line"/>
      <point x="624" y="654" type="line" smooth="yes"/>
      <point x="756" y="654"/>
      <point x="837" y="588"/>
      <point x="837" y="457" type="curve" smooth="yes"/>
      <point x="837" y="307"/>
      <point x="752" y="239"/>
      <point x="636" y="239" type="curve" smooth="yes"/>
      <point x="579" y="239" type="line"/>
      <point x="579" y="1386" type="line"/>
      <point x="252" y="1386" type="line"/>
    </contour>
    <contour>
      <point x="20" y="1039" type="line"/>
      <point x="825" y="1039" type="line"/>
      <point x="825" y="1229" type="line"/>
      <point x="252" y="1229" type="line"/>
      <point x="20" y="1229" type="line"/>
    </contour>
  </outline>
</glyph>
<glyph name="Eiotified-cy" format="2">
  <advance width="1200"/>
  <unicode hex="0464"/>
  <anchor x="600" y="0" name="bottom"/>
  <anchor x="600" y="1386" name="top"/>
  <outline>
    <contour>
      <point x="353" y="1392" type="line"/>
      <point x="43" y="1392" type="line"/>
      <point x="43" y="0" type="line"/>
      <point x="353" y="0" type="line"/>
      <point x="353" y="585" type="line"/>
      <point x="552" y="585" type="line"/>
      <point x="552" y="827" type="line"/>
      <point x="353" y="827" type="line"/>
    </contour>
    <contour>
      <point x="1215" y="39" type="curve"/>
      <point x="1126" y="229" type="line"/>
      <point x="1077" y="205"/>
      <point x="1025" y="194"/>
      <point x="970" y="194" type="curve" smooth="yes"/>
      <point x="819" y="194"/>
      <point x="759" y="321"/>
      <point x="757" y="593" type="curve"/>
      <point x="1071" y="593" type="line"/>
      <point x="1071" y="825" type="line"/>
      <point x="757" y="825" type="line"/>
      <point x="764" y="1079"/>
      <point x="831" y="1198"/>
      <point x="974" y="1198" type="curve" smooth="yes"/>
      <point x="1015" y="1198"/>
      <point x="1067" y="1187"/>
      <point x="1113" y="1165" type="curve"/>
      <point x="1213" y="1357" type="line"/>
      <point x="1143" y="1399"/>
      <point x="1067" y="1421"/>
      <point x="970" y="1421" type="curve" smooth="yes"/>
      <point x="621" y="1421"/>
      <point x="443" y="1160"/>
      <point x="443" y="696" type="curve" smooth="yes"/>
      <point x="443" y="220"/>
      <point x="604" y="-34"/>
      <point x="945" y="-34" type="curve" smooth="yes"/>
      <point x="1048" y="-34"/>
      <point x="1139" y="-7"/>
    </contour>
  </outline>
</glyph>
<glyph name="Yuslittleiotified-cy" format="2">
  <advance width="1200"/>
  <unicode hex="0468"/>
  <anchor x="600" y="0" name="bottom"/>
  <anchor x="600" y="1386" name="top"/>
  <outline>
    <contour>
      <point x="608" y="527" type="line"/>
      <point x="659" y="714" type="line"/>
      <point x="254" y="714" type="line"/>
      <point x="254" y="1386" type="line"/>
      <point x="2" y="1386" type="line"/>
      <point x="2" y="-4" type="line"/>
      <point x="254" y="-4" type="line"/>
      <point x="254" y="527" type="line"/>
    </contour>
    <contour>
      <point x="283" y="0" type="line"/>
      <point x="529" y="0" type="line"/>
      <point x="762" y="1238" type="line"/>
      <point x="997" y="0" type="line"/>
      <point x="1251" y="0" type="line"/>
      <point x="965" y="1386" type="line"/>
      <point x="568" y="1386" type="line"/>
    </contour>
    <contour>
      <point x="662" y="-2" type="line"/>
      <point x="863" y="-2" type="line"/>
      <point x="863" y="548" type="line"/>
      <point x="662" y="548" type="line"/>
    </contour>
    <contour>
      <point x="565" y="527" type="line"/>
      <point x="964" y="527" type="line"/>
      <point x="907" y="714" type="line"/>
      <point x="623" y="714" type="line"/>
    </contour>
  </outline>
</glyph>
<glyph name="Yusbigiotified-cy" format="2">
  <advance width="1200"/>
  <unicode hex="046C"/>
  <anchor x="600" y="0" name="bottom"/>
  <anchor x="600" y="1386" name="top"/>
  <outline>
    <contour>
      <point x="11" y="-4" type="line"/>
      <point x="263" y="-4" type="line"/>
      <point x="263" y="620" type="line"/>
      <point x="470" y="620" type="line"/>
      <point x="520" y="803" type="line"/>
      <point x="263" y="803" type="line"/>
      <point x="263" y="1386" type="line"/>
      <point x="11" y="1386" type="line"/>
    </contour>
    <contour>
      <point x="313" y="0" type="line"/>
      <point x="553" y="0" type="line"/>
      <point x="605" y="620" type="line"/>
      <point x="656" y="620" type="line"/>
      <point x="656" y="0" type="line"/>
      <point x="879" y="0" type="line"/>
      <point x="879" y="620" type="line"/>
      <point x="930" y="620" type="line"/>
      <point x="983" y="0" type="line"/>
      <point x="1227" y="0" type="line"/>
      <point x="1112" y="803" type="line"/>
      <point x="420" y="803" type="line"/>
    </contour>
    <contour>
      <point x="617" y="658" type="line"/>
      <point x="914" y="660" type="line"/>
      <point x="1148" y="1211" type="line"/>
      <point x="1148" y="1386" type="line"/>
      <point x="985" y="1386" type="line"/>
      <point x="768" y="803" type="line"/>
      <point x="539" y="1386" type="line"/>
      <point x="376" y="1386" type="line"/>
      <point x="376" y="1211" type="line"/>
    </contour>
    <contour>
      <point x="497" y="1211" type="line"/>
      <point x="1077" y="1211" type="line"/>
      <point x="1077" y="1386" type="line"/>
      <point x="532" y="1386" type="line"/>
    </contour>
  </outline>
</glyph>
<glyph name="Uk-cy" format="2">
  <advance width="1200"/>
  <unicode hex="0478"/>
  <outline>
    <contour>
      <point x="305" y="-34" type="curve" smooth="yes"/>
      <point x="533" y="-34"/>
      <point x="626" y="254"/>
      <point x="626" y="694" type="curve" smooth="yes"/>
      <point x="626" y="1144"/>
      <point x="533" y="1421"/>
      <point x="305" y="1421" type="curve" smooth="yes"/>
      <point x="90" y="1421"/>
      <point x="-19" y="1134"/>
      <point x="-19" y="694" type="curve" smooth="yes"/>
      <point x="-19" y="244"/>
      <point x="90" y="-34"/>
    </contour>
    <contour>
      <point x="305" y="166" type="curve" smooth="yes"/>
      <point x="234" y="166"/>
      <point x="201" y="313"/>
      <point x="201" y="694" type="curve" smooth="yes"/>
      <point x="201" y="1074"/>
      <point x="231" y="1221"/>
      <point x="305" y="1221" type="curve" smooth="yes"/>
      <point x="376" y="1221"/>
      <point x="408" y="1074"/>
      <point x="408" y="694" type="curve" smooth="yes"/>
      <point x="408" y="317"/>
      <point x="378" y="166"/>
    </contour>
    <contour>
      <point x="692" y="-445" type="line"/>
      <point x="847" y="-407"/>
      <point x="996" y="-295"/>
      <point x="1038" y="0" type="curve" smooth="yes"/>
      <point x="1190" y="1062" type="line"/>
      <point x="997" y="1062" type="line"/>
      <point x="906" y="202" type="line"/>
      <point x="825" y="1062" type="line"/>
      <point x="627" y="1062" type="line"/>
      <point x="767" y="0" type="line"/>
      <point x="867" y="0" type="line"/>
      <point x="839" y="-176"/>
      <point x="771" y="-248"/>
      <point x="647" y="-300" type="curve"/>
    </contour>
  </outline>
</glyph>
<glyph name="iishorttail-cy" format="2">
  <advance width="1200"/>
  <unicode hex="048B"/>
  <outline>
    <contour>
      <point x="1011" y="1062" type="line"/>
      <point x="688" y="1062" type="line"/>
      <point x="375" y="275" type="line"/>
      <point x="408" y="401"/>
      <point x="428" y="560"/>
      <point x="428" y="720" type="curve" smooth="yes"/>
      <point x="428" y="1062" type="line"/>
      <point x="130" y="1062" type="line"/>
      <point x="130" y="0" type="line"/>
      <point x="452" y="0" type="line"/>
      <point x="756" y="768" type="line"/>
      <point x="734" y="672"/>
      <point x="712" y="518"/>
      <point x="712" y="338" type="curve" smooth="yes"/>
      <point x="712" y="0" type="line"/>
      <point x="1011" y="0" type="line"/>
    </contour>
    <component base="breve-cy" xOffset="-30"/>
    <component base="descTail-cy" xOffset="644"/>
  </outline>
</glyph>
<glyph name="ghemiddlehook-cy" format="2">
  <advance width="1200"/>
  <unicode hex="0495"/>
  <anchor x="600" y="-443" name="bottom"/>
  <anchor x="600" y="1062" name="top"/>
  <outline>
    <contour>
      <point x="760" y="0" type="line"/>
      <point x="1076" y="0" type="line"/>
      <point x="1076" y="357" type="line" smooth="yes"/>
      <point x="1076" y="576"/>
      <point x="963" y="692"/>
      <point x="772" y="692" type="curve" smooth="yes"/>
      <point x="643" y="692"/>
      <point x="529" y="631"/>
      <point x="455" y="535" type="curve"/>
      <point x="456" y="324" type="line"/>
      <point x="512" y="400"/>
      <point x="577" y="459"/>
      <point x="658" y="459" type="curve" smooth="yes"/>
      <point x="727" y="459"/>
      <point x="760" y="428"/>
      <point x="760" y="337" type="curve" smooth="yes"/>
    </contour>
    <contour>
      <point x="163" y="0" type="line"/>
      <point x="479" y="0" type="line"/>
      <point x="479" y="1062" type="line"/>
      <point x="163" y="1062" type="line"/>
    </contour>
    <contour>
      <point x="479" y="832" type="line"/>
      <point x="888" y="832" type="line"/>
      <point x="934" y="1062" type="line"/>
      <point x="163" y="1062" type="line"/>
    </contour>
    <component base="hookHELPER" xOffset="297"/>
  </outline>
</glyph>
<glyph name="zhedescender-cy" format="2">
  <advance width="1200"/>
  <unicode hex="0497"/>
  <outline>
    <contour>
      <point x="493" y="0" type="line"/>
      <point x="707" y="0" type="line"/>
      <point x="707" y="465" type="line"/>
      <point x="759" y="465" type="line"/>
      <point x="916" y="0" type="line"/>
      <point x="1193" y="0" type="line"/>
      <point x="969" y="570" type="line"/>
      <point x="1185" y="1062" type="line"/>
      <point x="917" y="1062" type="line"/>
      <point x="763" y="640" type="line"/>
      <point x="707" y="640" type="line"/>
      <point x="707" y="1062" type="line"/>
      <point x="493" y="1062" type="line"/>
      <point x="493" y="640" type="line"/>
      <point x="437" y="640" type="line"/>
      <point x="291" y="1062" type="line"/>
      <point x="15" y="1062" type="line"/>
      <point x="233" y="570" type="line"/>
      <point x="9" y="0" type="line"/>
      <point x="292" y="0" type="line"/>
      <point x="441" y="465" type="line"/>
      <point x="493" y="465" type="line"/>
    </contour>
    <contour>
      <point x="1233" y="233" type="line"/>
      <point x="873" y="233" type="line"/>
      <point x="916" y="0" type="line"/>
      <point x="996" y="0" type="line"/>
      <point x="1035" y="-349" type="line"/>
      <point x="1233" y="-349" type="line"/>
    </contour>
  </outline>
</glyph>
<glyph name="kaverticalstroke-cy" format="2">
  <advance width="1200"/>
  <unicode hex="049D"/>
  <anchor x="600" y="0" name="bottom"/>
  <anchor x="600" y="1062" name="top"/>
  <outline>
    <contour>
      <point x="146" y="0" type="line"/>
      <point x="444" y="0" type="line"/>
      <point x="444" y="469" type="line"/>
      <point x="513" y="469" type="line"/>
      <point x="513" y="234" type="line"/>
      <point x="617" y="234" type="line"/>
      <point x="617" y="469" type="line"/>
      <point x="653" y="469" type="line"/>
      <point x="843" y="0" type="line"/>
      <point x="1173" y="0" type="line"/>
      <point x="900" y="570" type="line"/>
      <point x="1144" y="1062" type="line"/>
      <point x="840" y="1062" type="line"/>
      <point x="653" y="636" type="line"/>
      <point x="617" y="636" type="line"/>
      <point x="617" y="866" type="line"/>
      <point x="513" y="866" type="line"/>
      <point x="513" y="636" type="line"/>
      <point x="444" y="636" type="line"/>
      <point x="444" y="1062" type="line"/>
      <point x="146" y="1062" type="line"/>
    </contour>
  </outline>
</glyph>
<glyph name="Kastroke-cy" format="2">
  <advance width="1200"/>
  <unicode hex="049E"/>
  <outline>
    <contour>
      <point x="19" y="1067" type="line"/>
      <point x="630" y="1067" type="line"/>
      <point x="630" y="1258" type="line"/>
      <point x="134" y="1258" type="line"/>
      <point x="19" y="1258" type="line"/>
    </contour>
    <contour>
      <point x="587" y="603" type="line"/>
      <point x="849" y="0" type="line"/>
      <point x="1207" y="0" type="line"/>
      <point x="856" y="757" type="line"/>
      <point x="1169" y="1386" type="line"/>
      <point x="850" y="1386" type="line"/>
      <point x="583" y="841" type="line"/>
      <point x="462" y="841" type="line"/>
      <point x="462" y="1386" type="line"/>
      <point x="134" y="1386" type="line"/>
      <point x="134" y="0" type="line"/>
      <point x="462" y="0" type="line"/>
      <point x="462" y="603" type="line"/>
    </contour>
  </outline>
</glyph>
<glyph name="Kabashkir-cy" format="2">
  <advance width="1200"/>
  <unicode hex="04A0"/>
  <outline>
    <contour>
      <point x="607" y="609" type="line"/>
      <point x="863" y="0" type="line"/>
      <point x="1210" y="0" type="line"/>
      <point x="860" y="757" type="line"/>
      <point x="1174" y="1386" type="line"/>
      <point x="863" y="1386" type="line"/>
      <point x="603" y="835" type="line"/>
      <point x="493" y="835" type="line"/>
      <point x="493" y="1386" type="line"/>
      <point x="1" y="1386" type="line"/>
      <point x="1" y="1146" type="line"/>
      <point x="188" y="1146" type="line"/>
      <point x="188" y="0" type="line"/>
      <point x="493" y="0" type="line"/>
      <point x="493" y="609" type="line"/>
    </contour>
  </outline>
</glyph>
<glyph name="kabashkir-cy" format="2">
  <advance width="1200"/>
  <unicode hex="04A1"/>
  <outline>
    <contour>
      <point x="210" y="0" type="line"/>
      <point x="526" y="0" type="line"/>
      <point x="526" y="447" type="line"/>
      <point x="645" y="447" type="line"/>
      <point x="865" y="0" type="line"/>
      <point x="1199" y="0" type="line"/>
      <point x="896" y="570" type="line"/>
      <point x="1171" y="1062" type="line"/>
      <point x="864" y="1062" type="line"/>
      <point x="653" y="657" type="line"/>
      <point x="526" y="657" type="line"/>
      <point x="526" y="1062" type="line"/>
      <point x="210" y="1042" type="line"/>
    </contour>
    <contour>
      <point x="210" y="836" type="line"/>
      <point x="526" y="1062" type="line"/>
      <point x="0" y="1062" type="line"/>
      <point x="0" y="836" type="line"/>
    </contour>
  </outline>
</glyph>
<glyph name="enghe-cy" format="2">
  <advance width="1200"/>
  <unicode hex="04A5"/>
  <outline>
    <contour>
      <point x="945" y="826" type="line"/>
      <point x="1169" y="826" type="line"/>
      <point x="1216" y="1062" type="line"/>
      <point x="631" y="1062" type="line"/>
    </contour>
    <contour>
      <point x="631" y="0" type="line"/>
      <point x="947" y="0" type="line"/>
      <point x="947" y="1062" type="line"/>
      <point x="631" y="1062" type="line"/>
      <point x="631" y="657" type="line"/>
      <point x="402" y="657" type="line"/>
      <point x="402" y="1062" type="line"/>
      <point x="86" y="1062" type="line"/>
      <point x="86" y="0" type="line"/>
      <point x="402" y="0" type="line"/>
      <point x="402" y="423" type="line"/>
      <point x="631" y="423" type="line"/>
    </contour>
  </outline>
</glyph>
<glyph name="Tetse-cy" format="2">
  <advance width="1200"/>
  <unicode hex="04B4"/>
  <anchor x="600" y="-443" name="bottom"/>
  <anchor x="600" y="1386" name="top"/>
  <outline>
    <contour>
      <point x="657" y="1386" type="line"/>
      <point x="0" y="1386" type="line"/>
      <point x="0" y="1174" type="line"/>
      <point x="182" y="1174" type="line"/>
      <point x="475" y="1174" type="line"/>
      <point x="625" y="1174" type="line"/>
    </contour>
    <contour>
      <point x="1132" y="243" type="line"/>
      <point x="877" y="243" type="line"/>
      <point x="815" y="0" type="line"/>
      <point x="880" y="0" type="line"/>
      <point x="920" y="-349" type="line"/>
      <point x="1132" y="-349" type="line"/>
    </contour>
    <contour>
      <point x="182" y="0" type="line"/>
      <point x="1036" y="0" type="line"/>
      <point x="1036" y="1386" type="line"/>
      <point x="747" y="1386" type="line"/>
      <point x="747" y="255" type="line"/>
      <point x="471" y="255" type="line"/>
      <point x="471" y="1326" type="line"/>
      <point x="182" y="1326" type="line"/>
    </contour>
  </outline>
</glyph>
<glyph name="tetse-cy" format="2">
  <advance width="1200"/>
  <unicode hex="04B5"/>
  <anchor x="600" y="-443" name="bottom"/>
  <anchor x="600" y="1062" name="top"/>
  <outline>
    <contour>
      <point x="649" y="1062" type="line"/>
      <point x="0" y="1062" type="line"/>
      <point x="0" y="858" type="line"/>
      <point x="170" y="858" type="line"/>
      <point x="467" y="858" type="line"/>
      <point x="600" y="858" type="line"/>
    </contour>
    <contour>
      <point x="719" y="1062" type="line"/>
      <point x="719" y="233" type="line"/>
      <point x="467" y="233" type="line"/>
      <point x="467" y="1062" type="line"/>
      <point x="172" y="1062" type="line"/>
      <point x="172" y="0" type="line"/>
      <point x="1013" y="0" type="line"/>
      <point x="1013" y="1062" type="line"/>
    </contour>
    <contour>
      <point x="1133" y="233" type="line"/>
      <point x="765" y="233" type="line"/>
      <point x="788" y="0" type="line"/>
      <point x="868" y="0" type="line"/>
      <point x="908" y="-349" type="line"/>
      <point x="1133" y="-349" type="line"/>
    </contour>
  </outline>
</glyph>
<glyph name="Kahook-cy" format="2">
  <advance width="1200"/>
  <unicode hex="04C3"/>
  <anchor x="600" y="-443" name="bottom"/>
  <anchor x="600" y="1386" name="top"/>
  <outline>
    <contour>
      <point x="104" y="0" type="line"/>
      <point x="432" y="0" type="line"/>
      <point x="432" y="583" type="line"/>
      <point x="731" y="583" type="line"/>
      <point x="800" y="710" type="line"/>
      <point x="1177" y="1386" type="line"/>
      <point x="859" y="1386" type="line"/>
      <point x="561" y="821" type="line"/>
      <point x="432" y="821" type="line"/>
      <point x="432" y="1386" type="line"/>
      <point x="104" y="1386" type="line"/>
    </contour>
    <contour>
      <point x="808" y="0" type="line"/>
      <point x="1136" y="0" type="line"/>
      <point x="1136" y="404" type="line" smooth="yes"/>
      <point x="1136" y="700"/>
      <point x="998" y="821"/>
      <point x="721" y="821" type="curve"/>
      <point x="647" y="583" type="line"/>
      <point x="761" y="583"/>
      <point x="808" y="524"/>
      <point x="808" y="400" type="curve" smooth="yes"/>
    </contour>
    <component base="hookHELPER.case" xOffset="346"/>
  </outline>
</glyph>
<glyph name="emtail-cy" format="2">
  <advance width="1200"/>
  <unicode hex="04CE"/>
  <outline>
    <contour>
      <point x="978" y="1062" type="line"/>
      <point x="618" y="1062" type="line"/>
      <point x="545" y="408" type="line"/>
      <point x="453" y="1062" type="line"/>
      <point x="112" y="1062" type="line"/>
      <point x="42" y="0" type="line"/>
      <point x="307" y="0" type="line"/>
      <point x="319" y="351" type="line" smooth="yes"/>
      <point x="325" y="500"/>
      <point x="329" y="636"/>
      <point x="323" y="809" type="curve"/>
      <point x="428" y="168" type="line"/>
      <point x="656" y="168" type="line"/>
      <point x="751" y="809" type="line"/>
      <point x="754" y="633"/>
      <point x="758" y="496"/>
      <point x="764" y="362" type="curve" smooth="yes"/>
      <point x="779" y="0" type="line"/>
      <point x="1050" y="0" type="line"/>
    </contour>
    <contour>
      <point x="1231" y="280" type="line"/>
      <point x="801" y="280" type="line"/>
      <point x="786" y="0" type="line"/>
      <point x="895" y="0" type="line"/>
      <point x="815" y="-349" type="line"/>
      <point x="1033" y="-349" type="line"/>
    </contour>
  </outline>
</glyph>
<glyph name="Schwa-cy" format="2">
  <advance width="1200"/>
  <unicode hex="04D8"/>
  <anchor x="600" y="0" name="bottom"/>
  <anchor x="584" y="1388" name="top"/>
  <outline>
    <contour>
      <point x="39" y="674" type="curve" smooth="yes"/>
      <point x="39" y="237"/>
      <point x="216" y="-34"/>
      <point x="592" y="-34" type="curve" smooth="yes"/>
      <point x="943" y="-34"/>
      <point x="1153" y="229"/>
      <point x="1153" y="702" type="curve" smooth="yes"/>
      <point x="1153" y="1176"/>
      <point x="949" y="1421"/>
      <point x="584" y="1421" type="curve" smooth="yes"/>
      <point x="387" y="1421"/>
      <point x="247" y="1357"/>
      <point x="120" y="1248" type="curve"/>
      <point x="270" y="1076" type="line"/>
      <point x="348" y="1132"/>
      <point x="425" y="1186"/>
      <point x="555" y="1186" type="curve" smooth="yes"/>
      <point x="724" y="1186"/>
      <point x="819" y="1071"/>
      <point x="827" y="807" type="curve"/>
      <point x="49" y="807" type="line"/>
      <point x="43" y="767"/>
      <point x="39" y="719"/>
    </contour>
    <contour>
      <point x="592" y="202" type="curve" smooth="yes"/>
      <point x="444" y="202"/>
      <point x="354" y="305"/>
      <point x="350" y="585" type="curve"/>
      <point x="827" y="585" type="line"/>
      <point x="818" y="307"/>
      <point x="734" y="202"/>
    </contour>
  </outline>
</glyph>
<glyph name="komidzje-cy" format="2">
  <advance width="1200"/>
  <unicode hex="0507"/>
  <anchor x="600" y="-443" name="bottom"/>
  <anchor x="600" y="1062" name="top"/>
  <outline>
    <contour>
      <point x="234" y="342" type="line"/>
      <point x="597" y="342" type="line"/>
      <point x="862" y="426"/>
      <point x="946" y="540"/>
      <point x="946" y="715" type="curve" smooth="yes"/>
      <point x="946" y="934"/>
      <point x="784" y="1062"/>
      <point x="455" y="1062" type="curve" smooth="yes"/>
      <point x="148" y="1062" type="line"/>
      <point x="146" y="844" type="line"/>
      <point x="459" y="844" type="line" smooth="yes"/>
      <point x="561" y="844"/>
      <point x="622" y="800"/>
      <point x="622" y="709" type="curve" smooth="yes"/>
      <point x="622" y="615"/>
      <point x="569" y="567"/>
      <point x="454" y="567" type="curve" smooth="yes"/>
      <point x="234" y="567" type="line"/>
    </contour>
    <contour>
      <point x="711" y="0" type="line"/>
      <point x="1062" y="0" type="line"/>
      <point x="771" y="445" type="line"/>
      <point x="495" y="370" type="line"/>
    </contour>
    <component base="descStraight-cy" xOffset="312"/>
  </outline>
</glyph>
<glyph name="Komilje-cy" format="2">
  <advance width="1200"/>
  <unicode hex="0508"/>
  <anchor x="600" y="0" name="bottom"/>
  <anchor x="600" y="1386" name="top"/>
  <outline>
    <contour>
      <point x="836" y="-34" type="curve" smooth="yes"/>
      <point x="1073" y="-34"/>
      <point x="1195" y="134"/>
      <point x="1195" y="492" type="curve" smooth="yes"/>
      <point x="1195" y="600"/>
      <point x="1191" y="680"/>
      <point x="1183" y="758" type="curve"/>
      <point x="934" y="758" type="line"/>
      <point x="940" y="678"/>
      <point x="944" y="594"/>
      <point x="944" y="490" type="curve" smooth="yes"/>
      <point x="944" y="274"/>
      <point x="910" y="180"/>
      <point x="846" y="180" type="curve" smooth="yes"/>
      <point x="809" y="180"/>
      <point x="781" y="207"/>
      <point x="781" y="279" type="curve" smooth="yes"/>
      <point x="781" y="1062" type="line"/>
      <point x="531" y="1062" type="line"/>
      <point x="531" y="298" type="line" smooth="yes"/>
      <point x="531" y="78"/>
      <point x="666" y="-34"/>
    </contour>
    <contour>
      <point x="106" y="-40" type="line"/>
      <point x="310" y="98"/>
      <point x="374" y="229"/>
      <point x="406" y="833" type="curve" smooth="yes"/>
      <point x="425" y="1172" type="line"/>
      <point x="531" y="1172" type="line"/>
      <point x="531" y="857" type="line"/>
      <point x="781" y="857" type="line"/>
      <point x="781" y="1386" type="line"/>
      <point x="196" y="1386" type="line"/>
      <point x="168" y="906" type="line" smooth="yes"/>
      <point x="134" y="339"/>
      <point x="90" y="232"/>
      <point x="-9" y="149" type="curve"/>
    </contour>
  </outline>
</glyph>
<glyph name="komilje-cy" format="2">
  <advance width="1200"/>
  <unicode hex="0509"/>
  <anchor x="600" y="0" name="bottom"/>
  <anchor x="600" y="1062" name="top"/>
  <outline>
    <contour>
      <point x="100" y="-40" type="line"/>
      <point x="250" y="63"/>
      <point x="335" y="156"/>
      <point x="361" y="584" type="curve" smooth="yes"/>
      <point x="377" y="838" type="line"/>
      <point x="492" y="838" type="line"/>
      <point x="492" y="501" type="line"/>
      <point x="763" y="501" type="line"/>
      <point x="763" y="1062" type="line"/>
      <point x="134" y="1062" type="line"/>
      <point x="98" y="591" type="line" smooth="yes"/>
      <point x="75" y="301"/>
      <point x="29" y="193"/>
      <point x="-35" y="135" type="curve"/>
    </contour>
    <contour>
      <point x="820" y="-34" type="curve" smooth="yes"/>
      <point x="1038" y="-34"/>
      <point x="1192" y="134"/>
      <point x="1192" y="512" type="curve" smooth="yes"/>
      <point x="1192" y="600"/>
      <point x="1188" y="680"/>
      <point x="1180" y="758" type="curve"/>
      <point x="906" y="758" type="line"/>
      <point x="914" y="678"/>
      <point x="918" y="594"/>
      <point x="918" y="510" type="curve" smooth="yes"/>
      <point x="918" y="272"/>
      <point x="887" y="178"/>
      <point x="824" y="178" type="curve" smooth="yes"/>
      <point x="787" y="178"/>
      <point x="763" y="207"/>
      <point x="763" y="262" type="curve" smooth="yes"/>
      <point x="763" y="723" type="line"/>
      <point x="492" y="632" type="line"/>
      <point x="492" y="319" type="line" smooth="yes"/>
      <point x="492" y="90"/>
      <point x="633" y="-34"/>
    </contour>
  </outline>
</glyph>
<glyph name="Lha-cy" format="2">
  <advance width="1200"/>
  <unicode hex="0514"/>
  <anchor x="600" y="0" name="bottom"/>
  <anchor x="600" y="1386" name="top"/>
  <outline>
    <contour>
      <point x="432" y="1386" type="line"/>
      <point x="630" y="736" type="line"/>
      <point x="413" y="0" type="line"/>
      <point x="669" y="0" type="line"/>
      <point x="810" y="548" type="line"/>
      <point x="952" y="0" type="line"/>
      <point x="1212" y="0" type="line"/>
      <point x="972" y="750" type="line"/>
      <point x="1192" y="1386" type="line"/>
      <point x="936" y="1386" type="line"/>
      <point x="812" y="922" type="line"/>
      <point x="691" y="1386" type="line"/>
    </contour>
    <contour>
      <point x="171" y="1386" type="line"/>
      <point x="142" y="906" type="line" smooth="yes"/>
      <point x="108" y="339"/>
      <point x="64" y="232"/>
      <point x="-35" y="149" type="curve"/>
      <point x="81" y="-40" type="line"/>
      <point x="285" y="98"/>
      <point x="349" y="229"/>
      <point x="381" y="833" type="curve" smooth="yes"/>
      <point x="399" y="1171" type="line"/>
      <point x="710" y="1171" type="line"/>
      <point x="671" y="1386" type="line"/>
    </contour>
  </outline>
</glyph>
<glyph name="rha-cy" format="2">
  <advance width="1200"/>
  <unicode hex="0517"/>
  <anchor x="600" y="-443" name="bottom"/>
  <anchor x="600" y="1062" name="top"/>
  <outline>
    <contour>
      <point x="1193" y="1062" type="line"/>
      <point x="920" y="1062" type="line"/>
      <point x="753" y="606" type="line"/>
      <point x="753" y="425" type="line"/>
      <point x="928" y="0" type="line"/>
      <point x="1210" y="0" type="line"/>
      <point x="965" y="544" type="line"/>
    </contour>
    <contour>
      <point x="498" y="1097" type="curve" smooth="yes"/>
      <point x="411" y="1097"/>
      <point x="339" y="1057"/>
      <point x="268" y="963" type="curve"/>
      <point x="254" y="1062" type="line"/>
      <point x="32" y="1062" type="line"/>
      <point x="32" y="-443" type="line"/>
      <point x="289" y="-416" type="line"/>
      <point x="289" y="57" type="line"/>
      <point x="345" y="-5"/>
      <point x="397" y="-34"/>
      <point x="462" y="-34" type="curve" smooth="yes"/>
      <point x="640" y="-34"/>
      <point x="771" y="186"/>
      <point x="771" y="534" type="curve" smooth="yes"/>
      <point x="771" y="899"/>
      <point x="675" y="1097"/>
    </contour>
    <contour>
      <point x="413" y="874" type="curve" smooth="yes"/>
      <point x="479" y="874"/>
      <point x="503" y="805"/>
      <point x="503" y="530" type="curve" smooth="yes"/>
      <point x="503" y="281"/>
      <point x="470" y="188"/>
      <point x="395" y="188" type="curve" smooth="yes"/>
      <point x="355" y="188"/>
      <point x="322" y="209"/>
      <point x="289" y="244" type="curve"/>
      <point x="289" y="802" type="line"/>
      <point x="326" y="843"/>
      <point x="366" y="874"/>
    </contour>
  </outline>
</glyph>
<glyph name="yae-cy" format="2">
  <advance width="1200"/>
  <unicode hex="0519"/>
  <anchor x="600" y="0" name="bottom"/>
  <anchor x="600" y="1062" name="top"/>
  <outline>
    <contour>
      <point x="705" y="875" type="line"/>
      <point x="765" y="1062" type="line"/>
      <point x="432" y="1062" type="line"/>
      <point x="146" y="1062"/>
      <point x="9" y="899"/>
      <point x="9" y="716" type="curve" smooth="yes"/>
      <point x="9" y="566"/>
      <point x="79" y="476"/>
      <point x="211" y="418" type="curve"/>
      <point x="371" y="371" type="line"/>
      <point x="514" y="371" type="line"/>
      <point x="514" y="557" type="line"/>
      <point x="422" y="557" type="line" smooth="yes"/>
      <point x="333" y="557"/>
      <point x="274" y="608"/>
      <point x="274" y="716" type="curve" smooth="yes"/>
      <point x="274" y="817"/>
      <point x="333" y="875"/>
      <point x="442" y="875" type="curve" smooth="yes"/>
    </contour>
    <contour>
      <point x="0" y="0" type="line"/>
      <point x="279" y="0" type="line"/>
      <point x="435" y="399" type="line"/>
      <point x="209" y="466" type="line"/>
    </contour>
    <contour>
      <point x="731" y="439" type="curve"/>
      <point x="1194" y="439" type="line"/>
      <point x="1198" y="471"/>
      <point x="1200" y="516"/>
      <point x="1200" y="552" type="curve" smooth="yes"/>
      <point x="1200" y="894"/>
      <point x="1068" y="1097"/>
      <point x="842" y="1097" type="curve" smooth="yes"/>
      <point x="579" y="1097"/>
      <point x="458" y="844"/>
      <point x="458" y="524" type="curve" smooth="yes"/>
      <point x="458" y="194"/>
      <point x="602" y="-34"/>
      <point x="858" y="-34" type="curve" smooth="yes"/>
      <point x="992" y="-34"/>
      <point x="1099" y="27"/>
      <point x="1176" y="102" type="curve"/>
      <point x="1050" y="256" type="line"/>
      <point x="983" y="204"/>
      <point x="939" y="186"/>
      <point x="876" y="186" type="curve" smooth="yes"/>
      <point x="787" y="186"/>
      <point x="736" y="259"/>
    </contour>
    <contour>
      <point x="840" y="895" type="curve" smooth="yes"/>
      <point x="906" y="895"/>
      <point x="938" y="806"/>
      <point x="940" y="619" type="curve"/>
      <point x="728" y="619" type="line"/>
      <point x="740" y="816"/>
      <point x="773" y="895"/>
    </contour>
  </outline>
</glyph>
<glyph name="Enmiddlehook-cy" format="2">
  <advance width="1200"/>
  <unicode hex="0522"/>
  <anchor x="600" y="-443" name="bottom"/>
  <anchor x="600" y="1386" name="top"/>
  <outline>
    <contour>
      <point x="917" y="921" type="curve" smooth="yes"/>
      <point x="791" y="921"/>
      <point x="717" y="846"/>
      <point x="669" y="773" type="curve"/>
      <point x="688" y="612" type="line"/>
      <point x="724" y="659"/>
      <point x="763" y="703"/>
      <point x="821" y="703" type="curve" smooth="yes"/>
      <point x="870" y="703"/>
      <point x="897" y="667"/>
      <point x="897" y="602" type="curve" smooth="yes"/>
      <point x="897" y="0" type="line"/>
      <point x="1163" y="0" type="line"/>
      <point x="1163" y="623" type="line" smooth="yes"/>
      <point x="1163" y="799"/>
      <point x="1074" y="921"/>
    </contour>
    <contour>
      <point x="824" y="-453" type="curve" smooth="yes"/>
      <point x="1023" y="-453"/>
      <point x="1163" y="-314"/>
      <point x="1163" y="-91" type="curve" smooth="yes"/>
      <point x="1163" y="2" type="line"/>
      <point x="897" y="2" type="line"/>
      <point x="897" y="-111" type="line" smooth="yes"/>
      <point x="897" y="-209"/>
      <point x="859" y="-245"/>
      <point x="793" y="-245" type="curve" smooth="yes"/>
      <point x="738" y="-245"/>
      <point x="698" y="-225"/>
      <point x="664" y="-203" type="curve"/>
      <point x="553" y="-364" type="line"/>
      <point x="623" y="-415"/>
      <point x="700" y="-453"/>
    </contour>
    <contour>
      <point x="477" y="0" type="line"/>
      <point x="743" y="0" type="line"/>
      <point x="743" y="1386" type="line"/>
      <point x="477" y="1386" type="line"/>
      <point x="477" y="814" type="line"/>
      <point x="314" y="814" type="line"/>
      <point x="314" y="1386" type="line"/>
      <point x="48" y="1386" type="line"/>
      <point x="48" y="0" type="line"/>
      <point x="314" y="0" type="line"/>
      <point x="314" y="580" type="line"/>
      <point x="477" y="580" type="line"/>
    </contour>
  </outline>
</glyph>
<glyph name="enmiddlehook-cy" format="2">
  <advance width="1200"/>
  <unicode hex="0523"/>
  <anchor x="600" y="-443" name="bottom"/>
  <anchor x="600" y="1062" name="top"/>
  <outline>
    <contour>
      <point x="493" y="0" type="line"/>
      <point x="765" y="0" type="line"/>
      <point x="765" y="1062" type="line"/>
      <point x="493" y="1062" type="line"/>
      <point x="493" y="651" type="line"/>
      <point x="308" y="651" type="line"/>
      <point x="308" y="1062" type="line"/>
      <point x="37" y="1062" type="line"/>
      <point x="37" y="0" type="line"/>
      <point x="308" y="0" type="line"/>
      <point x="308" y="427" type="line"/>
      <point x="493" y="427" type="line"/>
    </contour>
    <contour>
      <point x="861" y="-453" type="curve" smooth="yes"/>
      <point x="1066" y="-453"/>
      <point x="1210" y="-316"/>
      <point x="1210" y="-71" type="curve" smooth="yes"/>
      <point x="1210" y="2" type="line"/>
      <point x="934" y="2" type="line"/>
      <point x="934" y="-120" type="line" smooth="yes"/>
      <point x="934" y="-205"/>
      <point x="896" y="-241"/>
      <point x="835" y="-241" type="curve" smooth="yes"/>
      <point x="773" y="-241"/>
      <point x="743" y="-223"/>
      <point x="707" y="-203" type="curve"/>
      <point x="596" y="-364" type="line"/>
      <point x="665" y="-415"/>
      <point x="743" y="-453"/>
    </contour>
    <contour>
      <point x="934" y="0" type="line"/>
      <point x="1210" y="0" type="line"/>
      <point x="1210" y="377" type="line" smooth="yes"/>
      <point x="1210" y="576"/>
      <point x="1100" y="692"/>
      <point x="948" y="692" type="curve" smooth="yes"/>
      <point x="819" y="692"/>
      <point x="745" y="632"/>
      <point x="671" y="536" type="curve"/>
      <point x="691" y="379" type="line"/>
      <point x="747" y="440"/>
      <point x="792" y="474"/>
      <point x="853" y="474" type="curve" smooth="yes"/>
      <point x="906" y="474"/>
      <point x="934" y="444"/>
      <point x="934" y="379" type="curve" smooth="yes"/>
    </contour>
  </outline>
</glyph>
<glyph name="Shhadescender-cy" format="2">
  <advance width="1200"/>
  <unicode hex="0526"/>
  <outline>
    <contour>
      <point x="705" y="941" type="curve" smooth="yes"/>
      <point x="594" y="941"/>
      <point x="490" y="892"/>
      <point x="408" y="822" type="curve"/>
      <point x="413" y="605" type="line"/>
      <point x="458" y="653"/>
      <point x="523" y="697"/>
      <point x="613" y="697" type="curve" smooth="yes"/>
      <point x="729" y="697"/>
      <point x="783" y="634"/>
      <point x="783" y="460" type="curve" smooth="yes"/>
      <point x="783" y="0" type="line"/>
      <point x="1111" y="0" type="line"/>
      <point x="1111" y="462" type="line" smooth="yes"/>
      <point x="1111" y="771"/>
      <point x="967" y="941"/>
    </contour>
    <contour>
      <point x="432" y="1386" type="line"/>
      <point x="104" y="1386" type="line"/>
      <point x="104" y="0" type="line"/>
      <point x="432" y="0" type="line"/>
    </contour>
    <component base="descStraight-cy.case" xOffset="426"/>
  </outline>
</glyph>
<glyph name="Dzzhe-cy" format="2">
  <advance width="1200"/>
  <unicode hex="052A"/>
  <anchor x="600" y="-443" name="bottom"/>
  <anchor x="600" y="1386" name="top"/>
  <outline>
    <contour>
      <point x="-30" y="-349" type="line"/>
      <point x="125" y="-349" type="line"/>
      <point x="153" y="0" type="line"/>
      <point x="196" y="0" type="line"/>
      <point x="143" y="194" type="line"/>
      <point x="-30" y="194" type="line"/>
    </contour>
    <contour>
      <point x="557" y="-349" type="line"/>
      <point x="713" y="-349" type="line"/>
      <point x="713" y="194" type="line"/>
      <point x="542" y="194" type="line"/>
      <point x="491" y="0" type="line"/>
      <point x="533" y="0" type="line"/>
    </contour>
    <contour>
      <point x="557" y="0" type="line"/>
      <point x="835" y="0" type="line"/>
      <point x="835" y="194" type="line"/>
      <point x="556" y="194" type="line"/>
    </contour>
    <contour>
      <point x="46" y="0" type="line"/>
      <point x="588" y="0" type="line"/>
      <point x="588" y="1386" type="line"/>
      <point x="163" y="1386" type="line"/>
      <point x="137" y="948" type="line" smooth="yes"/>
      <point x="111" y="478"/>
      <point x="82" y="299"/>
      <point x="28" y="194" type="curve"/>
    </contour>
    <contour>
      <point x="186" y="194" type="line"/>
      <point x="270" y="332"/>
      <point x="304" y="478"/>
      <point x="322" y="936" type="curve" smooth="yes"/>
      <point x="334" y="1213" type="line"/>
      <point x="402" y="1213" type="line"/>
      <point x="402" y="194" type="line"/>
    </contour>
    <contour>
      <point x="455" y="640" type="line"/>
      <point x="671" y="640" type="line"/>
      <point x="671" y="0" type="line"/>
      <point x="852" y="0" type="line"/>
      <point x="852" y="640" type="line"/>
      <point x="902" y="640" type="line"/>
      <point x="1027" y="0" type="line"/>
      <point x="1232" y="0" type="line"/>
      <point x="1071" y="757" type="line"/>
      <point x="1213" y="1386" type="line"/>
      <point x="1020" y="1386" type="line"/>
      <point x="900" y="804" type="line"/>
      <point x="852" y="804" type="line"/>
      <point x="852" y="1386" type="line"/>
      <point x="671" y="1386" type="line"/>
      <point x="671" y="804" type="line"/>
      <point x="455" y="804" type="line"/>
    </contour>
  </outline>
</glyph>
<glyph name="dzzhe-cy" format="2">
  <advance width="1200"/>
  <unicode hex="052B"/>
  <anchor x="600" y="-443" name="bottom"/>
  <anchor x="600" y="1062" name="top"/>
  <outline>
    <contour>
      <point x="-32" y="-349" type="line"/>
      <point x="131" y="-349" type="line"/>
      <point x="158" y="0" type="line"/>
      <point x="212" y="0" type="line"/>
      <point x="241" y="195" type="line"/>
      <point x="-32" y="195" type="line"/>
    </contour>
    <contour>
      <point x="555" y="-349" type="line"/>
      <point x="718" y="-349" type="line"/>
      <point x="718" y="195" type="line"/>
      <point x="443" y="195" type="line"/>
      <point x="472" y="0" type="line"/>
      <point x="527" y="0" type="line"/>
    </contour>
    <contour>
      <point x="207" y="195" type="line"/>
      <point x="278" y="292"/>
      <point x="311" y="396"/>
      <point x="323" y="733" type="curve" smooth="yes"/>
      <point x="330" y="900" type="line"/>
      <point x="410" y="900" type="line"/>
      <point x="410" y="195" type="line"/>
    </contour>
    <contour>
      <point x="28" y="0" type="line"/>
      <point x="595" y="0" type="line"/>
      <point x="595" y="1062" type="line"/>
      <point x="141" y="1062" type="line"/>
      <point x="117" y="720" type="line" smooth="yes"/>
      <point x="94" y="394"/>
      <point x="76" y="283"/>
      <point x="28" y="195" type="curve"/>
    </contour>
    <contour>
      <point x="538" y="465" type="line"/>
      <point x="686" y="465" type="line"/>
      <point x="686" y="0" type="line"/>
      <point x="863" y="0" type="line"/>
      <point x="863" y="465" type="line"/>
      <point x="907" y="465" type="line"/>
      <point x="1033" y="0" type="line"/>
      <point x="1232" y="0" type="line"/>
      <point x="1064" y="570" type="line"/>
      <point x="1225" y="1062" type="line"/>
      <point x="1034" y="1062" type="line"/>
      <point x="911" y="640" type="line"/>
      <point x="863" y="640" type="line"/>
      <point x="863" y="1062" type="line"/>
      <point x="686" y="1062" type="line"/>
      <point x="686" y="640" type="line"/>
      <point x="536" y="640" type="line"/>
    </contour>
  </outline>
</glyph>
<glyph name="eldescender-cy" format="2">
  <advance width="1200"/>
  <unicode hex="052F"/>
  <outline>
    <contour>
      <point x="1015" y="1062" type="line"/>
      <point x="234" y="1062" type="line"/>
      <point x="206" y="688" type="line" smooth="yes"/>
      <point x="175" y="301"/>
      <point x="129" y="232"/>
      <point x="27" y="160" type="curve"/>
      <point x="160" y="-40" type="line"/>
      <point x="408" y="82"/>
      <point x="481" y="215"/>
      <point x="506" y="700" type="curve" smooth="yes"/>
      <point x="512" y="830" type="line"/>
      <point x="699" y="830" type="line"/>
      <point x="699" y="0" type="line"/>
      <point x="1015" y="0" type="line"/>
    </contour>
    <component base="descStraight-cy" xOffset="393"/>
  </outline>
</glyph>
<glyph name="quoteleft" format="2">
  <advance width="1200"/>
  <unicode hex="2018"/>
  <outline>
    <contour>
      <point x="783" y="1073" type="curve" smooth="yes"/>
      <point x="783" y="1140"/>
      <point x="753" y="1190"/>
      <point x="705" y="1224" type="curve"/>
      <point x="791" y="1578" type="line"/>
      <point x="613" y="1578" type="line"/>
      <point x="470" y="1281" type="line" smooth="yes"/>
      <point x="422" y="1186"/>
      <point x="407" y="1130"/>
      <point x="407" y="1073" type="curve" smooth="yes"/>
      <point x="407" y="971"/>
      <point x="486" y="892"/>
      <point x="594" y="892" type="curve" smooth="yes"/>
      <point x="701" y="892"/>
      <point x="783" y="971"/>
    </contour>
  </outline>
</glyph>
<glyph name="quoteright" format="2">
  <advance width="1200"/>
  <unicode hex="2019"/>
  <outline>
    <contour>
      <point x="415" y="1397" type="curve" smooth="yes"/>
      <point x="415" y="1330"/>
      <point x="445" y="1280"/>
      <point x="493" y="1246" type="curve"/>
      <point x="407" y="892" type="line"/>
      <point x="585" y="892" type="line"/>
      <point x="728" y="1189" type="line" smooth="yes"/>
      <point x="776" y="1284"/>
      <point x="791" y="1339"/>
      <point x="791" y="1397" type="curve" smooth="yes"/>
      <point x="791" y="1498"/>
      <point x="712" y="1578"/>
      <point x="604" y="1578" type="curve" smooth="yes"/>
      <point x="497" y="1578"/>
      <point x="415" y="1498"/>
    </contour>
  </outline>
</glyph>
<glyph name="quotedblbase" format="2">
  <advance width="1200"/>
  <unicode hex="201E"/>
  <outline>
    <contour>
      <point x="184" y="141" type="curve" smooth="yes"/>
      <point x="184" y="74"/>
      <point x="215" y="24"/>
      <point x="263" y="-10" type="curve"/>
      <point x="175" y="-364" type="line"/>
      <point x="354" y="-364" type="line"/>
      <point x="496" y="-67" type="line" smooth="yes"/>
      <point x="544" y="28"/>
      <point x="560" y="82"/>
      <point x="560" y="141" type="curve" smooth="yes"/>
      <point x="560" y="243"/>
      <point x="480" y="322"/>
      <point x="373" y="322" type="curve" smooth="yes"/>
      <point x="267" y="322"/>
      <point x="184" y="243"/>
    </contour>
    <contour>
      <point x="649" y="141" type="curve" smooth="yes"/>
      <point x="649" y="74"/>
      <point x="680" y="24"/>
      <point x="728" y="-10" type="curve"/>
      <point x="640" y="-364" type="line"/>
      <point x="819" y="-364" type="line"/>
      <point x="962" y="-67" type="line" smooth="yes"/>
      <point x="1009" y="28"/>
      <point x="1025" y="82"/>
      <point x="1025" y="141" type="curve" smooth="yes"/>
      <point x="1025" y="243"/>
      <point x="945" y="322"/>
      <point x="838" y="322" type="curve" smooth="yes"/>
      <point x="732" y="322"/>
      <point x="649" y="243"/>
    </contour>
  </outline>
</glyph>
<glyph name="perthousand" format="2">
  <advance width="1200"/>
  <unicode hex="2030"/>
  <outline>
    <contour>
      <point x="1135" y="1044" type="line"/>
      <point x="28" y="681" type="line"/>
      <point x="74" y="544" type="line"/>
      <point x="1181" y="905" type="line"/>
    </contour>
    <contour>
      <point x="346" y="396" type="curve" smooth="yes"/>
      <point x="403" y="396"/>
      <point x="412" y="346"/>
      <point x="412" y="265" type="curve" smooth="yes"/>
      <point x="412" y="185"/>
      <point x="403" y="132"/>
      <point x="346" y="132" type="curve" smooth="yes"/>
      <point x="289" y="132"/>
      <point x="277" y="187"/>
      <point x="277" y="265" type="curve" smooth="yes"/>
      <point x="277" y="342"/>
      <point x="287" y="396"/>
    </contour>
    <contour>
      <point x="346" y="549" type="curve" smooth="yes"/>
      <point x="177" y="549"/>
      <point x="76" y="430"/>
      <point x="76" y="265" type="curve" smooth="yes"/>
      <point x="76" y="88"/>
      <point x="177" y="-18"/>
      <point x="346" y="-18" type="curve" smooth="yes"/>
      <point x="510" y="-18"/>
      <point x="612" y="88"/>
      <point x="612" y="265" type="curve" smooth="yes"/>
      <point x="612" y="437"/>
      <point x="510" y="549"/>
    </contour>
    <contour>
      <point x="916" y="396" type="curve" smooth="yes"/>
      <point x="973" y="396"/>
      <point x="981" y="346"/>
      <point x="981" y="265" type="curve" smooth="yes"/>
      <point x="981" y="185"/>
      <point x="973" y="132"/>
      <point x="916" y="132" type="curve" smooth="yes"/>
      <point x="858" y="132"/>
      <point x="848" y="187"/>
      <point x="848" y="265" type="curve" smooth="yes"/>
      <point x="848" y="342"/>
      <point x="856" y="396"/>
    </contour>
    <contour>
      <point x="916" y="549" type="curve" smooth="yes"/>
      <point x="748" y="549"/>
      <point x="648" y="430"/>
      <point x="648" y="265" type="curve" smooth="yes"/>
      <point x="648" y="88"/>
      <point x="748" y="-18"/>
      <point x="916" y="-18" type="curve" smooth="yes"/>
      <point x="1081" y="-18"/>
      <point x="1181" y="88"/>
      <point x="1181" y="265" type="curve" smooth="yes"/>
      <point x="1181" y="437"/>
      <point x="1081" y="549"/>
    </contour>
    <contour>
      <point x="346" y="1269" type="curve" smooth="yes"/>
      <point x="403" y="1269"/>
      <point x="412" y="1216"/>
      <point x="412" y="1136" type="curve" smooth="yes"/>
      <point x="412" y="1056"/>
      <point x="403" y="1003"/>
      <point x="346" y="1003" type="curve" smooth="yes"/>
      <point x="289" y="1003"/>
      <point x="279" y="1058"/>
      <point x="279" y="1136" type="curve" smooth="yes"/>
      <point x="279" y="1214"/>
      <point x="287" y="1269"/>
    </contour>
    <contour>
      <point x="346" y="1421" type="curve" smooth="yes"/>
      <point x="179" y="1421"/>
      <point x="76" y="1302"/>
      <point x="76" y="1136" type="curve" smooth="yes"/>
      <point x="76" y="958"/>
      <point x="179" y="852"/>
      <point x="346" y="852" type="curve" smooth="yes"/>
      <point x="510" y="852"/>
      <point x="612" y="958"/>
      <point x="612" y="1136" type="curve" smooth="yes"/>
      <point x="612" y="1308"/>
      <point x="510" y="1421"/>
    </contour>
  </outline>
</glyph>
<glyph name="guilsinglleft" format="2">
  <advance width="1200"/>
  <unicode hex="2039"/>
  <outline>
    <contour>
      <point x="886" y="162" type="line"/>
      <point x="630" y="574" type="line"/>
      <point x="886" y="984" type="line"/>
      <point x="691" y="1113" type="line"/>
      <point x="314" y="673" type="line"/>
      <point x="314" y="473" type="line"/>
      <point x="691" y="34" type="line"/>
    </contour>
  </outline>
</glyph>
<glyph name="fraction" format="2">
  <advance width="1200"/>
  <unicode hex="2044"/>
  <outline>
    <contour>
      <point x="-492" y="350" type="line"/>
      <point x="576" y="862" type="line"/>
      <point x="494" y="1013" type="line"/>
      <point x="-576" y="501" type="line"/>
    </contour>
  </outline>
</glyph>
<glyph name="rupeeIndian" format="2">
  <advance width="1200"/>
  <unicode hex="20B9"/>
  <outline>
    <contour>
      <point x="141" y="511" type="line"/>
      <point x="568" y="511" type="line"/>
      <point x="841" y="596"/>
      <point x="962" y="722"/>
      <point x="962" y="916" type="curve" smooth="yes"/>
      <point x="962" y="1078"/>
      <point x="859" y="1229"/>
      <point x="673" y="1245" type="curve"/>
      <point x="367" y="1386" type="line"/>
      <point x="141" y="1386" type="line"/>
      <point x="324" y="1197" type="line"/>
      <point x="376" y="1197" type="line" smooth="yes"/>
      <point x="521" y="1197"/>
      <point x="644" y="1143"/>
      <point x="644" y="962" type="curve" smooth="yes"/>
      <point x="644" y="764"/>
      <point x="530" y="700"/>
      <point x="377" y="700" type="curve" smooth="yes"/>
      <point x="141" y="700" type="line"/>
    </contour>
    <contour>
      <point x="141" y="876" type="line"/>
      <point x="1076" y="876" type="line"/>
      <point x="1076" y="1041" type="line"/>
      <point x="141" y="1041" type="line"/>
    </contour>
    <contour>
      <point x="141" y="1198" type="line"/>
      <point x="716" y="1198" type="line"/>
      <point x="769" y="1217" type="line"/>
      <point x="1076" y="1217" type="line"/>
      <point x="1076" y="1386" type="line"/>
      <point x="141" y="1386" type="line"/>
    </contour>
    <contour>
      <point x="689" y="610" type="line"/>
      <point x="390" y="555" type="line"/>
      <point x="690" y="0" type="line"/>
      <point x="1052" y="0" type="line"/>
    </contour>
  </outline>
</glyph>
<glyph name="numero" format="2">
  <advance width="1200"/>
  <unicode hex="2116"/>
  <outline>
    <contour>
      <point x="655" y="1386" type="line"/>
      <point x="425" y="1386" type="line"/>
      <point x="425" y="894" type="line" smooth="yes"/>
      <point x="425" y="664"/>
      <point x="461" y="422"/>
      <point x="484" y="305" type="curve"/>
      <point x="476" y="305" type="line"/>
      <point x="274" y="1386" type="line"/>
      <point x="1" y="1386" type="line"/>
      <point x="1" y="0" type="line"/>
      <point x="233" y="0" type="line"/>
      <point x="233" y="484" type="line" smooth="yes"/>
      <point x="233" y="707"/>
      <point x="191" y="977"/>
      <point x="172" y="1079" type="curve"/>
      <point x="180" y="1079" type="line"/>
      <point x="394" y="0" type="line"/>
      <point x="655" y="0" type="line"/>
    </contour>
    <contour>
      <point x="1189" y="216" type="line"/>
      <point x="701" y="216" type="line"/>
      <point x="701" y="0" type="line"/>
      <point x="1189" y="0" type="line"/>
    </contour>
    <contour>
      <point x="945" y="1402" type="curve" smooth="yes"/>
      <point x="739" y="1402"/>
      <point x="691" y="1206"/>
      <point x="691" y="948" type="curve" smooth="yes"/>
      <point x="691" y="676"/>
      <point x="737" y="493"/>
      <point x="945" y="493" type="curve" smooth="yes"/>
      <point x="1137" y="493"/>
      <point x="1199" y="679"/>
      <point x="1199" y="948" type="curve" smooth="yes"/>
      <point x="1199" y="1209"/>
      <point x="1151" y="1402"/>
    </contour>
    <contour>
      <point x="945" y="1206" type="curve" smooth="yes"/>
      <point x="992" y="1206"/>
      <point x="1000" y="1133"/>
      <point x="1000" y="948" type="curve" smooth="yes"/>
      <point x="1000" y="761"/>
      <point x="990" y="690"/>
      <point x="945" y="690" type="curve" smooth="yes"/>
      <point x="898" y="690"/>
      <point x="890" y="761"/>
      <point x="890" y="948" type="curve" smooth="yes"/>
      <point x="890" y="1133"/>
      <point x="898" y="1206"/>
    </contour>
  </outline>
</glyph>
<glyph name="radical" format="2">
  <advance width="1200"/>
  <unicode hex="221A"/>
  <outline>
    <contour>
      <point x="1448" y="1748" type="line"/>
      <point x="836" y="1748" type="line"/>
      <point x="455" y="279" type="line"/>
      <point x="241" y="1011" type="line"/>
      <point x="-51" y="922" type="line"/>
      <point x="285" y="0" type="line"/>
      <point x="644" y="0" type="line"/>
      <point x="1069" y="1508" type="line"/>
      <point x="1448" y="1508" type="line"/>
    </contour>
  </outline>
</glyph>
<glyph name="intersection" format="2">
  <advance width="1200"/>
  <unicode hex="2229"/>
  <outline>
    <contour>
      <point x="600" y="1236" type="curve" smooth="yes"/>
      <point x="301" y="1236"/>
      <point x="58" y="993"/>
      <point x="58" y="694" type="curve" smooth="yes"/>
      <point x="58" y="2" type="line"/>
      <point x="304" y="2" type="line"/>
      <point x="304" y="694" type="line" smooth="yes"/>
      <point x="304" y="858"/>
      <point x="436" y="990"/>
      <point x="600" y="990" type="curve" smooth="yes"/>
      <point x="764" y="990"/>
      <point x="896" y="858"/>
      <point x="896" y="694" type="curve" smooth="yes"/>
      <point x="896" y="2" type="line"/>
      <point x="1142" y="2" type="line"/>
      <point x="1142" y="694" type="line" smooth="yes"/>
      <point x="1142" y="993"/>
      <point x="899" y="1236"/>
    </contour>
  </outline>
</glyph>
<glyph name="integral" format="2">
  <advance width="1200"/>
  <unicode hex="222B"/>
  <outline>
    <contour>
      <point x="823" y="1723" type="curve" smooth="yes"/>
      <point x="562" y="1723"/>
      <point x="448" y="1579"/>
      <point x="448" y="1338" type="curve" smooth="yes"/>
      <point x="448" y="-74" type="line" smooth="yes"/>
      <point x="448" y="-170"/>
      <point x="417" y="-210"/>
      <point x="329" y="-210" type="curve" smooth="yes"/>
      <point x="277" y="-210"/>
      <point x="227" y="-200"/>
      <point x="161" y="-170" type="curve"/>
      <point x="76" y="-376" type="line"/>
      <point x="156" y="-416"/>
      <point x="245" y="-443"/>
      <point x="368" y="-443" type="curve" smooth="yes"/>
      <point x="593" y="-443"/>
      <point x="759" y="-322"/>
      <point x="759" y="-62" type="curve" smooth="yes"/>
      <point x="759" y="1350" type="line" smooth="yes"/>
      <point x="759" y="1448"/>
      <point x="791" y="1492"/>
      <point x="870" y="1492" type="curve" smooth="yes"/>
      <point x="922" y="1492"/>
      <point x="975" y="1480"/>
      <point x="1039" y="1452" type="curve"/>
      <point x="1124" y="1658" type="line"/>
      <point x="1040" y="1696"/>
      <point x="947" y="1723"/>
    </contour>
  </outline>
</glyph>
<glyph name="approxequal" format="2">
  <advance width="1200"/>
  <unicode hex="2248"/>
  <outline>
    <contour>
      <point x="438" y="605" type="curve" smooth="yes"/>
      <point x="271" y="605"/>
      <point x="179" y="478"/>
      <point x="118" y="355" type="curve"/>
      <point x="292" y="262" type="line"/>
      <point x="324" y="322"/>
      <point x="353" y="368"/>
      <point x="424" y="368" type="curve" smooth="yes"/>
      <point x="522" y="368"/>
      <point x="582" y="252"/>
      <point x="762" y="252" type="curve" smooth="yes"/>
      <point x="929" y="252"/>
      <point x="1021" y="377"/>
      <point x="1082" y="500" type="curve"/>
      <point x="908" y="593" type="line"/>
      <point x="876" y="533"/>
      <point x="847" y="487"/>
      <point x="776" y="487" type="curve" smooth="yes"/>
      <point x="678" y="487"/>
      <point x="618" y="605"/>
    </contour>
    <contour>
      <point x="438" y="989" type="curve" smooth="yes"/>
      <point x="271" y="989"/>
      <point x="179" y="861"/>
      <point x="118" y="739" type="curve"/>
      <point x="292" y="648" type="line"/>
      <point x="324" y="707"/>
      <point x="353" y="753"/>
      <point x="424" y="753" type="curve" smooth="yes"/>
      <point x="522" y="753"/>
      <point x="582" y="638"/>
      <point x="762" y="638" type="curve" smooth="yes"/>
      <point x="929" y="638"/>
      <point x="1021" y="763"/>
      <point x="1082" y="886" type="curve"/>
      <point x="908" y="979" type="line"/>
      <point x="876" y="919"/>
      <point x="847" y="871"/>
      <point x="776" y="871" type="curve" smooth="yes"/>
      <point x="678" y="871"/>
      <point x="618" y="989"/>
    </contour>
  </outline>
</glyph>
<glyph name="greaterequal" format="2">
  <advance width="1200"/>
  <unicode hex="2265"/>
  <outline>
    <contour>
      <point x="255" y="1295" type="line"/>
      <point x="152" y="1073" type="line"/>
      <point x="778" y="820" type="line"/>
      <point x="152" y="582" type="line"/>
      <point x="255" y="352" type="line"/>
      <point x="1046" y="680" type="line"/>
      <point x="1046" y="959" type="line"/>
    </contour>
    <contour>
      <point x="1041" y="240" type="line"/>
      <point x="172" y="240" type="line"/>
      <point x="172" y="0" type="line"/>
      <point x="1041" y="0" type="line"/>
    </contour>
  </outline>
</glyph>
<glyph name="revlogicalnot" format="2">
  <advance width="1200"/>
  <unicode hex="2310"/>
  <outline>
    <contour>
      <point x="1034" y="758" type="line"/>
      <point x="166" y="758" type="line"/>
      <point x="166" y="208" type="line"/>
      <point x="427" y="208" type="line"/>
      <point x="427" y="515" type="line"/>
      <point x="1034" y="515" type="line"/>
    </contour>
  </outline>
</glyph>
<glyph name="integraltp" format="2">
  <advance width="1200"/>
  <unicode hex="2320"/>
  <outline>
    <contour>
      <point x="823" y="1723" type="curve" smooth="yes"/>
      <point x="562" y="1723"/>
      <point x="448" y="1579"/>
      <point x="448" y="1338" type="curve"/>
      <point x="448" y="-1000" type="line"/>
      <point x="759" y="-1000" type="line"/>
      <point x="759" y="1350" type="line"/>
      <point x="759" y="1448"/>
      <point x="791" y="1492"/>
      <point x="870" y="1492" type="curve" smooth="yes"/>
      <point x="922" y="1492"/>
      <point x="975" y="1480"/>
      <point x="1039" y="1452" type="curve"/>
      <point x="1124" y="1658" type="line"/>
      <point x="1040" y="1696"/>
      <point x="947" y="1723"/>
    </contour>
  </outline>
</glyph>
<glyph name="integralbt" format="2">
  <advance width="1200"/>
  <unicode hex="2321"/>
  <outline>
    <contour>
      <point x="759" y="2000" type="line"/>
      <point x="448" y="2000" type="line"/>
      <point x="448" y="-74" type="line"/>
      <point x="448" y="-170"/>
      <point x="417" y="-210"/>
      <point x="329" y="-210" type="curve" smooth="yes"/>
      <point x="277" y="-210"/>
      <point x="227" y="-200"/>
      <point x="161" y="-170" type="curve"/>
      <point x="76" y="-376" type="line"/>
      <point x="156" y="-416"/>
      <point x="245" y="-443"/>
      <point x="368" y="-443" type="curve" smooth="yes"/>
      <point x="593" y="-443"/>
      <point x="759" y="-322"/>
      <point x="759" y="-62" type="curve"/>
    </contour>
  </outline>
</glyph>
<glyph name="keyboard" format="2">
  <advance width="1200"/>
  <unicode hex="2328"/>
  <outline>
    <contour>
      <point x="1310" y="1266" type="curve" smooth="yes"/>
      <point x="-50" y="1266" type="line" smooth="yes"/>
      <point x="-110" y="1266"/>
      <point x="-150" y="1226"/>
      <point x="-150" y="1166" type="curve" smooth="yes"/>
      <point x="-150" y="176" type="line" smooth="yes"/>
      <point x="-150" y="116"/>
      <point x="-110" y="76"/>
      <point x="-50" y="76" type="curve" smooth="yes"/>
      <point x="1310" y="76" type="line"/>
      <point x="1370" y="76"/>
      <point x="1410" y="116"/>
      <point x="1410" y="176" type="curve" smooth="yes"/>
      <point x="1410" y="1166" type="line" smooth="yes"/>
      <point x="1410" y="1226"/>
      <point x="1370" y="1266"/>
    </contour>
    <contour>
      <point x="238" y="776" type="line"/>
      <point x="260" y="776"/>
      <point x="278" y="758"/>
      <point x="278" y="736" type="curve" smooth="yes"/>
      <point x="278" y="588" type="line" smooth="yes"/>
      <point x="278" y="566"/>
      <point x="260" y="548"/>
      <point x="238" y="548" type="curve" smooth="yes"/>
      <point x="90" y="548" type="line" smooth="yes"/>
      <point x="68" y="548"/>
      <point x="50" y="566"/>
      <point x="50" y="588" type="curve" smooth="yes"/>
      <point x="50" y="736" type="line" smooth="yes"/>
      <point x="50" y="758"/>
      <point x="68" y="776"/>
      <point x="90" y="776" type="curve" smooth="yes"/>
    </contour>
    <contour>
      <point x="1070" y="446" type="line"/>
      <point x="1092" y="446"/>
      <point x="1110" y="428"/>
      <point x="1110" y="406" type="curve" smooth="yes"/>
      <point x="1110" y="258" type="line" smooth="yes"/>
      <point x="1110" y="236"/>
      <point x="1092" y="218"/>
      <point x="1070" y="218" type="curve" smooth="yes"/>
      <point x="198" y="218" type="line" smooth="yes"/>
      <point x="176" y="218"/>
      <point x="158" y="236"/>
      <point x="158" y="258" type="curve" smooth="yes"/>
      <point x="158" y="406" type="line" smooth="yes"/>
      <point x="158" y="428"/>
      <point x="176" y="446"/>
      <point x="198" y="446" type="curve" smooth="yes"/>
    </contour>
    <contour>
      <point x="158" y="1116" type="line"/>
      <point x="180" y="1116"/>
      <point x="198" y="1098"/>
      <point x="198" y="1076" type="curve" smooth="yes"/>
      <point x="198" y="928" type="line" smooth="yes"/>
      <point x="198" y="906"/>
      <point x="180" y="888"/>
      <point x="158" y="888" type="curve" smooth="yes"/>
      <point x="10" y="888" type="line" smooth="yes"/>
      <point x="-12" y="888"/>
      <point x="-30" y="906"/>
      <point x="-30" y="928" type="curve" smooth="yes"/>
      <point x="-30" y="1076" type="line" smooth="yes"/>
      <point x="-30" y="1098"/>
      <point x="-12" y="1116"/>
      <point x="10" y="1116" type="curve" smooth="yes"/>
    </contour>
    <contour>
      <point x="582" y="776" type="line"/>
      <point x="604" y="776"/>
      <point x="622" y="758"/>
      <point x="622" y="736" type="curve" smooth="yes"/>
      <point x="622" y="588" type="line" smooth="yes"/>
      <point x="622" y="566"/>
      <point x="604" y="548"/>
      <point x="582" y="548" type="curve" smooth="yes"/>
      <point x="434" y="548" type="line" smooth="yes"/>
      <point x="412" y="548"/>
      <point x="394" y="566"/>
      <point x="394" y="588" type="curve" smooth="yes"/>
      <point x="394" y="736" type="line" smooth="yes"/>
      <point x="394" y="758"/>
      <point x="412" y="776"/>
      <point x="434" y="776" type="curve" smooth="yes"/>
    </contour>
    <contour>
      <point x="502" y="1116" type="line"/>
      <point x="524" y="1116"/>
      <point x="542" y="1098"/>
      <point x="542" y="1076" type="curve" smooth="yes"/>
      <point x="542" y="928" type="line" smooth="yes"/>
      <point x="542" y="906"/>
      <point x="524" y="888"/>
      <point x="502" y="888" type="curve" smooth="yes"/>
      <point x="354" y="888" type="line" smooth="yes"/>
      <point x="332" y="888"/>
      <point x="314" y="906"/>
      <point x="314" y="928" type="curve" smooth="yes"/>
      <point x="314" y="1076" type="line" smooth="yes"/>
      <point x="314" y="1098"/>
      <point x="332" y="1116"/>
      <point x="354" y="1116" type="curve" smooth="yes"/>
    </contour>
    <contour>
      <point x="926" y="776" type="line"/>
      <point x="948" y="776"/>
      <point x="966" y="758"/>
      <point x="966" y="736" type="curve" smooth="yes"/>
      <point x="966" y="588" type="line" smooth="yes"/>
      <point x="966" y="566"/>
      <point x="948" y="548"/>
      <point x="926" y="548" type="curve" smooth="yes"/>
      <point x="778" y="548" type="line" smooth="yes"/>
      <point x="756" y="548"/>
      <point x="738" y="566"/>
      <point x="738" y="588" type="curve" smooth="yes"/>
      <point x="738" y="736" type="line" smooth="yes"/>
      <point x="738" y="758"/>
      <point x="756" y="776"/>
      <point x="778" y="776" type="curve" smooth="yes"/>
    </contour>
    <contour>
      <point x="846" y="1116" type="line"/>
      <point x="868" y="1116"/>
      <point x="886" y="1098"/>
      <point x="886" y="1076" type="curve" smooth="yes"/>
      <point x="886" y="928" type="line" smooth="yes"/>
      <point x="886" y="906"/>
      <point x="868" y="888"/>
      <point x="846" y="888" type="curve" smooth="yes"/>
      <point x="698" y="888" type="line" smooth="yes"/>
      <point x="676" y="888"/>
      <point x="658" y="906"/>
      <point x="658" y="928" type="curve" smooth="yes"/>
      <point x="658" y="1076" type="line" smooth="yes"/>
      <point x="658" y="1098"/>
      <point x="676" y="1116"/>
      <point x="698" y="1116" type="curve" smooth="yes"/>
    </contour>
    <contour>
      <point x="1248" y="1116" type="line" smooth="yes"/>
      <point x="1270" y="1116"/>
      <point x="1288" y="1098"/>
      <point x="1288" y="1076" type="curve" smooth="yes"/>
      <point x="1288" y="588" type="line" smooth="yes"/>
      <point x="1288" y="566"/>
      <point x="1270" y="548"/>
      <point x="1248" y="548" type="curve" smooth="yes"/>
      <point x="1140" y="548" type="line" smooth="yes"/>
      <point x="1118" y="548"/>
      <point x="1100" y="566"/>
      <point x="1100" y="588" type="curve" smooth="yes"/>
      <point x="1100" y="848" type="line"/>
      <point x="1100" y="870"/>
      <point x="1082" y="888"/>
      <point x="1060" y="888" type="curve" smooth="yes"/>
      <point x="1038" y="888"/>
      <point x="1020" y="906"/>
      <point x="1020" y="928" type="curve" smooth="yes"/>
      <point x="1020" y="1076" type="line" smooth="yes"/>
      <point x="1020" y="1098"/>
      <point x="1038" y="1116"/>
      <point x="1060" y="1116" type="curve" smooth="yes"/>
    </contour>
  </outline>
</glyph>
<glyph name="boxLightQuadrupleDashHorizontal" format="2">
  <advance width="1200"/>
  <unicode hex="2508"/>
  <outline>
    <contour>
      <point x="375" y="780" type="line"/>
      <point x="375" y="620" type="line"/>
      <point x="525" y="620" type="line"/>
      <point x="525" y="780" type="line"/>
    </contour>
    <contour>
      <point x="675" y="780" type="line"/>
      <point x="675" y="620" type="line"/>
      <point x="825" y="620" type="line"/>
      <point x="825" y="780" type="line"/>
    </contour>
    <contour>
      <point x="75" y="780" type="line"/>
      <point x="75" y="620" type="line"/>
      <point x="225" y="620" type="line"/>
      <point x="225" y="780" type="line"/>
    </contour>
    <contour>
      <point x="975" y="780" type="line"/>
      <point x="975" y="620" type="line"/>
      <point x="1125" y="620" type="line"/>
      <point x="1125" y="780" type="line"/>
    </contour>
  </outline>
</glyph>
<glyph name="dkshade" format="2">
  <advance width="1200"/>
  <unicode hex="2593"/>
  <outline>
    <contour>
      <point x="1200" y="2000" type="line"/>
      <point x="0" y="2000" type="line"/>
      <point x="0" y="-1000" type="line"/>
      <point x="100" y="-1000" type="line"/>
      <point x="100" y="-850" type="line"/>
      <point x="200" y="-850" type="line"/>
      <point x="200" y="-1000" type="line"/>
      <point x="300" y="-1000" type="line"/>
      <point x="300" y="-850" type="line"/>
      <point x="400" y="-850" type="line"/>
      <point x="400" y="-1000" type="line"/>
      <point x="500" y="-1000" type="line"/>
      <point x="500" y="-850" type="line"/>
      <point x="600" y="-850" type="line"/>
      <point x="600" y="-1000" type="line"/>
      <point x="700" y="-1000" type="line"/>
      <point x="700" y="-850" type="line"/>
      <point x="800" y="-850" type="line"/>
      <point x="800" y="-1000" type="line"/>
      <point x="900" y="-1000" type="line"/>
      <point x="900" y="-850" type="line"/>
      <point x="1000" y="-850" type="line"/>
      <point x="1000" y="-1000" type="line"/>
      <point x="1100" y="-1000" type="line"/>
      <point x="1100" y="-850" type="line"/>
      <point x="1200" y="-850" type="line"/>
      <point x="1200" y="-700" type="line"/>
      <point x="1100" y="-700" type="line"/>
      <point x="1100" y="-550" type="line"/>
      <point x="1200" y="-550" type="line"/>
      <point x="1200" y="-400" type="line"/>
      <point x="1100" y="-400" type="line"/>
      <point x="1100" y="-250" type="line"/>
      <point x="1200" y="-250" type="line"/>
      <point x="1200" y="-100" type="line"/>
      <point x="1100" y="-100" type="line"/>
      <point x="1100" y="50" type="line"/>
      <point x="1200" y="50" type="line"/>
      <point x="1200" y="200" type="line"/>
      <point x="1100" y="200" type="line"/>
      <point x="1100" y="350" type="line"/>
      <point x="1200" y="350" type="line"/>
      <point x="1200" y="500" type="line"/>
      <point x="1100" y="500" type="line"/>
      <point x="1100" y="650" type="line"/>
      <point x="1200" y="650" type="line"/>
      <point x="1200" y="800" type="line"/>
      <point x="1100" y="800" type="line"/>
      <point x="1100" y="950" type="line"/>
      <point x="1200" y="950" type="line"/>
      <point x="1200" y="1100" type="line"/>
      <point x="1100" y="1100" type="line"/>
      <point x="1100" y="1250" type="line"/>
      <point x="1200" y="1250" type="line"/>
      <point x="1200" y="1400" type="line"/>
      <point x="1100" y="1400" type="line"/>
      <point x="1100" y="1550" type="line"/>
      <point x="1200" y="1550" type="line"/>
      <point x="1200" y="1700" type="line"/>
      <point x="1100" y="1700" type="line"/>
      <point x="1100" y="1850" type="line"/>
      <point x="1200" y="1850" type="line"/>
    </contour>
    <contour>
      <point x="200" y="-550" type="line"/>
      <point x="200" y="-700" type="line"/>
      <point x="100" y="-700" type="line"/>
      <point x="100" y="-550" type="line"/>
    </contour>
    <contour>
      <point x="400" y="-550" type="line"/>
      <point x="400" y="-700" type="line"/>
      <point x="300" y="-700" type="line"/>
      <point x="300" y="-550" type="line"/>
    </contour>
    <contour>
      <point x="200" y="-250" type="line"/>
      <point x="200" y="-400" type="line"/>
      <point x="100" y="-400" type="line"/>
      <point x="100" y="-250" type="line"/>
    </contour>
    <contour>
      <point x="600" y="-550" type="line"/>
      <point x="600" y="-700" type="line"/>
      <point x="500" y="-700" type="line"/>
      <point x="500" y="-550" type="line"/>
    </contour>
    <contour>
      <point x="400" y="-250" type="line"/>
      <point x="400" y="-400" type="line"/>
      <point x="300" y="-400" type="line"/>
      <point x="300" y="-250" type="line"/>
    </contour>
    <contour>
      <point x="800" y="-550" type="line"/>
      <point x="800" y="-700" type="line"/>
      <point x="700" y="-700" type="line"/>
      <point x="700" y="-550" type="line"/>
    </contour>
    <contour>
      <point x="200" y="50" type="line"/>
      <point x="200" y="-100" type="line"/>
      <point x="100" y="-100" type="line"/>
      <point x="100" y="50" type="line"/>
    </contour>
    <contour>
      <point x="600" y="-250" type="line"/>
      <point x="600" y="-400" type="line"/>
      <point x="500" y="-400" type="line"/>
      <point x="500" y="-250" type="line"/>
    </contour>
    <contour>
      <point x="400" y="50" type="line"/>
      <point x="400" y="-100" type="line"/>
      <point x="300" y="-100" type="line"/>
      <point x="300" y="50" type="line"/>
    </contour>
    <contour>
      <point x="1000" y="-550" type="line"/>
      <point x="1000" y="-700" type="line"/>
      <point x="900" y="-700" type="line"/>
      <point x="900" y="-550" type="line"/>
    </contour>
    <contour>
      <point x="800" y="-250" type="line"/>
      <point x="800" y="-400" type="line"/>
      <point x="700" y="-400" type="line"/>
      <point x="700" y="-250" type="line"/>
    </contour>
    <contour>
      <point x="200" y="350" type="line"/>
      <point x="200" y="200" type="line"/>
      <point x="100" y="200" type="line"/>
      <point x="100" y="350" type="line"/>
    </contour>
    <contour>
      <point x="600" y="50" type="line"/>
      <point x="600" y="-100" type="line"/>
      <point x="500" y="-100" type="line"/>
      <point x="500" y="50" type="line"/>
    </contour>
    <contour>
      <point x="400" y="350" type="line"/>
      <point x="400" y="200" type="line"/>
      <point x="300" y="200" type="line"/>
      <point x="300" y="350" type="line"/>
    </contour>
    <contour>
      <point x="1000" y="-250" type="line"/>
      <point x="1000" y="-400" type="line"/>
      <point x="900" y="-400" type="line"/>
      <point x="900" y="-250" type="line"/>
    </contour>
    <contour>
      <point x="800" y="50" type="line"/>
      <point x="800" y="-100" type="line"/>
      <point x="700" y="-100" type="line"/>
      <point x="700" y="50" type="line"/>
    </contour>
    <contour>
      <point x="200" y="650" type="line"/>
      <point x="200" y="500" type="line"/>
      <point x="100" y="500" type="line"/>
      <point x="100" y="650" type="line"/>
    </contour>
    <contour>
      <point x="600" y="350" type="line"/>
      <point x="600" y="200" type="line"/>
      <point x="500" y="200" type="line"/>
      <point x="500" y="350" type="line"/>
    </contour>
    <contour>
      <point x="400" y="650" type="line"/>
      <point x="400" y="500" type="line"/>
      <point x="300" y="500" type="line"/>
      <point x="300" y="650" type="line"/>
    </contour>
    <contour>
      <point x="1000" y="50" type="line"/>
      <point x="1000" y="-100" type="line"/>
      <point x="900" y="-100" type="line"/>
      <point x="900" y="50" type="line"/>
    </contour>
    <contour>
      <point x="800" y="350" type="line"/>
      <point x="800" y="200" type="line"/>
      <point x="700" y="200" type="line"/>
      <point x="700" y="350" type="line"/>
    </contour>
    <contour>
      <point x="200" y="950" type="line"/>
      <point x="200" y="800" type="line"/>
      <point x="100" y="800" type="line"/>
      <point x="100" y="950" type="line"/>
    </contour>
    <contour>
      <point x="600" y="650" type="line"/>
      <point x="600" y="500" type="line"/>
      <point x="500" y="500" type="line"/>
      <point x="500" y="650" type="line"/>
    </contour>
    <contour>
      <point x="400" y="950" type="line"/>
      <point x="400" y="800" type="line"/>
      <point x="300" y="800" type="line"/>
      <point x="300" y="950" type="line"/>
    </contour>
    <contour>
      <point x="1000" y="350" type="line"/>
      <point x="1000" y="200" type="line"/>
      <point x="900" y="200" type="line"/>
      <point x="900" y="350" type="line"/>
    </contour>
    <contour>
      <point x="800" y="650" type="line"/>
      <point x="800" y="500" type="line"/>
      <point x="700" y="500" type="line"/>
      <point x="700" y="650" type="line"/>
    </contour>
    <contour>
      <point x="200" y="1250" type="line"/>
      <point x="200" y="1100" type="line"/>
      <point x="100" y="1100" type="line"/>
      <point x="100" y="1250" type="line"/>
    </contour>
    <contour>
      <point x="600" y="950" type="line"/>
      <point x="600" y="800" type="line"/>
      <point x="500" y="800" type="line"/>
      <point x="500" y="950" type="line"/>
    </contour>
    <contour>
      <point x="400" y="1250" type="line"/>
      <point x="400" y="1100" type="line"/>
      <point x="300" y="1100" type="line"/>
      <point x="300" y="1250" type="line"/>
    </contour>
    <contour>
      <point x="1000" y="650" type="line"/>
      <point x="1000" y="500" type="line"/>
      <point x="900" y="500" type="line"/>
      <point x="900" y="650" type="line"/>
    </contour>
    <contour>
      <point x="800" y="950" type="line"/>
      <point x="800" y="800" type="line"/>
      <point x="700" y="800" type="line"/>
      <point x="700" y="950" type="line"/>
    </contour>
    <contour>
      <point x="200" y="1550" type="line"/>
      <point x="200" y="1400" type="line"/>
      <point x="100" y="1400" type="line"/>
      <point x="100" y="1550" type="line"/>
    </contour>
    <contour>
      <point x="600" y="1250" type="line"/>
      <point x="600" y="1100" type="line"/>
      <point x="500" y="1100" type="line"/>
      <point x="500" y="1250" type="line"/>
    </contour>
    <contour>
      <point x="400" y="1550" type="line"/>
      <point x="400" y="1400" type="line"/>
      <point x="300" y="1400" type="line"/>
      <point x="300" y="1550" type="line"/>
    </contour>
    <contour>
      <point x="1000" y="950" type="line"/>
      <point x="1000" y="800" type="line"/>
      <point x="900" y="800" type="line"/>
      <point x="900" y="950" type="line"/>
    </contour>
    <contour>
      <point x="800" y="1250" type="line"/>
      <point x="800" y="1100" type="line"/>
      <point x="700" y="1100" type="line"/>
      <point x="700" y="1250" type="line"/>
    </contour>
    <contour>
      <point x="200" y="1850" type="line"/>
      <point x="200" y="1700" type="line"/>
      <point x="100" y="1700" type="line"/>
      <point x="100" y="1850" type="line"/>
    </contour>
    <contour>
      <point x="600" y="1550" type="line"/>
      <point x="600" y="1400" type="line"/>
      <point x="500" y="1400" type="line"/>
      <point x="500" y="1550" type="line"/>
    </contour>
    <contour>
      <point x="400" y="1850" type="line"/>
      <point x="400" y="1700" type="line"/>
      <point x="300" y="1700" type="line"/>
      <point x="300" y="1850" type="line"/>
    </contour>
    <contour>
      <point x="1000" y="1250" type="line"/>
      <point x="1000" y="1100" type="line"/>
      <point x="900" y="1100" type="line"/>
      <point x="900" y="1250" type="line"/>
    </contour>
    <contour>
      <point x="800" y="1550" type="line"/>
      <point x="800" y="1400" type="line"/>
      <point x="700" y="1400" type="line"/>
      <point x="700" y="1550" type="line"/>
    </contour>
    <contour>
      <point x="600" y="1850" type="line"/>
      <point x="600" y="1700" type="line"/>
      <point x="500" y="1700" type="line"/>
      <point x="500" y="1850" type="line"/>
    </contour>
    <contour>
      <point x="1000" y="1550" type="line"/>
      <point x="1000" y="1400" type="line"/>
      <point x="900" y="1400" type="line"/>
      <point x="900" y="1550" type="line"/>
    </contour>
    <contour>
      <point x="800" y="1850" type="line"/>
      <point x="800" y="1700" type="line"/>
      <point x="700" y="1700" type="line"/>
      <point x="700" y="1850" type="line"/>
    </contour>
    <contour>
      <point x="1000" y="1850" type="line"/>
      <point x="1000" y="1700" type="line"/>
      <point x="900" y="1700" type="line"/>
      <point x="900" y="1850" type="line"/>
    </contour>
  </outline>
</glyph>
<glyph name="lozenge" format="2">
  <advance width="1200"/>
  <unicode hex="25CA"/>
  <outline>
    <contour>
      <point x="774" y="1386" type="line"/>
      <point x="440" y="1386" type="line"/>
      <point x="79" y="692" type="line"/>
      <point x="440" y="0" type="line"/>
      <point x="774" y="0" type="line"/>
      <point x="1121" y="692" type="line"/>
    </contour>
    <contour>
      <point x="604" y="1145" type="line"/>
      <point x="812" y="694" type="line"/>
      <point x="604" y="241" type="line"/>
      <point x="596" y="241" type="line"/>
      <point x="388" y="694" type="line"/>
      <point x="596" y="1145" type="line"/>
    </contour>
  </outline>
</glyph>
<glyph name="rightHalfBlackCircle" format="2">
  <advance width="1200"/>
  <unicode hex="25D7"/>
  <outline>
    <contour>
      <point x="600" y="1080" type="curve"/>
      <point x="600" y="0" type="line"/>
      <point x="898" y="0"/>
      <point x="1140" y="240"/>
      <point x="1140" y="540" type="curve" smooth="yes"/>
      <point x="1140" y="838"/>
      <point x="898" y="1080"/>
    </contour>
  </outline>
</glyph>
<glyph name="upperRightArc" format="2">
  <advance width="1200"/>
  <unicode hex="25DD"/>
  <outline>
    <contour>
      <point x="600" y="1080" type="curve"/>
      <point x="600" y="920" type="line"/>
      <point x="808" y="920"/>
      <point x="980" y="748"/>
      <point x="980" y="540" type="curve"/>
      <point x="1140" y="540" type="line"/>
      <point x="1140" y="838"/>
      <point x="898" y="1080"/>
    </contour>
  </outline>
</glyph>
<glyph name="lowerRightArc" format="2">
  <advance width="1200"/>
  <unicode hex="25DE"/>
  <outline>
    <contour>
      <point x="1140" y="540" type="curve"/>
      <point x="980" y="540" type="line"/>
      <point x="980" y="330"/>
      <point x="808" y="160"/>
      <point x="600" y="160" type="curve"/>
      <point x="600" y="0" type="line"/>
      <point x="898" y="0"/>
      <point x="1140" y="240"/>
    </contour>
  </outline>
</glyph>
<glyph name="uniE003" format="2">
  <advance width="1200"/>
  <unicode hex="E003"/>
  <outline>
    <contour>
      <point x="-502" y="972" type="curve"/>
      <point x="-500" y="956" type="line"/>
      <point x="-206" y="1030" type="line"/>
      <point x="-290" y="968"/>
      <point x="-472" y="828"/>
      <point x="-550" y="728" type="curve"/>
      <point x="-544" y="714" type="line"/>
      <point x="-464" y="746"/>
      <point x="-356" y="784"/>
      <point x="-264" y="818" type="curve"/>
      <point x="-310" y="792"/>
      <point x="-436" y="696"/>
      <point x="-500" y="588" type="curve"/>
      <point x="-494" y="572" type="line"/>
      <point x="-410" y="612"/>
      <point x="-252" y="686"/>
      <point x="-252" y="684" type="curve"/>
      <point x="-336" y="608"/>
      <point x="-406" y="520"/>
      <point x="-444" y="434" type="curve"/>
      <point x="-438" y="418" type="line"/>
      <point x="-204" y="538" type="line"/>
      <point x="-254" y="492"/>
      <point x="-320" y="420"/>
      <point x="-354" y="316" type="curve"/>
      <point x="-346" y="302" type="line"/>
      <point x="-196" y="406" type="line"/>
      <point x="-226" y="372"/>
      <point x="-262" y="312"/>
      <point x="-276" y="262" type="curve"/>
      <point x="-268" y="246" type="line"/>
      <point x="-232" y="264"/>
      <point x="-180" y="290"/>
      <point x="-112" y="312" type="curve"/>
      <point x="-154" y="284"/>
      <point x="-192" y="260"/>
      <point x="-214" y="232" type="curve"/>
      <point x="-210" y="218" type="line"/>
      <point x="-190" y="216"/>
      <point x="-142" y="214"/>
      <point x="-142" y="214" type="curve"/>
      <point x="-246" y="158" type="line"/>
      <point x="-246" y="158"/>
      <point x="-136" y="10"/>
      <point x="38" y="-92" type="curve" smooth="yes"/>
      <point x="232" y="-208"/>
      <point x="434" y="-226"/>
      <point x="534" y="-226" type="curve" smooth="yes"/>
      <point x="592" y="-226"/>
      <point x="646" y="-220"/>
      <point x="660" y="-218" type="curve"/>
      <point x="660" y="-210"/>
      <point x="650" y="-166"/>
      <point x="640" y="-142" type="curve"/>
      <point x="652" y="-124"/>
      <point x="674" y="-50"/>
      <point x="682" y="-6" type="curve" smooth="yes"/>
      <point x="714" y="154"/>
      <point x="726" y="214"/>
      <point x="874" y="292" type="curve" smooth="yes"/>
      <point x="906" y="308"/>
      <point x="962" y="346"/>
      <point x="1018" y="346" type="curve" smooth="yes"/>
      <point x="1090" y="346"/>
      <point x="1190" y="310"/>
      <point x="1252" y="298" type="curve" smooth="yes"/>
      <point x="1294" y="290"/>
      <point x="1330" y="284"/>
      <point x="1358" y="284" type="curve" smooth="yes"/>
      <point x="1406" y="284"/>
      <point x="1506" y="350"/>
      <point x="1548" y="384" type="curve"/>
      <point x="1552" y="382"/>
      <point x="1572" y="378"/>
      <point x="1594" y="378" type="curve" smooth="yes"/>
      <point x="1606" y="378"/>
      <point x="1620" y="378"/>
      <point x="1632" y="384" type="curve" smooth="yes"/>
      <point x="1668" y="400"/>
      <point x="1750" y="602"/>
      <point x="1750" y="630" type="curve" smooth="yes"/>
      <point x="1750" y="652"/>
      <point x="1738" y="680"/>
      <point x="1732" y="744" type="curve" smooth="yes"/>
      <point x="1728" y="782"/>
      <point x="1724" y="868"/>
      <point x="1718" y="886" type="curve" smooth="yes"/>
      <point x="1688" y="968"/>
      <point x="1510" y="1004"/>
      <point x="1308" y="1090" type="curve" smooth="yes"/>
      <point x="1188" y="1142"/>
      <point x="1128" y="1210"/>
      <point x="1128" y="1210" type="curve"/>
      <point x="1128" y="1210"/>
      <point x="1134" y="1230"/>
      <point x="1134" y="1256" type="curve" smooth="yes"/>
      <point x="1134" y="1310"/>
      <point x="1086" y="1456"/>
      <point x="918" y="1456" type="curve" smooth="yes"/>
      <point x="842" y="1456"/>
      <point x="772" y="1434"/>
      <point x="752" y="1428" type="curve"/>
      <point x="714" y="1428"/>
      <point x="506" y="1518"/>
      <point x="406" y="1518" type="curve" smooth="yes"/>
      <point x="162" y="1518"/>
      <point x="-58" y="1346"/>
      <point x="-228" y="1212" type="curve" smooth="yes"/>
      <point x="-358" y="1110"/>
      <point x="-456" y="1018"/>
    </contour>
    <contour>
      <point x="-14" y="1134" type="curve"/>
      <point x="-18" y="1140" type="line"/>
      <point x="8" y="1190"/>
      <point x="162" y="1410"/>
      <point x="394" y="1410" type="curve" smooth="yes"/>
      <point x="486" y="1410"/>
      <point x="588" y="1380"/>
      <point x="632" y="1364" type="curve"/>
      <point x="634" y="1356" type="line"/>
      <point x="616" y="1342"/>
      <point x="592" y="1316"/>
      <point x="588" y="1286" type="curve"/>
      <point x="600" y="1284" type="line"/>
      <point x="696" y="1318"/>
      <point x="830" y="1370"/>
      <point x="932" y="1370" type="curve" smooth="yes"/>
      <point x="986" y="1370"/>
      <point x="1010" y="1332"/>
      <point x="1022" y="1312" type="curve"/>
      <point x="1012" y="1312" type="line"/>
      <point x="996" y="1322"/>
      <point x="970" y="1328"/>
      <point x="936" y="1328" type="curve" smooth="yes"/>
      <point x="834" y="1328"/>
      <point x="610" y="1236"/>
      <point x="554" y="1214" type="curve"/>
      <point x="550" y="1204" type="line"/>
      <point x="704" y="1178" type="line"/>
      <point x="704" y="1178"/>
      <point x="726" y="1096"/>
      <point x="790" y="1058" type="curve"/>
      <point x="814" y="1058" type="line"/>
      <point x="784" y="1092"/>
      <point x="774" y="1124"/>
      <point x="774" y="1148" type="curve" smooth="yes"/>
      <point x="774" y="1226"/>
      <point x="852" y="1242"/>
      <point x="892" y="1242" type="curve" smooth="yes"/>
      <point x="910" y="1242"/>
      <point x="922" y="1240"/>
      <point x="924" y="1238" type="curve"/>
      <point x="920" y="1230" type="line"/>
      <point x="896" y="1224"/>
      <point x="832" y="1206"/>
      <point x="832" y="1154" type="curve" smooth="yes"/>
      <point x="832" y="1088"/>
      <point x="932" y="1030"/>
      <point x="1118" y="1030" type="curve"/>
      <point x="1122" y="1040" type="line"/>
      <point x="1034" y="1146" type="line"/>
      <point x="1042" y="1148" type="line"/>
      <point x="1120" y="1082"/>
      <point x="1210" y="1026"/>
      <point x="1338" y="982" type="curve" smooth="yes"/>
      <point x="1472" y="934"/>
      <point x="1578" y="900"/>
      <point x="1604" y="866" type="curve"/>
      <point x="1604" y="830"/>
      <point x="1546" y="806"/>
      <point x="1546" y="768" type="curve" smooth="yes"/>
      <point x="1546" y="738"/>
      <point x="1584" y="690"/>
      <point x="1608" y="662" type="curve"/>
      <point x="1620" y="662" type="line"/>
      <point x="1618" y="682"/>
      <point x="1616" y="696"/>
      <point x="1616" y="708" type="curve" smooth="yes"/>
      <point x="1616" y="738"/>
      <point x="1624" y="746"/>
      <point x="1632" y="746" type="curve" smooth="yes"/>
      <point x="1650" y="746"/>
      <point x="1660" y="692"/>
      <point x="1660" y="656" type="curve" smooth="yes"/>
      <point x="1660" y="608"/>
      <point x="1642" y="568"/>
      <point x="1642" y="568" type="curve"/>
      <point x="1642" y="568"/>
      <point x="1502" y="582"/>
      <point x="1388" y="612" type="curve" smooth="yes"/>
      <point x="1234" y="650"/>
      <point x="962" y="840"/>
      <point x="788" y="984" type="curve"/>
      <point x="688" y="1026" type="line"/>
      <point x="682" y="1020" type="line"/>
      <point x="788" y="900" type="line" smooth="yes"/>
      <point x="800" y="888"/>
      <point x="824" y="854"/>
      <point x="824" y="832" type="curve" smooth="yes"/>
      <point x="824" y="796"/>
      <point x="794" y="744"/>
      <point x="788" y="736" type="curve"/>
      <point x="750" y="800" type="line"/>
      <point x="740" y="910" type="line"/>
      <point x="730" y="910" type="line"/>
      <point x="722" y="884"/>
      <point x="702" y="816"/>
      <point x="702" y="750" type="curve" smooth="yes"/>
      <point x="702" y="594"/>
      <point x="842" y="540"/>
      <point x="862" y="530" type="curve"/>
      <point x="886" y="524"/>
      <point x="940" y="514"/>
      <point x="966" y="512" type="curve"/>
      <point x="968" y="520" type="line"/>
      <point x="934" y="550"/>
      <point x="888" y="584"/>
      <point x="888" y="632" type="curve" smooth="yes"/>
      <point x="888" y="636"/>
      <point x="888" y="640"/>
      <point x="890" y="646" type="curve"/>
      <point x="896" y="646" type="line"/>
      <point x="926" y="596"/>
      <point x="988" y="552"/>
      <point x="1106" y="510" type="curve" smooth="yes"/>
      <point x="1344" y="424"/>
      <point x="1352" y="456"/>
      <point x="1420" y="400" type="curve"/>
      <point x="1420" y="400"/>
      <point x="1364" y="364"/>
      <point x="1326" y="360" type="curve"/>
      <point x="1286" y="368"/>
      <point x="1118" y="426"/>
      <point x="1048" y="464" type="curve"/>
      <point x="1030" y="456"/>
      <point x="804" y="398"/>
      <point x="752" y="396" type="curve"/>
      <point x="614" y="414"/>
      <point x="510" y="504"/>
      <point x="460" y="562" type="curve"/>
      <point x="440" y="568" type="line"/>
      <point x="440" y="478"/>
      <point x="552" y="356"/>
      <point x="566" y="348" type="curve"/>
      <point x="644" y="316" type="line"/>
      <point x="644" y="306" type="line"/>
      <point x="600" y="280"/>
      <point x="514" y="230"/>
      <point x="514" y="152" type="curve"/>
      <point x="526" y="150" type="line"/>
      <point x="558" y="178"/>
      <point x="626" y="208"/>
      <point x="652" y="210" type="curve"/>
      <point x="652" y="208"/>
      <point x="654" y="208"/>
      <point x="654" y="206" type="curve"/>
      <point x="620" y="154" type="line"/>
      <point x="620" y="130"/>
      <point x="616" y="96"/>
      <point x="606" y="68" type="curve"/>
      <point x="570" y="68"/>
      <point x="472" y="122"/>
      <point x="436" y="150" type="curve"/>
      <point x="428" y="144" type="line"/>
      <point x="442" y="100"/>
      <point x="512" y="12"/>
      <point x="566" y="-28" type="curve"/>
      <point x="554" y="-54"/>
      <point x="536" y="-84"/>
      <point x="536" y="-84" type="curve"/>
      <point x="536" y="-84"/>
      <point x="452" y="-32"/>
      <point x="414" y="-4" type="curve"/>
      <point x="406" y="-12" type="line"/>
      <point x="426" y="-54"/>
      <point x="466" y="-118"/>
      <point x="490" y="-144" type="curve"/>
      <point x="490" y="-148" type="line"/>
      <point x="368" y="-148"/>
      <point x="126" y="-86"/>
      <point x="-38" y="50" type="curve"/>
      <point x="90" y="126" type="line"/>
      <point x="84" y="136" type="line"/>
      <point x="-88" y="98" type="line"/>
      <point x="-100" y="108" type="line"/>
      <point x="-36" y="138"/>
      <point x="106" y="200"/>
      <point x="134" y="242" type="curve"/>
      <point x="126" y="250" type="line"/>
      <point x="86" y="244"/>
      <point x="-12" y="242"/>
      <point x="-12" y="242" type="curve"/>
      <point x="-12" y="242"/>
      <point x="-18" y="246"/>
      <point x="-18" y="272" type="curve" smooth="yes"/>
      <point x="-18" y="328"/>
      <point x="36" y="364"/>
      <point x="36" y="420" type="curve" smooth="yes"/>
      <point x="36" y="470"/>
      <point x="-46" y="556"/>
      <point x="-76" y="606" type="curve" smooth="yes"/>
      <point x="-100" y="646"/>
      <point x="-132" y="720"/>
      <point x="-132" y="796" type="curve" smooth="yes"/>
      <point x="-132" y="808"/>
      <point x="-130" y="822"/>
      <point x="-128" y="836" type="curve"/>
      <point x="-124" y="838" type="line"/>
      <point x="-104" y="806" type="line"/>
      <point x="-94" y="808" type="line"/>
      <point x="-92" y="826"/>
      <point x="-86" y="866"/>
      <point x="-80" y="886" type="curve"/>
      <point x="-76" y="886" type="line"/>
      <point x="-66" y="858"/>
      <point x="-52" y="806"/>
      <point x="-16" y="780" type="curve"/>
      <point x="-8" y="788" type="line"/>
      <point x="-18" y="820"/>
      <point x="-22" y="854"/>
      <point x="-22" y="888" type="curve" smooth="yes"/>
      <point x="-22" y="994"/>
      <point x="24" y="1092"/>
      <point x="102" y="1148" type="curve"/>
      <point x="100" y="1158" type="line"/>
      <point x="60" y="1154"/>
      <point x="26" y="1146"/>
    </contour>
    <contour>
      <point x="324" y="952" type="curve"/>
      <point x="336" y="946" type="line"/>
      <point x="336" y="946"/>
      <point x="406" y="958"/>
      <point x="494" y="958" type="curve" smooth="yes"/>
      <point x="558" y="958"/>
      <point x="642" y="940"/>
      <point x="642" y="940" type="curve"/>
      <point x="648" y="946" type="line"/>
      <point x="594" y="1044" type="line"/>
      <point x="594" y="1052" type="line"/>
      <point x="606" y="1054"/>
      <point x="648" y="1060"/>
      <point x="674" y="1066" type="curve"/>
      <point x="676" y="1074" type="line"/>
      <point x="610" y="1144"/>
      <point x="518" y="1174"/>
      <point x="518" y="1174" type="curve"/>
      <point x="516" y="1166" type="line"/>
      <point x="570" y="1098" type="line"/>
      <point x="570" y="1094" type="line"/>
      <point x="528" y="1094"/>
      <point x="436" y="1076"/>
      <point x="436" y="1076" type="curve"/>
      <point x="434" y="1068" type="line"/>
      <point x="496" y="1034" type="line"/>
      <point x="496" y="1028" type="line"/>
      <point x="430" y="1016"/>
      <point x="360" y="984"/>
    </contour>
    <contour>
      <point x="194" y="1134" type="curve"/>
      <point x="202" y="1126" type="line"/>
      <point x="202" y="1126"/>
      <point x="244" y="1170"/>
      <point x="286" y="1184" type="curve"/>
      <point x="286" y="1108"/>
      <point x="334" y="1078"/>
      <point x="362" y="1058" type="curve"/>
      <point x="374" y="1058" type="line"/>
      <point x="370" y="1076"/>
      <point x="368" y="1094"/>
      <point x="368" y="1110" type="curve" smooth="yes"/>
      <point x="368" y="1176"/>
      <point x="392" y="1228"/>
      <point x="394" y="1232" type="curve"/>
      <point x="496" y="1284" type="line"/>
      <point x="506" y="1298" type="line"/>
      <point x="506" y="1298"/>
      <point x="474" y="1308"/>
      <point x="426" y="1308" type="curve" smooth="yes"/>
      <point x="248" y="1308"/>
      <point x="208" y="1182"/>
    </contour>
    <contour>
      <point x="1048" y="1006" type="line"/>
      <point x="968" y="1012" type="line"/>
      <point x="862" y="1052" type="line"/>
      <point x="826" y="1050" type="line"/>
      <point x="880" y="1006"/>
      <point x="926" y="980"/>
      <point x="980" y="980" type="curve" smooth="yes"/>
      <point x="998" y="980"/>
      <point x="1018" y="982"/>
      <point x="1038" y="990" type="curve"/>
    </contour>
    <contour>
      <point x="1094" y="616" type="curve" smooth="yes"/>
      <point x="1094" y="630"/>
      <point x="1096" y="644"/>
      <point x="1106" y="656" type="curve"/>
      <point x="1126" y="656"/>
      <point x="1150" y="640"/>
      <point x="1156" y="632" type="curve"/>
      <point x="1096" y="588" type="line"/>
      <point x="1096" y="588"/>
      <point x="1094" y="602"/>
    </contour>
    <contour>
      <point x="1410" y="542" type="curve"/>
      <point x="1410" y="542"/>
      <point x="1440" y="538"/>
      <point x="1466" y="532" type="curve"/>
      <point x="1464" y="524"/>
      <point x="1444" y="492"/>
      <point x="1418" y="472" type="curve"/>
      <point x="1414" y="494"/>
      <point x="1410" y="542"/>
    </contour>
    <contour>
      <point x="1580" y="436" type="curve"/>
      <point x="1574" y="512" type="line"/>
      <point x="1606" y="512" type="line" smooth="yes"/>
      <point x="1614" y="512"/>
      <point x="1620" y="506"/>
      <point x="1620" y="500" type="curve" smooth="yes"/>
      <point x="1620" y="484"/>
      <point x="1580" y="436"/>
    </contour>
    <contour>
      <point x="1330" y="562" type="curve"/>
      <point x="1356" y="558"/>
      <point x="1382" y="552"/>
      <point x="1382" y="552" type="curve"/>
      <point x="1382" y="552"/>
      <point x="1352" y="504"/>
      <point x="1328" y="498" type="curve"/>
      <point x="1328" y="498"/>
      <point x="1330" y="554"/>
    </contour>
    <contour>
      <point x="1492" y="510" type="curve" smooth="yes"/>
      <point x="1492" y="518"/>
      <point x="1498" y="524"/>
      <point x="1504" y="524" type="curve" smooth="yes"/>
      <point x="1510" y="524"/>
      <point x="1540" y="518"/>
      <point x="1544" y="516" type="curve"/>
      <point x="1544" y="504"/>
      <point x="1510" y="470"/>
      <point x="1498" y="466" type="curve"/>
      <point x="1494" y="482"/>
      <point x="1492" y="490"/>
    </contour>
    <contour>
      <point x="1182" y="618" type="curve"/>
      <point x="1198" y="618"/>
      <point x="1222" y="610"/>
      <point x="1226" y="598" type="curve"/>
      <point x="1216" y="588"/>
      <point x="1178" y="552"/>
      <point x="1178" y="552" type="curve"/>
      <point x="1178" y="552"/>
      <point x="1178" y="602"/>
    </contour>
    <contour>
      <point x="1252" y="572" type="curve" smooth="yes"/>
      <point x="1252" y="582"/>
      <point x="1258" y="586"/>
      <point x="1260" y="588" type="curve"/>
      <point x="1272" y="586"/>
      <point x="1288" y="580"/>
      <point x="1298" y="572" type="curve"/>
      <point x="1286" y="556"/>
      <point x="1254" y="524"/>
      <point x="1254" y="524" type="curve"/>
      <point x="1254" y="524"/>
      <point x="1252" y="568"/>
    </contour>
    <contour>
      <point x="936" y="1164" type="curve"/>
      <point x="920" y="1158"/>
      <point x="906" y="1142"/>
      <point x="906" y="1122" type="curve" smooth="yes"/>
      <point x="906" y="1118"/>
      <point x="908" y="1112"/>
      <point x="910" y="1108" type="curve"/>
      <point x="890" y="1124"/>
      <point x="878" y="1146"/>
      <point x="876" y="1170" type="curve"/>
      <point x="894" y="1170"/>
      <point x="914" y="1170"/>
    </contour>
    <contour>
      <point x="1034" y="1084" type="curve"/>
      <point x="1020" y="1082"/>
      <point x="1008" y="1080"/>
      <point x="998" y="1080" type="curve" smooth="yes"/>
      <point x="986" y="1080"/>
      <point x="976" y="1082"/>
      <point x="966" y="1084" type="curve"/>
      <point x="982" y="1090"/>
      <point x="992" y="1104"/>
      <point x="992" y="1122" type="curve" smooth="yes"/>
      <point x="992" y="1134" type="line"/>
      <point x="1006" y="1122"/>
      <point x="1020" y="1106"/>
    </contour>
  </outline>
</glyph>
<glyph name="_part.arrowhead2" format="2">
  <advance width="1200"/>
  <outline>
    <contour>
      <point x="498" y="1294" type="line"/>
      <point x="291" y="1116" type="line"/>
      <point x="364" y="1037" type="line"/>
      <point x="388" y="1010"/>
      <point x="414" y="982"/>
      <point x="457" y="956" type="curve"/>
      <point x="664" y="709" type="line"/>
      <point x="745" y="622" type="line"/>
      <point x="664" y="535" type="line"/>
      <point x="457" y="290" type="line"/>
      <point x="414" y="262"/>
      <point x="388" y="236"/>
      <point x="364" y="207" type="curve"/>
      <point x="291" y="128" type="line"/>
      <point x="498" y="-50" type="line"/>
      <point x="1103" y="622" type="line"/>
    </contour>
  </outline>
</glyph>
<glyph name="_part.greater" format="2">
  <advance width="1200"/>
  <outline>
    <contour>
      <point x="161" y="1205" type="line"/>
      <point x="45" y="981" type="line"/>
      <point x="739" y="628" type="line"/>
      <point x="45" y="274" type="line"/>
      <point x="156" y="43" type="line"/>
      <point x="1061" y="515" type="line"/>
      <point x="1061" y="741" type="line"/>
    </contour>
  </outline>
</glyph>
<glyph name="acute.case" format="2">
  <advance width="1200"/>
  <anchor x="610" y="1386" name="_top"/>
  <outline>
    <contour>
      <point x="766" y="1905" type="line"/>
      <point x="335" y="1662" type="line"/>
      <point x="410" y="1502" type="line"/>
      <point x="885" y="1670" type="line"/>
    </contour>
  </outline>
</glyph>
<glyph name="asciitilde_asciitilde_greater.liga" format="2">
  <advance width="1200"/>
  <outline>
    <contour>
      <point x="383" y="645" type="curve" smooth="yes"/>
      <point x="270" y="645"/>
      <point x="258" y="845"/>
      <point x="-17" y="845" type="curve" smooth="yes"/>
      <point x="-292" y="845"/>
      <point x="-304" y="645"/>
      <point x="-417" y="645" type="curve" smooth="yes"/>
      <point x="-537" y="645"/>
      <point x="-519" y="845"/>
      <point x="-817" y="845" type="curve" smooth="yes"/>
      <point x="-1092" y="845"/>
      <point x="-1106" y="645"/>
      <point x="-1217" y="645" type="curve" smooth="yes"/>
      <point x="-1330" y="645"/>
      <point x="-1342" y="845"/>
      <point x="-1617" y="845" type="curve" smooth="yes"/>
      <point x="-1892" y="845"/>
      <point x="-1904" y="645"/>
      <point x="-2017" y="645" type="curve" smooth="yes"/>
      <point x="-2079" y="645"/>
      <point x="-2143" y="719"/>
      <point x="-2176" y="799" type="curve"/>
      <point x="-2404" y="694" type="line"/>
      <point x="-2344" y="518"/>
      <point x="-2161" y="399"/>
      <point x="-2017" y="399" type="curve" smooth="yes"/>
      <point x="-1742" y="399"/>
      <point x="-1730" y="599"/>
      <point x="-1617" y="599" type="curve" smooth="yes"/>
      <point x="-1506" y="599"/>
      <point x="-1490" y="387"/>
      <point x="-1217" y="387" type="curve" smooth="yes"/>
      <point x="-942" y="387"/>
      <point x="-937" y="599"/>
      <point x="-817" y="599" type="curve" smooth="yes"/>
      <point x="-696" y="599"/>
      <point x="-715" y="399"/>
      <point x="-417" y="399" type="curve" smooth="yes"/>
      <point x="-142" y="399"/>
      <point x="-130" y="599"/>
      <point x="-17" y="599" type="curve" smooth="yes"/>
      <point x="94" y="599"/>
      <point x="110" y="387"/>
      <point x="383" y="387" type="curve" smooth="yes"/>
      <point x="681" y="387"/>
      <point x="646" y="563"/>
      <point x="822" y="547" type="curve"/>
      <point x="822" y="811" type="line"/>
      <point x="487" y="840"/>
      <point x="504" y="645"/>
    </contour>
    <component base="_part.arrowhead1"/>
  </outline>
</glyph>
<glyph name="asciitilde_at.liga" format="2">
  <advance width="1200"/>
  <outline>
    <contour>
      <point x="574" y="1421" type="curve" smooth="yes"/>
      <point x="445" y="1421"/>
      <point x="187" y="1413"/>
      <point x="14" y="1251" type="curve" smooth="yes"/>
      <point x="-102" y="1142"/>
      <point x="-166" y="922"/>
      <point x="-220" y="817" type="curve" smooth="yes"/>
      <point x="-272" y="715"/>
      <point x="-322" y="660"/>
      <point x="-398" y="660" type="curve" smooth="yes"/>
      <point x="-518" y="660"/>
      <point x="-598" y="860"/>
      <point x="-794" y="860" type="curve" smooth="yes"/>
      <point x="-974" y="860"/>
      <point x="-1075" y="711"/>
      <point x="-1157" y="544" type="curve"/>
      <point x="-980" y="465" type="line"/>
      <point x="-928" y="561"/>
      <point x="-880" y="621"/>
      <point x="-802" y="621" type="curve" smooth="yes"/>
      <point x="-682" y="621"/>
      <point x="-598" y="421"/>
      <point x="-406" y="421" type="curve" smooth="yes"/>
      <point x="-228" y="421"/>
      <point x="-127" y="551"/>
      <point x="-43" y="737" type="curve" smooth="yes"/>
      <point x="3" y="840"/>
      <point x="59" y="1015"/>
      <point x="151" y="1104" type="curve" smooth="yes"/>
      <point x="283" y="1234"/>
      <point x="473" y="1227"/>
      <point x="558" y="1227" type="curve" smooth="yes"/>
      <point x="878" y="1227"/>
      <point x="955" y="993"/>
      <point x="955" y="574" type="curve" smooth="yes"/>
      <point x="955" y="162"/>
      <point x="949" y="9"/>
      <point x="872" y="9" type="curve" smooth="yes"/>
      <point x="817" y="9"/>
      <point x="792" y="60"/>
      <point x="792" y="208" type="curve" smooth="yes"/>
      <point x="792" y="808" type="line"/>
      <point x="682" y="868"/>
      <point x="562" y="896"/>
      <point x="456" y="896" type="curve" smooth="yes"/>
      <point x="165" y="896"/>
      <point x="31" y="687"/>
      <point x="31" y="358" type="curve" smooth="yes"/>
      <point x="31" y="100"/>
      <point x="117" y="-98"/>
      <point x="354" y="-98" type="curve" smooth="yes"/>
      <point x="497" y="-98"/>
      <point x="590" y="-13"/>
      <point x="634" y="88" type="curve"/>
      <point x="642" y="88" type="line"/>
      <point x="659" y="-62"/>
      <point x="729" y="-188"/>
      <point x="882" y="-188" type="curve" smooth="yes"/>
      <point x="1137" y="-188"/>
      <point x="1197" y="87"/>
      <point x="1197" y="591" type="curve" smooth="yes"/>
      <point x="1197" y="1091"/>
      <point x="1049" y="1421"/>
    </contour>
    <contour>
      <point x="526" y="241" type="line"/>
      <point x="517" y="179"/>
      <point x="501" y="100"/>
      <point x="411" y="100" type="curve" smooth="yes"/>
      <point x="336" y="100"/>
      <point x="314" y="176"/>
      <point x="314" y="358" type="curve" smooth="yes"/>
      <point x="314" y="614"/>
      <point x="344" y="698"/>
      <point x="450" y="698" type="curve" smooth="yes"/>
      <point x="481" y="698"/>
      <point x="501" y="692"/>
      <point x="526" y="679" type="curve"/>
    </contour>
  </outline>
</glyph>
<glyph name="asterisk_large.rem" format="2">
  <advance width="1200"/>
  <outline>
    <contour>
      <point x="483" y="1177" type="line"/>
      <point x="517" y="753" type="line"/>
      <point x="125" y="911" type="line"/>
      <point x="55" y="697" type="line"/>
      <point x="465" y="597" type="line"/>
      <point x="217" y="300" type="line"/>
      <point x="405" y="163" type="line"/>
      <point x="600" y="498" type="line"/>
      <point x="815" y="149" type="line"/>
      <point x="1003" y="286" type="line"/>
      <point x="735" y="595" type="line"/>
      <point x="1145" y="691" type="line"/>
      <point x="1076" y="907" type="line"/>
      <point x="683" y="751" type="line"/>
      <point x="717" y="1177" type="line"/>
    </contour>
  </outline>
</glyph>
<glyph name="bar_equal.liga" format="2">
  <advance width="1200"/>
  <outline>
    <contour>
      <point x="854" y="956" type="line"/>
      <point x="-598" y="956" type="line"/>
      <point x="-598" y="709" type="line"/>
      <point x="854" y="709" type="line"/>
    </contour>
    <contour>
      <point x="854" y="535" type="line"/>
      <point x="-598" y="535" type="line"/>
      <point x="-598" y="290" type="line"/>
      <point x="854" y="290" type="line"/>
    </contour>
    <component base="_part.bar" xOffset="-1200"/>
  </outline>
</glyph>
<glyph name="bar_greater.liga" format="2">
  <advance width="1200"/>
  <outline>
    <contour>
      <point x="-419" y="1422" type="line"/>
      <point x="-665" y="1422" type="line"/>
      <point x="-665" y="-172" type="line"/>
      <point x="-419" y="-172" type="line"/>
      <point x="698" y="515" type="line"/>
      <point x="698" y="741" type="line"/>
    </contour>
    <contour>
      <point x="-419" y="131" type="line"/>
      <point x="-419" y="1110" type="line"/>
      <point x="425" y="628" type="line"/>
    </contour>
  </outline>
</glyph>
<glyph name="bracketright_numbersign.liga" format="2">
  <advance width="1200"/>
  <outline>
    <contour>
      <point x="862" y="893" type="line"/>
      <point x="1011" y="893" type="line"/>
      <point x="1011" y="1102" type="line"/>
      <point x="890" y="1102" type="line"/>
      <point x="928" y="1386" type="line"/>
      <point x="667" y="1386" type="line"/>
      <point x="629" y="1102" type="line"/>
      <point x="438" y="1102" type="line"/>
      <point x="477" y="1386" type="line"/>
      <point x="214" y="1386" type="line"/>
      <point x="178" y="1102" type="line"/>
      <point x="-489" y="1102" type="line"/>
      <point x="-489" y="893" type="line"/>
      <point x="150" y="893" type="line"/>
      <point x="98" y="497" type="line"/>
      <point x="-489" y="497" type="line"/>
      <point x="-489" y="289" type="line"/>
      <point x="70" y="289" type="line"/>
      <point x="34" y="0" type="line"/>
      <point x="295" y="0" type="line"/>
      <point x="333" y="289" type="line"/>
      <point x="523" y="289" type="line"/>
      <point x="485" y="0" type="line"/>
      <point x="746" y="0" type="line"/>
      <point x="784" y="289" type="line"/>
      <point x="937" y="289" type="line"/>
      <point x="937" y="497" type="line"/>
      <point x="812" y="497" type="line"/>
    </contour>
    <contour>
      <point x="359" y="497" type="line"/>
      <point x="411" y="893" type="line"/>
      <point x="601" y="893" type="line"/>
      <point x="549" y="497" type="line"/>
    </contour>
    <component base="bracketright" xOffset="-1200"/>
  </outline>
</glyph>
<glyph name="breve-cy" format="2">
  <advance width="1200"/>
  <anchor x="600" y="1062" name="_top"/>
  <outline>
    <contour>
      <point x="600" y="1224" type="curve" smooth="yes"/>
      <point x="818" y="1224"/>
      <point x="929" y="1376"/>
      <point x="945" y="1534" type="curve"/>
      <point x="770" y="1563" type="line"/>
      <point x="752" y="1487"/>
      <point x="692" y="1442"/>
      <point x="600" y="1442" type="curve" smooth="yes"/>
      <point x="508" y="1442"/>
      <point x="448" y="1487"/>
      <point x="430" y="1563" type="curve"/>
      <point x="255" y="1534" type="line"/>
      <point x="271" y="1376"/>
      <point x="380" y="1224"/>
    </contour>
  </outline>
</glyph>
<glyph name="circumflex.case" format="2">
  <advance width="1200"/>
  <anchor x="600" y="1386" name="_top"/>
  <outline>
    <contour>
      <point x="697" y="1886" type="line"/>
      <point x="503" y="1886" type="line"/>
      <point x="219" y="1625" type="line"/>
      <point x="334" y="1497" type="line"/>
      <point x="600" y="1666" type="line"/>
      <point x="866" y="1497" type="line"/>
      <point x="979" y="1625" type="line"/>
    </contour>
  </outline>
</glyph>
<glyph name="descStraight-cy.case" format="2">
  <advance width="1200"/>
  <anchor x="638" y="0" name="_bottom"/>
  <anchor x="306" y="0" name="_bottomleft"/>
  <anchor x="705" y="0" name="_bottomright"/>
  <outline>
    <contour>
      <point x="782" y="243" type="line"/>
      <point x="508" y="243" type="line"/>
      <point x="426" y="0" type="line"/>
      <point x="491" y="0" type="line"/>
      <point x="531" y="-349" type="line"/>
      <point x="782" y="-349" type="line"/>
    </contour>
  </outline>
</glyph>
